; Drill file
; Format: 2.4 (00.0000)
M48
INCH
T01C0.0118
T02C0.0197
T03C0.0394
T04C0.0433
T05C0.0512
T06C0.0591
T07C0.0984
T08C0.1299
%
G05
G90
T01
X005010Y004530
X011880Y006780
X012380Y005530
X013880Y005530
X016260Y007780
X014880Y009410
X012380Y009160
X016630Y012910
X017010Y012910
X017380Y012910
X017760Y012910
X018130Y012910
X018510Y012910
X021130Y010780
X023130Y013030
X023940Y012840
X025670Y012840
X024010Y008530
X019880Y007530
X019880Y006030
X018110Y018110
X018700Y018310
X018900Y018900
X017910Y019090
X017520Y019090
X017130Y019090
X017130Y019490
X017520Y019880
X017130Y020280
X016730Y020280
X016730Y019880
X016340Y019490
X015950Y019490
X015950Y019090
X016340Y019090
X015550Y019090
X015550Y019490
X015550Y019880
X015950Y019880
X015950Y020670
X015550Y020670
X015160Y021060
X014760Y021060
X014370Y021060
X013980Y021060
X013980Y021460
X013580Y021460
X013190Y021060
X013190Y020670
X012800Y020280
X012400Y020670
X012010Y020670
X012010Y020280
X011610Y020280
X011220Y020280
X011220Y020670
X010430Y020670
X010830Y019490
X010830Y019090
X011220Y019090
X011220Y019490
X011610Y019490
X011610Y019090
X012010Y019090
X012400Y019090
X012800Y019090
X012800Y019490
X013190Y019490
X013190Y019090
X013980Y019090
X013980Y019490
X014760Y019490
X014760Y019090
X015160Y019880
X014760Y020670
X014760Y021460
X014760Y021850
X014760Y022240
X015160Y022240
X015550Y022240
X015550Y021850
X015950Y021850
X015950Y021460
X016730Y022240
X017130Y022240
X017130Y021460
X017520Y021460
X017520Y020670
X017910Y020280
X017910Y023030
X017910Y023430
X017520Y023030
X017130Y023030
X016730Y023030
X016340Y023030
X015950Y023030
X015950Y023430
X016340Y023430
X015950Y023820
X015550Y023820
X015550Y024210
X016340Y024210
X017130Y025000
X017130Y025390
X017520Y025390
X017910Y025390
X017910Y026180
X017520Y026180
X017130Y026180
X016340Y026180
X016340Y025790
X015950Y025390
X015550Y025790
X015550Y026180
X014760Y026180
X014760Y025790
X014760Y025000
X014760Y024610
X014760Y024210
X014370Y024210
X013980Y024210
X013580Y024210
X013580Y023820
X013190Y023820
X013190Y023430
X013190Y023030
X012800Y023030
X012800Y022640
X013190Y022240
X013580Y022240
X013980Y022240
X013980Y023030
X013980Y023430
X013980Y023820
X014760Y023820
X015160Y023430
X015160Y023030
X015550Y023030
X014760Y023030
X012800Y021850
X012800Y021460
X012800Y021060
X012400Y021060
X012010Y021460
X012400Y022240
X011610Y023030
X011610Y023430
X012010Y023430
X012010Y024210
X012010Y024610
X012010Y025000
X011610Y025000
X011610Y024610
X011220Y024610
X010830Y025000
X010430Y024610
X010040Y024610
X009840Y025590
X010830Y025790
X011220Y025790
X011610Y025790
X011610Y026180
X012400Y025390
X012800Y025000
X013190Y025790
X013190Y026180
X013980Y026180
X013980Y025790
X014370Y026970
X014760Y026970
X014570Y027360
X014170Y027360
X016730Y025390
X017520Y024610
X017910Y024610
X017520Y023820
X018700Y026970
X018110Y027160
X019290Y027160
X021420Y027160
X022050Y027160
X022520Y027160
X022520Y027950
X023940Y027160
X024410Y027160
X024410Y027950
X025510Y027160
X029610Y027160
X030880Y028030
X031880Y028030
X032880Y028030
X033880Y028030
X034880Y028030
X035880Y028030
X036880Y028030
X037880Y028030
X038510Y026410
X035630Y023780
X035630Y022410
X033260Y021910
X032760Y021030
X034380Y019030
X029610Y019920
X029130Y021180
X025980Y021180
X024880Y021180
X025510Y019920
X025510Y019290
X024410Y019760
X023940Y019920
X023460Y021180
X022990Y021180
X022520Y021180
X022050Y019920
X021420Y019920
X020950Y021180
X012010Y019490
X010630Y018110
X010040Y018310
X009760Y016160
X010010Y015910
X010260Y015660
X010510Y015410
X010760Y015160
X011010Y014910
X007260Y015780
X007260Y016530
X006260Y020030
X005260Y020030
X007680Y022240
X008880Y022410
X009450Y022840
X009450Y023230
X009840Y023230
X010830Y023030
X011220Y023430
X011220Y022640
X011220Y021850
X010830Y021850
X010040Y026970
X010010Y027780
X010010Y028410
X008380Y027910
X008010Y026410
X006260Y026530
X006260Y027030
X005260Y027530
X005260Y028030
X003630Y026530
X017440Y036370
X018020Y036370
X018620Y036370
X019210Y036370
X020390Y036370
X025760Y032530
X026760Y032530
X027760Y032530
X028760Y032530
X033630Y032530
X034630Y032530
X035630Y032530
X036630Y032530
X036630Y030410
X035630Y030410
X034630Y030410
X033630Y030410
X033260Y029030
X032260Y029030
X034260Y029030
X035260Y029030
X030630Y025530
X030380Y025280
X030130Y025030
X030880Y024780
X038130Y014530
T02
X023870Y011410
X026620Y012280
X029380Y012780
X032130Y013660
X035130Y012780
X037880Y013660
X034130Y006280
X037380Y005160
X028380Y006280
X027380Y006280
X038380Y029280
T03
X003760Y001280
X005510Y001280
X013630Y003410
X013630Y004410
X014630Y004410
X014630Y003410
X018880Y009030
X019880Y009030
X019380Y011410
X019380Y012280
X026510Y003030
X026510Y002030
X027510Y002030
X028510Y002030
X028510Y003030
X029510Y003030
X029510Y002030
X030510Y002030
X030510Y003030
X027510Y003030
X036630Y015280
X037630Y015280
X037630Y016780
X036630Y016780
X036630Y018280
X037630Y018280
X037630Y019780
X036630Y019780
X036740Y033790
X035760Y033790
X034970Y033790
X033990Y033790
X033990Y034820
X034970Y034820
X035760Y034820
X036740Y034820
X028870Y034820
X027880Y034820
X027090Y034820
X026110Y034820
X026110Y033790
X027090Y033790
X027880Y033790
X028870Y033790
X008760Y034160
X007880Y034160
X007010Y034160
X006130Y034160
X005260Y034160
X005630Y035160
X004760Y035160
X005260Y036160
X006130Y036160
X007010Y036160
X007880Y036160
X008760Y036160
X008260Y035160
X007380Y035160
X006510Y035160
X001630Y024780
X001630Y009280
T04
X001630Y005280
X001630Y006280
X002630Y006280
X002630Y007280
X001630Y007280
X001630Y008280
X002630Y008280
X002630Y009280
X002630Y005280
X002630Y013780
X001630Y013780
X001630Y014780
X001630Y015780
X002630Y015780
X002630Y016780
X001630Y016780
X001630Y017780
X002630Y017780
X002630Y018780
X001630Y018780
X001630Y019780
X002630Y019780
X002630Y020780
X001630Y020780
X001630Y021780
X002630Y021780
X002630Y022780
X001630Y022780
X001630Y023780
X002630Y023780
X002630Y024780
X004510Y015410
X004510Y014410
X002630Y014780
X029880Y015280
X030880Y015280
X031880Y015280
X032880Y015280
X032880Y018280
X031880Y018280
X030880Y018280
X029880Y018280
T05
X006760Y012780
X014760Y012780
X034380Y001530
X036380Y001530
T06
X003130Y002160
X006130Y002160
X007630Y001910
X009630Y001030
X009380Y003780
X018850Y001060
X022000Y001060
T07
X001380Y001580
X011630Y002530
X016630Y002530
X038190Y003540
X037800Y023620
X037950Y033660
X037950Y035910
X032760Y035910
X032760Y033660
X030070Y033660
X030070Y035910
X024880Y035910
X024880Y033660
X023630Y031280
X021860Y035630
X021860Y037990
X016150Y037990
X016150Y035630
X014010Y036780
X001380Y028530
T08
X001760Y035160
X011760Y035160
M30
