%FSLAX34Y34*%
%MOMM*%
%LNSILK_BOTTOM*%
G71*
G01*
%ADD10C, 0.20*%
%ADD11C, 0.25*%
%LPD*%
G54D10*
X18898Y191364D02*
X22962Y191364D01*
X23368Y187732D01*
X22962Y188138D01*
X21742Y188545D01*
X20524Y188545D01*
X19304Y188138D01*
X18492Y187326D01*
X18086Y186106D01*
X18086Y185293D01*
X18492Y184074D01*
X19304Y183261D01*
X20524Y182855D01*
X21742Y182855D01*
X22962Y183261D01*
X23368Y183668D01*
X23775Y184480D01*
G54D10*
X22149Y157836D02*
X18086Y166371D01*
X23775Y166371D01*
G54D10*
X22556Y239751D02*
X21742Y240157D01*
X20524Y241377D01*
X20524Y232842D01*
G54D10*
X22556Y429743D02*
X21742Y430149D01*
X20524Y431368D01*
X20524Y422834D01*
G54D10*
X14021Y422834D02*
X9957Y431368D01*
X15646Y431368D01*
G54D10*
X22556Y404750D02*
X21742Y405156D01*
X20524Y406375D01*
X20524Y397840D01*
G54D10*
X10770Y405156D02*
X10364Y403530D01*
X10770Y402311D01*
X11583Y401498D01*
X12802Y401092D01*
X13208Y401092D01*
X14428Y401498D01*
X15240Y402311D01*
X15646Y403530D01*
X15646Y403937D01*
X15240Y405156D01*
X14428Y405969D01*
X13208Y406375D01*
X12802Y406375D01*
X11583Y405969D01*
X10770Y405156D01*
G54D10*
X10364Y403530D02*
X10364Y401498D01*
X10770Y399466D01*
X11583Y398247D01*
X12802Y397840D01*
X13614Y397840D01*
X14834Y398247D01*
X15240Y399060D01*
G54D10*
X17324Y379806D02*
X17730Y380671D01*
X18593Y381509D01*
X19457Y381940D01*
X21159Y381940D01*
X21997Y381509D01*
X22860Y380671D01*
X23292Y379806D01*
X23724Y378537D01*
X23724Y376403D01*
X23292Y375108D01*
X22860Y374269D01*
X21997Y373406D01*
X21159Y373000D01*
X19457Y373000D01*
X18593Y373406D01*
X17730Y374269D01*
X17324Y375108D01*
X17324Y376403D01*
X19457Y376403D01*
G54D10*
X22556Y504749D02*
X21742Y505155D01*
X20524Y506375D01*
X20524Y497841D01*
G54D10*
X14428Y504749D02*
X13614Y505155D01*
X12396Y506375D01*
X12396Y497841D01*
G54D10*
X22556Y479756D02*
X21742Y480162D01*
X20524Y481382D01*
X20524Y472847D01*
G54D10*
X14834Y481382D02*
X10364Y481382D01*
X12802Y478130D01*
X11583Y478130D01*
X10770Y477724D01*
X10364Y477317D01*
X9957Y476098D01*
X9957Y475285D01*
X10364Y474066D01*
X11176Y473253D01*
X12396Y472847D01*
X13614Y472847D01*
X14834Y473253D01*
X15240Y473659D01*
X15646Y474472D01*
G54D10*
X22556Y454762D02*
X21742Y455168D01*
X20524Y456388D01*
X20524Y447854D01*
G54D10*
X10770Y456388D02*
X14834Y456388D01*
X15240Y452730D01*
X14834Y453136D01*
X13614Y453543D01*
X12396Y453543D01*
X11176Y453136D01*
X10364Y452323D01*
X9957Y451104D01*
X9957Y450291D01*
X10364Y449072D01*
X11176Y448260D01*
X12396Y447854D01*
X13614Y447854D01*
X14834Y448260D01*
X15240Y448666D01*
X15646Y449478D01*
G54D10*
X18898Y581381D02*
X22962Y581381D01*
X23368Y577724D01*
X22962Y578130D01*
X21742Y578536D01*
X20524Y578536D01*
X19304Y578130D01*
X18492Y577317D01*
X18086Y576098D01*
X18086Y575285D01*
X18492Y574066D01*
X19304Y573253D01*
X20524Y572847D01*
X21742Y572847D01*
X22962Y573253D01*
X23368Y573660D01*
X23775Y574472D01*
G54D10*
X22149Y547853D02*
X18086Y556388D01*
X23775Y556388D01*
G54D10*
X18898Y530149D02*
X18492Y528524D01*
X18898Y527304D01*
X19711Y526491D01*
X20930Y526085D01*
X21336Y526085D01*
X22556Y526491D01*
X23368Y527304D01*
X23775Y528524D01*
X23775Y528930D01*
X23368Y530149D01*
X22556Y530962D01*
X21336Y531369D01*
X20930Y531369D01*
X19711Y530962D01*
X18898Y530149D01*
G54D10*
X18492Y528524D02*
X18492Y526491D01*
X18898Y524459D01*
X19711Y523240D01*
X20930Y522834D01*
X21742Y522834D01*
X22962Y523240D01*
X23368Y524053D01*
G54D10*
X22556Y629743D02*
X21742Y630149D01*
X20524Y631369D01*
X20524Y622834D01*
G54D10*
X22962Y606375D02*
X18492Y606375D01*
X20930Y603123D01*
X19711Y603123D01*
X18898Y602717D01*
X18492Y602310D01*
X18086Y601091D01*
X18086Y600278D01*
X18492Y599059D01*
X19304Y598247D01*
X20524Y597841D01*
X21742Y597841D01*
X22962Y598247D01*
X23368Y598653D01*
X23775Y599465D01*
G54D10*
X97562Y429743D02*
X96749Y430149D01*
X95530Y431368D01*
X95530Y422834D01*
G54D10*
X86996Y431368D02*
X88621Y431368D01*
X89840Y430962D01*
X90246Y430149D01*
X90246Y429336D01*
X89840Y428523D01*
X89028Y428117D01*
X87402Y427711D01*
X86182Y427304D01*
X85370Y426492D01*
X84964Y425679D01*
X84964Y424460D01*
X85370Y423647D01*
X85776Y423241D01*
X86996Y422834D01*
X88621Y422834D01*
X89840Y423241D01*
X90246Y423647D01*
X90653Y424460D01*
X90653Y425679D01*
X90246Y426492D01*
X89434Y427304D01*
X88215Y427711D01*
X86589Y428117D01*
X85776Y428523D01*
X85370Y429336D01*
X85370Y430149D01*
X85776Y430962D01*
X86996Y431368D01*
G54D10*
X98374Y404343D02*
X98374Y404750D01*
X97968Y405563D01*
X97562Y405969D01*
X96749Y406375D01*
X95124Y406375D01*
X94310Y405969D01*
X93904Y405563D01*
X93498Y404750D01*
X93498Y403937D01*
X93904Y403124D01*
X94717Y401905D01*
X98781Y397840D01*
X93092Y397840D01*
G54D10*
X87402Y406375D02*
X88215Y406375D01*
X89434Y405969D01*
X90246Y404750D01*
X90653Y402718D01*
X90653Y401498D01*
X90246Y399466D01*
X89434Y398247D01*
X88215Y397840D01*
X87402Y397840D01*
X86182Y398247D01*
X85370Y399466D01*
X84964Y401498D01*
X84964Y402718D01*
X85370Y404750D01*
X86182Y405969D01*
X87402Y406375D01*
G54D10*
X85370Y404750D02*
X90246Y399466D01*
G54D10*
X82322Y379806D02*
X82728Y380671D01*
X83592Y381509D01*
X84456Y381940D01*
X86158Y381940D01*
X86996Y381509D01*
X87859Y380671D01*
X88291Y379806D01*
X88722Y378537D01*
X88722Y376403D01*
X88291Y375108D01*
X87859Y374269D01*
X86996Y373406D01*
X86158Y373000D01*
X84456Y373000D01*
X83592Y373406D01*
X82728Y374269D01*
X82322Y375108D01*
X82322Y376403D01*
X84456Y376403D01*
G54D10*
X97562Y504749D02*
X96749Y505155D01*
X95530Y506375D01*
X95530Y497841D01*
G54D10*
X90246Y504342D02*
X90246Y504749D01*
X89840Y505562D01*
X89434Y505968D01*
X88621Y506375D01*
X86996Y506375D01*
X86182Y505968D01*
X85776Y505562D01*
X85370Y504749D01*
X85370Y503936D01*
X85776Y503123D01*
X86589Y501905D01*
X90653Y497841D01*
X84964Y497841D01*
G54D10*
X97562Y479756D02*
X96749Y480162D01*
X95530Y481382D01*
X95530Y472847D01*
G54D10*
X86589Y472847D02*
X86589Y481382D01*
X90653Y475692D01*
X84557Y475692D01*
G54D10*
X97562Y454762D02*
X96749Y455168D01*
X95530Y456388D01*
X95530Y447854D01*
G54D10*
X85370Y455168D02*
X85776Y455981D01*
X86996Y456388D01*
X87808Y456388D01*
X89028Y455981D01*
X89840Y454762D01*
X90246Y452730D01*
X90246Y450698D01*
X89840Y449072D01*
X89028Y448260D01*
X87808Y447854D01*
X87402Y447854D01*
X86182Y448260D01*
X85370Y449072D01*
X84964Y450291D01*
X84964Y450698D01*
X85370Y451917D01*
X86182Y452730D01*
X87402Y453136D01*
X87808Y453136D01*
X89028Y452730D01*
X89840Y451917D01*
X90246Y450698D01*
G54D10*
X93498Y580161D02*
X93904Y580974D01*
X95124Y581381D01*
X95936Y581381D01*
X97156Y580974D01*
X97968Y579755D01*
X98374Y577724D01*
X98374Y575692D01*
X97968Y574066D01*
X97156Y573253D01*
X95936Y572847D01*
X95530Y572847D01*
X94310Y573253D01*
X93498Y574066D01*
X93092Y575285D01*
X93092Y575692D01*
X93498Y576911D01*
X94310Y577724D01*
X95530Y578130D01*
X95936Y578130D01*
X97156Y577724D01*
X97968Y576911D01*
X98374Y575692D01*
G54D10*
X95124Y556388D02*
X96749Y556388D01*
X97968Y555981D01*
X98374Y555168D01*
X98374Y554356D01*
X97968Y553543D01*
X97156Y553136D01*
X95530Y552730D01*
X94310Y552323D01*
X93498Y551511D01*
X93092Y550698D01*
X93092Y549478D01*
X93498Y548666D01*
X93904Y548259D01*
X95124Y547853D01*
X96749Y547853D01*
X97968Y548259D01*
X98374Y548666D01*
X98781Y549478D01*
X98781Y550698D01*
X98374Y551511D01*
X97562Y552323D01*
X96342Y552730D01*
X94717Y553136D01*
X93904Y553543D01*
X93498Y554356D01*
X93498Y555168D01*
X93904Y555981D01*
X95124Y556388D01*
G54D10*
X97562Y529743D02*
X96749Y530149D01*
X95530Y531369D01*
X95530Y522834D01*
G54D10*
X87402Y531369D02*
X88215Y531369D01*
X89434Y530962D01*
X90246Y529743D01*
X90653Y527711D01*
X90653Y526491D01*
X90246Y524459D01*
X89434Y523240D01*
X88215Y522834D01*
X87402Y522834D01*
X86182Y523240D01*
X85370Y524459D01*
X84964Y526491D01*
X84964Y527711D01*
X85370Y529743D01*
X86182Y530962D01*
X87402Y531369D01*
G54D10*
X85370Y529743D02*
X90246Y524459D01*
G54D10*
X98374Y629336D02*
X98374Y629743D01*
X97968Y630556D01*
X97562Y630962D01*
X96749Y631369D01*
X95124Y631369D01*
X94310Y630962D01*
X93904Y630556D01*
X93498Y629743D01*
X93498Y628930D01*
X93904Y628117D01*
X94717Y626898D01*
X98781Y622834D01*
X93092Y622834D01*
G54D10*
X94717Y597841D02*
X94717Y606375D01*
X98781Y600685D01*
X92685Y600685D01*
G54D11*
X162154Y416789D02*
X162154Y423139D01*
G54D11*
X162154Y397739D02*
X162154Y404089D01*
G54D11*
X252502Y447498D02*
X252502Y452502D01*
G54D11*
X294996Y532511D02*
X294996Y537490D01*
G54D10*
X292304Y549809D02*
X292736Y550673D01*
X293599Y551511D01*
X294437Y551942D01*
X296164Y551942D01*
X297002Y551511D01*
X297866Y550673D01*
X298272Y549809D01*
X298704Y548538D01*
X298704Y546405D01*
X298272Y545110D01*
X297866Y544271D01*
X297002Y543408D01*
X296164Y542977D01*
X294437Y542977D01*
X293599Y543408D01*
X292736Y544271D01*
X292304Y545110D01*
G54D11*
X274981Y607492D02*
X274981Y602514D01*
G54D10*
X272314Y619811D02*
X272746Y620674D01*
X273584Y621513D01*
X274448Y621945D01*
X276149Y621945D01*
X277013Y621513D01*
X277851Y620674D01*
X278282Y619811D01*
X278715Y618541D01*
X278715Y616407D01*
X278282Y615112D01*
X277851Y614274D01*
X277013Y613410D01*
X276149Y612978D01*
X274448Y612978D01*
X273584Y613410D01*
X272746Y614274D01*
X272314Y615112D01*
G54D11*
X314554Y191364D02*
X327254Y191364D01*
X327254Y178664D01*
X314554Y178664D01*
X314554Y191364D01*
G54D11*
X349479Y185014D02*
X355829Y185014D01*
G54D10*
X364008Y188468D02*
X364440Y189306D01*
X365303Y190171D01*
X366141Y190602D01*
X367843Y190602D01*
X368707Y190171D01*
X369570Y189306D01*
X369976Y188468D01*
X370409Y187173D01*
X370409Y185039D01*
X369976Y183769D01*
X369570Y182906D01*
X368707Y182067D01*
X367843Y181635D01*
X366141Y181635D01*
X365303Y182067D01*
X364440Y182906D01*
X364008Y183769D01*
G54D11*
X317500Y505003D02*
X312496Y505003D01*
G54D11*
X362484Y554990D02*
X367488Y554990D01*
G54D10*
X352197Y557860D02*
X352603Y558724D01*
X353467Y559563D01*
X354330Y559994D01*
X356032Y559994D01*
X356870Y559563D01*
X357734Y558724D01*
X358166Y557860D01*
X358598Y556590D01*
X358598Y554457D01*
X358166Y553162D01*
X357734Y552323D01*
X356870Y551460D01*
X356032Y551028D01*
X354330Y551028D01*
X353467Y551460D01*
X352603Y552323D01*
X352197Y553162D01*
G54D11*
X337490Y624993D02*
X332486Y624993D01*
G54D10*
X342316Y627304D02*
X342748Y628168D01*
X343586Y629006D01*
X344450Y629437D01*
X346152Y629437D01*
X347016Y629006D01*
X347854Y628168D01*
X348285Y627304D01*
X348717Y626035D01*
X348717Y623901D01*
X348285Y622631D01*
X347854Y621767D01*
X347016Y620903D01*
X346152Y620497D01*
X344450Y620497D01*
X343586Y620903D01*
X342748Y621767D01*
X342316Y622631D01*
G54D11*
X317500Y624993D02*
X312496Y624993D01*
G54D10*
X312319Y604799D02*
X312750Y605664D01*
X313588Y606527D01*
X314452Y606933D01*
X316154Y606933D01*
X317018Y606527D01*
X317856Y605664D01*
X318288Y604799D01*
X318720Y603530D01*
X318720Y601397D01*
X318288Y600126D01*
X317856Y599263D01*
X317018Y598425D01*
X316154Y597993D01*
X314452Y597993D01*
X313588Y598425D01*
X312750Y599263D01*
X312319Y600126D01*
G54D11*
X367488Y594996D02*
X362484Y594996D01*
G54D11*
X317500Y675005D02*
X312496Y675005D01*
G54D11*
X393929Y185014D02*
X400279Y185014D01*
G54D10*
X408458Y188468D02*
X408890Y189306D01*
X409754Y190171D01*
X410592Y190602D01*
X412294Y190602D01*
X413156Y190171D01*
X414020Y189306D01*
X414427Y188468D01*
X414858Y187173D01*
X414858Y185039D01*
X414427Y183769D01*
X414020Y182906D01*
X413156Y182067D01*
X412294Y181635D01*
X410592Y181635D01*
X409754Y182067D01*
X408890Y182906D01*
X408458Y183769D01*
G54D11*
X454990Y562508D02*
X454990Y567513D01*
G54D10*
X442316Y537312D02*
X442748Y538176D01*
X443586Y539014D01*
X444450Y539446D01*
X446152Y539446D01*
X447015Y539014D01*
X447853Y538176D01*
X448285Y537312D01*
X448717Y536042D01*
X448717Y533908D01*
X448285Y532613D01*
X447853Y531775D01*
X447015Y530911D01*
X446152Y530479D01*
X444450Y530479D01*
X443586Y530911D01*
X442748Y531775D01*
X442316Y532613D01*
G54D11*
X417500Y635000D02*
X412496Y635000D01*
G54D10*
X399822Y634823D02*
X400228Y635661D01*
X401092Y636524D01*
X401956Y636956D01*
X403658Y636956D01*
X404496Y636524D01*
X405359Y635661D01*
X405791Y634823D01*
X406222Y633527D01*
X406222Y631394D01*
X405791Y630123D01*
X405359Y629260D01*
X404496Y628422D01*
X403658Y627990D01*
X401956Y627990D01*
X401092Y628422D01*
X400228Y629260D01*
X399822Y630123D01*
G54D11*
X437490Y615011D02*
X432486Y615011D01*
G54D10*
X419812Y609804D02*
X420244Y610667D01*
X421082Y611531D01*
X421946Y611938D01*
X423647Y611938D01*
X424510Y611531D01*
X425349Y610667D01*
X425780Y609804D01*
X426212Y608534D01*
X426212Y606400D01*
X425780Y605130D01*
X425349Y604267D01*
X424510Y603403D01*
X423647Y602996D01*
X421946Y602996D01*
X421082Y603403D01*
X420244Y604267D01*
X419812Y605130D01*
G54D11*
X462484Y447498D02*
X462484Y452502D01*
G54D11*
X464998Y697510D02*
X464998Y702513D01*
G54D11*
X670154Y115164D02*
X676504Y115164D01*
G54D11*
X673329Y927964D02*
X673329Y931139D01*
X670154Y931139D01*
X670154Y927964D01*
X673329Y927964D01*
G54D11*
X746354Y115164D02*
X752704Y115164D01*
G54D11*
X720954Y115164D02*
X727304Y115164D01*
G54D11*
X771754Y115164D02*
X778104Y115164D01*
G54D10*
X800990Y117196D02*
X800176Y117628D01*
X798906Y118873D01*
X798906Y110135D01*
G54D10*
X793496Y118873D02*
X793496Y110135D01*
G54D10*
X787680Y118873D02*
X793496Y113056D01*
G54D10*
X791414Y115113D02*
X787680Y110135D01*
G54D11*
X790804Y426314D02*
X778104Y426314D01*
G54D11*
X816204Y426314D02*
X803504Y426314D01*
G54D11*
X870179Y927964D02*
X870179Y931139D01*
X867004Y931139D01*
X867004Y927964D01*
X870179Y927964D01*
G54D10*
X21108Y137668D02*
X21540Y138506D01*
X22404Y139370D01*
X23242Y139802D01*
X24943Y139802D01*
X25807Y139370D01*
X26670Y138506D01*
X27076Y137668D01*
X27508Y136373D01*
X27508Y134239D01*
X27076Y132970D01*
X26670Y132105D01*
X25807Y131267D01*
X24943Y130836D01*
X23242Y130836D01*
X22404Y131267D01*
X21540Y132105D01*
X21108Y132970D01*
X21108Y134239D01*
X23242Y134239D01*
G54D10*
X22962Y216383D02*
X18492Y216383D01*
X20930Y213131D01*
X19711Y213131D01*
X18898Y212725D01*
X18492Y212319D01*
X18086Y211100D01*
X18086Y210287D01*
X18492Y209068D01*
X19304Y208255D01*
X20524Y207849D01*
X21742Y207849D01*
X22962Y208255D01*
X23368Y208662D01*
X23775Y209474D01*
G54D10*
X249682Y440360D02*
X250114Y441224D01*
X250978Y442062D01*
X251816Y442493D01*
X253518Y442493D01*
X254382Y442062D01*
X255245Y441224D01*
X255652Y440360D01*
X256084Y439091D01*
X256084Y436957D01*
X255652Y435661D01*
X255245Y434823D01*
X254382Y433959D01*
X253518Y433528D01*
X251816Y433528D01*
X250978Y433959D01*
X250114Y434823D01*
X249682Y435661D01*
G54D11*
X342494Y515010D02*
X347498Y515010D01*
G54D10*
X350927Y517855D02*
X351358Y518719D01*
X352222Y519558D01*
X353060Y519990D01*
X354788Y519990D01*
X355626Y519558D01*
X356490Y518719D01*
X356922Y517855D01*
X357328Y516586D01*
X357328Y514452D01*
X356922Y513182D01*
X356490Y512319D01*
X355626Y511454D01*
X354788Y511048D01*
X353060Y511048D01*
X352222Y511454D01*
X351358Y512319D01*
X350927Y513182D01*
G54D10*
X370942Y597866D02*
X371374Y598704D01*
X372212Y599567D01*
X373076Y599999D01*
X374778Y599999D01*
X375641Y599567D01*
X376479Y598704D01*
X376911Y597866D01*
X377343Y596570D01*
X377343Y594462D01*
X376911Y593166D01*
X376479Y592328D01*
X375641Y591465D01*
X374778Y591033D01*
X373076Y591033D01*
X372212Y591465D01*
X371374Y592328D01*
X370942Y593166D01*
G54D11*
X417500Y515010D02*
X412496Y515010D01*
G54D10*
X402311Y517322D02*
X402742Y518160D01*
X403581Y519024D01*
X404444Y519456D01*
X406146Y519456D01*
X407010Y519024D01*
X407848Y518160D01*
X408280Y517322D01*
X408712Y516027D01*
X408712Y513893D01*
X408280Y512623D01*
X407848Y511760D01*
X407010Y510921D01*
X406146Y510489D01*
X404444Y510489D01*
X403581Y510921D01*
X402742Y511760D01*
X402311Y512623D01*
G54D10*
X743509Y465480D02*
X734975Y465480D01*
X740664Y469545D01*
X740664Y463449D01*
G54D10*
X737820Y456134D02*
X743509Y451663D01*
G54D10*
X737820Y451663D02*
X743509Y456134D01*
G54D10*
X736600Y442722D02*
X736194Y441909D01*
X734975Y440690D01*
X743509Y440690D01*
G54D10*
X734975Y432563D02*
X734975Y433375D01*
X735381Y434595D01*
X736600Y435408D01*
X738632Y435814D01*
X739852Y435814D01*
X741884Y435408D01*
X743102Y434595D01*
X743509Y433375D01*
X743509Y432563D01*
X743102Y431343D01*
X741884Y430530D01*
X739852Y430124D01*
X738632Y430124D01*
X736600Y430530D01*
X735381Y431343D01*
X734975Y432563D01*
G54D10*
X736600Y430530D02*
X741884Y435408D01*
G54D10*
X734975Y427279D02*
X743509Y427279D01*
G54D10*
X734975Y421590D02*
X740664Y427279D01*
G54D10*
X738632Y425247D02*
X743509Y421590D01*
G54D10*
X93904Y356388D02*
X97968Y356388D01*
X98374Y352731D01*
X97968Y353136D01*
X96749Y353543D01*
X95530Y353543D01*
X94310Y353136D01*
X93498Y352324D01*
X93092Y351105D01*
X93092Y350292D01*
X93498Y349073D01*
X94310Y348260D01*
X95530Y347854D01*
X96749Y347854D01*
X97968Y348260D01*
X98374Y348666D01*
X98781Y349479D01*
G54D10*
X89434Y348260D02*
X89840Y348666D01*
X90246Y348260D01*
X89840Y347854D01*
X89434Y348260D01*
G54D10*
X83338Y356388D02*
X84150Y356388D01*
X85370Y355981D01*
X86182Y354762D01*
X86589Y352731D01*
X86589Y351511D01*
X86182Y349479D01*
X85370Y348260D01*
X84150Y347854D01*
X83338Y347854D01*
X82119Y348260D01*
X81306Y349479D01*
X80900Y351511D01*
X80900Y352731D01*
X81306Y354762D01*
X82119Y355981D01*
X83338Y356388D01*
G54D10*
X81306Y354762D02*
X86182Y349479D01*
G54D10*
X22962Y356388D02*
X18492Y356388D01*
X20930Y353136D01*
X19711Y353136D01*
X18898Y352731D01*
X18492Y352324D01*
X18086Y351105D01*
X18086Y350292D01*
X18492Y349073D01*
X19304Y348260D01*
X20524Y347854D01*
X21742Y347854D01*
X22962Y348260D01*
X23368Y348666D01*
X23775Y349479D01*
G54D10*
X14428Y348260D02*
X14834Y348666D01*
X15240Y348260D01*
X14834Y347854D01*
X14428Y348260D01*
G54D10*
X10770Y356388D02*
X6300Y356388D01*
X8738Y353136D01*
X7518Y353136D01*
X6706Y352731D01*
X6300Y352324D01*
X5894Y351105D01*
X5894Y350292D01*
X6300Y349073D01*
X7112Y348260D01*
X8332Y347854D01*
X9551Y347854D01*
X10770Y348260D01*
X11176Y348666D01*
X11583Y349479D01*
G54D10*
X172364Y391770D02*
X171526Y392177D01*
X170307Y393421D01*
X170307Y384734D01*
G54D10*
X162027Y393421D02*
X162866Y393421D01*
X164110Y393015D01*
X164923Y391770D01*
X165354Y389688D01*
X165354Y388468D01*
X164923Y386385D01*
X164110Y385166D01*
X162866Y384734D01*
X162027Y384734D01*
X160808Y385166D01*
X159970Y386385D01*
X159563Y388468D01*
X159563Y389688D01*
X159970Y391770D01*
X160808Y393015D01*
X162027Y393421D01*
G54D10*
X159970Y391770D02*
X164923Y386385D01*
G54D10*
X156668Y393421D02*
X156668Y384734D01*
G54D10*
X150876Y393421D02*
X156668Y387630D01*
G54D10*
X154610Y389688D02*
X150876Y384734D01*
G54D10*
X308890Y188570D02*
X308052Y188976D01*
X306832Y190221D01*
X306832Y181535D01*
G54D10*
X301448Y187326D02*
X301448Y183211D01*
X301041Y181966D01*
X300203Y181535D01*
X298958Y181535D01*
X298146Y181966D01*
X296901Y183211D01*
G54D10*
X296901Y187326D02*
X296901Y181535D01*
G54D10*
X288214Y190221D02*
X293599Y190221D01*
X293599Y181535D01*
G54D10*
X293599Y186106D02*
X290272Y186106D01*
G54D10*
X302311Y507315D02*
X302743Y508153D01*
X303581Y509017D01*
X304445Y509449D01*
X306147Y509449D01*
X307010Y509017D01*
X307848Y508153D01*
X308280Y507315D01*
X308712Y506045D01*
X308712Y503911D01*
X308280Y502616D01*
X307848Y501778D01*
X307010Y500913D01*
X306147Y500482D01*
X304445Y500482D01*
X303581Y500913D01*
X302743Y501778D01*
X302311Y502616D01*
G54D10*
X472516Y554914D02*
X471678Y555321D01*
X470460Y556565D01*
X470460Y547904D01*
G54D10*
X462179Y556565D02*
X463017Y556565D01*
X464262Y556159D01*
X465074Y554914D01*
X465481Y552857D01*
X465481Y551612D01*
X465074Y549555D01*
X464262Y548311D01*
X463017Y547904D01*
X462179Y547904D01*
X460960Y548311D01*
X460122Y549555D01*
X459715Y551612D01*
X459715Y552857D01*
X460122Y554914D01*
X460960Y556159D01*
X462179Y556565D01*
G54D10*
X460122Y554914D02*
X465074Y549555D01*
G54D10*
X456820Y556565D02*
X456820Y547904D01*
G54D10*
X451028Y556565D02*
X456820Y550774D01*
G54D10*
X454762Y552857D02*
X451028Y547904D01*
G54D10*
X382194Y527863D02*
X382626Y528727D01*
X383464Y529565D01*
X384328Y529997D01*
X386030Y529997D01*
X386868Y529565D01*
X387732Y528727D01*
X388163Y527863D01*
X388595Y526593D01*
X388595Y524459D01*
X388163Y523164D01*
X387732Y522326D01*
X386868Y521462D01*
X386030Y521030D01*
X384328Y521030D01*
X383464Y521462D01*
X382626Y522326D01*
X382194Y523164D01*
G54D10*
X462306Y714807D02*
X462738Y715671D01*
X463602Y716509D01*
X464440Y716941D01*
X466142Y716941D01*
X467004Y716509D01*
X467868Y715671D01*
X468275Y714807D01*
X468706Y713537D01*
X468706Y711403D01*
X468275Y710108D01*
X467868Y709270D01*
X467004Y708406D01*
X466142Y707974D01*
X464440Y707974D01*
X463602Y708406D01*
X462738Y709270D01*
X462306Y710108D01*
G54D10*
X300380Y679882D02*
X300813Y680745D01*
X301676Y681584D01*
X302514Y682016D01*
X304216Y682016D01*
X305080Y681584D01*
X305944Y680745D01*
X306350Y679882D01*
X306782Y678612D01*
X306782Y676478D01*
X306350Y675183D01*
X305944Y674345D01*
X305080Y673481D01*
X304216Y673049D01*
X302514Y673049D01*
X301676Y673481D01*
X300813Y674345D01*
X300380Y675183D01*
G54D10*
X734797Y148743D02*
X730327Y148743D01*
X732765Y145491D01*
X731546Y145491D01*
X730733Y145085D01*
X730327Y144679D01*
X729920Y143459D01*
X729920Y142646D01*
X730327Y141428D01*
X731139Y140615D01*
X732358Y140209D01*
X733578Y140209D01*
X734797Y140615D01*
X735204Y141022D01*
X735610Y141834D01*
G54D10*
X722198Y145898D02*
X717728Y140209D01*
G54D10*
X717728Y145898D02*
X722198Y140209D01*
G54D10*
X708788Y147117D02*
X707974Y147524D01*
X706756Y148743D01*
X706756Y140209D01*
G54D10*
X698627Y148743D02*
X699440Y148743D01*
X700660Y148336D01*
X701472Y147117D01*
X701878Y145085D01*
X701878Y143866D01*
X701472Y141834D01*
X700660Y140615D01*
X699440Y140209D01*
X698627Y140209D01*
X697408Y140615D01*
X696596Y141834D01*
X696189Y143866D01*
X696189Y145085D01*
X696596Y147117D01*
X697408Y148336D01*
X698627Y148743D01*
G54D10*
X696596Y147117D02*
X701472Y141834D01*
G54D10*
X693344Y148743D02*
X693344Y140209D01*
G54D10*
X687654Y148743D02*
X693344Y143053D01*
G54D10*
X691312Y145085D02*
X687654Y140209D01*
G54D11*
X765404Y426314D02*
X752704Y426314D01*
G54D11*
X841604Y426314D02*
X828904Y426314D01*
G54D10*
X709702Y767843D02*
X709702Y776377D01*
X713766Y770688D01*
X707670Y770688D01*
G54D10*
X700355Y773532D02*
X695910Y767843D01*
G54D10*
X695910Y773532D02*
X700355Y767843D01*
G54D10*
X686969Y774751D02*
X686156Y775157D01*
X684936Y776377D01*
X684936Y767843D01*
G54D10*
X675184Y776377D02*
X679247Y776377D01*
X679654Y772719D01*
X679247Y773125D01*
X678028Y773532D01*
X676808Y773532D01*
X675590Y773125D01*
X674777Y772312D01*
X674370Y771094D01*
X674370Y770281D01*
X674777Y769062D01*
X675590Y768249D01*
X676808Y767843D01*
X678028Y767843D01*
X679247Y768249D01*
X679654Y768655D01*
X680060Y769468D01*
G54D10*
X671526Y776377D02*
X671526Y767843D01*
G54D10*
X665836Y776377D02*
X671526Y770688D01*
G54D10*
X669494Y772719D02*
X665836Y767843D01*
G54D10*
X719303Y939420D02*
X719303Y930809D01*
G54D10*
X716026Y934924D02*
X712344Y934924D01*
X711099Y935330D01*
X710692Y935737D01*
X710286Y936550D01*
X710286Y937794D01*
X710692Y938607D01*
X711099Y939013D01*
X712344Y939420D01*
X716026Y939420D01*
X716026Y930809D01*
G54D10*
X703733Y930809D02*
X703733Y939420D01*
X707822Y933679D01*
X701676Y933679D01*
G54D10*
X699212Y937388D02*
X699212Y937794D01*
X698805Y938607D01*
X698399Y939013D01*
X697586Y939420D01*
X695935Y939420D01*
X695122Y939013D01*
X694716Y938607D01*
X694284Y937794D01*
X694284Y936981D01*
X694716Y936143D01*
X695528Y934924D01*
X699618Y930809D01*
X693878Y930809D01*
G54D10*
X691008Y937388D02*
X691008Y937794D01*
X690601Y938607D01*
X690194Y939013D01*
X689382Y939420D01*
X687731Y939420D01*
X686918Y939013D01*
X686512Y938607D01*
X686105Y937794D01*
X686105Y936981D01*
X686512Y936143D01*
X687324Y934924D01*
X691414Y930809D01*
X685674Y930809D01*
G54D10*
X679933Y939420D02*
X680771Y939420D01*
X681990Y939013D01*
X682803Y937794D01*
X683235Y935737D01*
X683235Y934518D01*
X682803Y932460D01*
X681990Y931241D01*
X680771Y930809D01*
X679933Y930809D01*
X678714Y931241D01*
X677901Y932460D01*
X677494Y934518D01*
X677494Y935737D01*
X677901Y937794D01*
X678714Y939013D01*
X679933Y939420D01*
G54D10*
X677901Y937794D02*
X682803Y932460D01*
G54D10*
X941502Y659918D02*
X943128Y659918D01*
X944347Y659511D01*
X944754Y658698D01*
X944754Y657885D01*
X944347Y657073D01*
X943534Y656666D01*
X941909Y656260D01*
X940690Y655853D01*
X939876Y655041D01*
X939470Y654229D01*
X939470Y653009D01*
X939876Y652196D01*
X940283Y651790D01*
X941502Y651384D01*
X943128Y651384D01*
X944347Y651790D01*
X944754Y652196D01*
X945160Y653009D01*
X945160Y654229D01*
X944754Y655041D01*
X943940Y655853D01*
X942722Y656260D01*
X941096Y656666D01*
X940283Y657073D01*
X939876Y657885D01*
X939876Y658698D01*
X940283Y659511D01*
X941502Y659918D01*
G54D10*
X931748Y657073D02*
X927278Y651384D01*
G54D10*
X927278Y657073D02*
X931748Y651384D01*
G54D10*
X918338Y658292D02*
X917524Y658698D01*
X916306Y659918D01*
X916306Y651384D01*
G54D10*
X911022Y659918D02*
X911022Y651384D01*
G54D10*
X905332Y659918D02*
X911022Y654229D01*
G54D10*
X908990Y656260D02*
X905332Y651384D01*
G54D10*
X96622Y139217D02*
X92152Y139217D01*
X94590Y135967D01*
X93371Y135967D01*
X92558Y135561D01*
X92152Y135154D01*
X91745Y133935D01*
X91745Y133122D01*
X92152Y131903D01*
X92964Y131090D01*
X94184Y130683D01*
X95403Y130683D01*
X96622Y131090D01*
X97028Y131496D01*
X97434Y132309D01*
G54D10*
X88088Y131090D02*
X88494Y131496D01*
X88900Y131090D01*
X88494Y130683D01*
X88088Y131090D01*
G54D10*
X84430Y139217D02*
X79960Y139217D01*
X82398Y135967D01*
X81179Y135967D01*
X80366Y135561D01*
X79960Y135154D01*
X79553Y133935D01*
X79553Y133122D01*
X79960Y131903D01*
X80772Y131090D01*
X81992Y130683D01*
X83211Y130683D01*
X84430Y131090D01*
X84836Y131496D01*
X85242Y132309D01*
G54D10*
X178714Y436220D02*
X177876Y436627D01*
X176658Y437871D01*
X176658Y429184D01*
G54D10*
X168377Y437871D02*
X169215Y437871D01*
X170460Y437465D01*
X171272Y436220D01*
X171704Y434137D01*
X171704Y432918D01*
X171272Y430835D01*
X170460Y429616D01*
X169215Y429184D01*
X168377Y429184D01*
X167158Y429616D01*
X166320Y430835D01*
X165913Y432918D01*
X165913Y434137D01*
X166320Y436220D01*
X167158Y437465D01*
X168377Y437871D01*
G54D10*
X166320Y436220D02*
X171272Y430835D01*
G54D10*
X163018Y437871D02*
X163018Y429184D01*
G54D10*
X157226Y437871D02*
X163018Y432079D01*
G54D10*
X160960Y434137D02*
X157226Y429184D01*
G54D11*
X384988Y512496D02*
X384988Y517500D01*
G54D10*
X458445Y440360D02*
X458877Y441224D01*
X459715Y442062D01*
X460578Y442493D01*
X462280Y442493D01*
X463119Y442062D01*
X463982Y441224D01*
X464414Y440360D01*
X464846Y439091D01*
X464846Y436957D01*
X464414Y435661D01*
X463982Y434823D01*
X463119Y433959D01*
X462280Y433528D01*
X460578Y433528D01*
X459715Y433959D01*
X458877Y434823D01*
X458445Y435661D01*
G54D10*
X912520Y756158D02*
X912520Y764693D01*
X916585Y759003D01*
X910488Y759003D01*
G54D10*
X903174Y761848D02*
X898703Y756158D01*
G54D10*
X898703Y761848D02*
X903174Y756158D01*
G54D10*
X889762Y763067D02*
X888950Y763474D01*
X887730Y764693D01*
X887730Y756158D01*
G54D10*
X877976Y764693D02*
X882041Y764693D01*
X882448Y761035D01*
X882041Y761442D01*
X880822Y761848D01*
X879602Y761848D01*
X878383Y761442D01*
X877570Y760629D01*
X877164Y759409D01*
X877164Y758597D01*
X877570Y757377D01*
X878383Y756564D01*
X879602Y756158D01*
X880822Y756158D01*
X882041Y756564D01*
X882448Y756971D01*
X882854Y757784D01*
G54D10*
X874319Y764693D02*
X874319Y756158D01*
G54D10*
X868630Y764693D02*
X874319Y759003D01*
G54D10*
X872287Y761035D02*
X868630Y756158D01*
G54D10*
X919328Y939420D02*
X919328Y930809D01*
G54D10*
X916052Y934924D02*
X912368Y934924D01*
X911124Y935330D01*
X910718Y935737D01*
X910311Y936550D01*
X910311Y937794D01*
X910718Y938607D01*
X911124Y939013D01*
X912368Y939420D01*
X916052Y939420D01*
X916052Y930809D01*
G54D10*
X903758Y930809D02*
X903758Y939420D01*
X907848Y933679D01*
X901700Y933679D01*
G54D10*
X899236Y937388D02*
X899236Y937794D01*
X898830Y938607D01*
X898424Y939013D01*
X897611Y939420D01*
X895960Y939420D01*
X895147Y939013D01*
X894740Y938607D01*
X894309Y937794D01*
X894309Y936981D01*
X894740Y936143D01*
X895554Y934924D01*
X899643Y930809D01*
X893902Y930809D01*
G54D10*
X891032Y937388D02*
X891032Y937794D01*
X890626Y938607D01*
X890220Y939013D01*
X889406Y939420D01*
X887756Y939420D01*
X886943Y939013D01*
X886536Y938607D01*
X886130Y937794D01*
X886130Y936981D01*
X886536Y936143D01*
X887349Y934924D01*
X891439Y930809D01*
X885698Y930809D01*
G54D10*
X879958Y939420D02*
X880796Y939420D01*
X882015Y939013D01*
X882828Y937794D01*
X883260Y935737D01*
X883260Y934518D01*
X882828Y932460D01*
X882015Y931241D01*
X880796Y930809D01*
X879958Y930809D01*
X878738Y931241D01*
X877926Y932460D01*
X877520Y934518D01*
X877520Y935737D01*
X877926Y937794D01*
X878738Y939013D01*
X879958Y939420D01*
G54D10*
X877926Y937794D02*
X882828Y932460D01*
M02*
