%FSLAX34Y34*%
%MOMM*%
%LNSILK_TOP*%
G71*
G01*
%ADD10C, 0.30*%
%ADD11C, 0.20*%
%ADD12C, 0.25*%
%LPD*%
G54D10*
X29998Y70003D02*
X35002Y64999D01*
X39980Y70003D01*
G54D10*
X35002Y75006D02*
X35002Y64999D01*
G54D11*
X98654Y286614D02*
X9754Y286614D01*
X9754Y210414D01*
X16104Y210414D01*
X16104Y159614D01*
X9754Y159614D01*
X9754Y83414D01*
X98654Y83414D01*
X98654Y286614D01*
G54D11*
X98654Y680314D02*
X9754Y680314D01*
X9754Y515214D01*
X16104Y515214D01*
X16104Y464414D01*
X9754Y464414D01*
X9754Y299314D01*
X98654Y299314D01*
X98654Y680314D01*
G54D10*
X64999Y729996D02*
X59995Y724993D01*
X64999Y719989D01*
G54D11*
X19050Y763703D02*
X18644Y764515D01*
X17424Y765734D01*
X25960Y765734D01*
G54D11*
X17424Y775488D02*
X17424Y771424D01*
X21082Y771017D01*
X20676Y771424D01*
X20270Y772643D01*
X20270Y773862D01*
X20676Y775082D01*
X21488Y775895D01*
X22708Y776301D01*
X23520Y776301D01*
X24740Y775895D01*
X25553Y775082D01*
X25960Y773862D01*
X25960Y772643D01*
X25553Y771424D01*
X25146Y771017D01*
X24334Y770611D01*
G54D11*
X17424Y781990D02*
X17424Y781177D01*
X17831Y779958D01*
X19050Y779145D01*
X21082Y778739D01*
X22302Y778739D01*
X24334Y779145D01*
X25553Y779958D01*
X25960Y781177D01*
X25960Y781990D01*
X25553Y783209D01*
X24334Y784022D01*
X22302Y784429D01*
X21082Y784429D01*
X19050Y784022D01*
X17831Y783209D01*
X17424Y781990D01*
G54D11*
X19050Y784022D02*
X24334Y779145D01*
G54D10*
X19279Y807314D02*
X25629Y807314D01*
G54D10*
X70079Y807314D02*
X76429Y807314D01*
G54D11*
X44450Y763703D02*
X44044Y764515D01*
X42824Y765734D01*
X51359Y765734D01*
G54D11*
X42824Y775488D02*
X42824Y771424D01*
X46482Y771017D01*
X46076Y771424D01*
X45670Y772643D01*
X45670Y773862D01*
X46076Y775082D01*
X46889Y775895D01*
X48108Y776301D01*
X48920Y776301D01*
X50140Y775895D01*
X50953Y775082D01*
X51359Y773862D01*
X51359Y772643D01*
X50953Y771424D01*
X50546Y771017D01*
X49734Y770611D01*
G54D11*
X42824Y781990D02*
X42824Y781177D01*
X43231Y779958D01*
X44450Y779145D01*
X46482Y778739D01*
X47702Y778739D01*
X49734Y779145D01*
X50953Y779958D01*
X51359Y781177D01*
X51359Y781990D01*
X50953Y783209D01*
X49734Y784022D01*
X47702Y784429D01*
X46482Y784429D01*
X44450Y784022D01*
X43231Y783209D01*
X42824Y781990D01*
G54D11*
X44450Y784022D02*
X49734Y779145D01*
G54D10*
X44679Y807314D02*
X51029Y807314D01*
G54D12*
X123088Y78029D02*
X123088Y84380D01*
G54D12*
X117704Y99289D02*
X117704Y105639D01*
G54D12*
X127229Y172314D02*
X133579Y172314D01*
G54D11*
X111481Y188799D02*
X111074Y189612D01*
X109856Y190018D01*
X109042Y190018D01*
X107824Y189612D01*
X107010Y188393D01*
X106604Y186360D01*
X106604Y184328D01*
X107010Y182702D01*
X107824Y181890D01*
X109042Y181483D01*
X109449Y181483D01*
X110668Y181890D01*
X111481Y182702D01*
X111888Y183922D01*
X111888Y184328D01*
X111481Y185548D01*
X110668Y186360D01*
X109449Y186767D01*
X109042Y186767D01*
X107824Y186360D01*
X107010Y185548D01*
X106604Y184328D01*
G54D11*
X109856Y164618D02*
X108230Y164618D01*
X107010Y164211D01*
X106604Y163399D01*
X106604Y162586D01*
X107010Y161773D01*
X107824Y161366D01*
X109449Y160960D01*
X110668Y160554D01*
X111481Y159741D01*
X111888Y158928D01*
X111888Y157709D01*
X111481Y156897D01*
X111074Y156490D01*
X109856Y156084D01*
X108230Y156084D01*
X107010Y156490D01*
X106604Y156897D01*
X106198Y157709D01*
X106198Y158928D01*
X106604Y159741D01*
X107417Y160554D01*
X108636Y160960D01*
X110262Y161366D01*
X111074Y161773D01*
X111481Y162586D01*
X111481Y163399D01*
X111074Y164211D01*
X109856Y164618D01*
G54D12*
X127229Y223114D02*
X133579Y223114D01*
G54D11*
X106604Y238786D02*
X106604Y239192D01*
X107010Y240005D01*
X107417Y240412D01*
X108230Y240818D01*
X109856Y240818D01*
X110668Y240412D01*
X111074Y240005D01*
X111481Y239192D01*
X111481Y238379D01*
X111074Y237567D01*
X110262Y236347D01*
X106198Y232283D01*
X111888Y232283D01*
G54D11*
X107417Y429692D02*
X108230Y430099D01*
X109449Y431318D01*
X109449Y422783D01*
G54D11*
X117984Y431318D02*
X116358Y431318D01*
X115138Y430912D01*
X114732Y430099D01*
X114732Y429286D01*
X115138Y428473D01*
X115952Y428067D01*
X117577Y427660D01*
X118796Y427254D01*
X119609Y426441D01*
X120015Y425628D01*
X120015Y424409D01*
X119609Y423596D01*
X119202Y423189D01*
X117984Y422783D01*
X116358Y422783D01*
X115138Y423189D01*
X114732Y423596D01*
X114326Y424409D01*
X114326Y425628D01*
X114732Y426441D01*
X115545Y427254D01*
X116764Y427660D01*
X118390Y428067D01*
X119202Y428473D01*
X119609Y429286D01*
X119609Y430099D01*
X119202Y430912D01*
X117984Y431318D01*
G54D11*
X107417Y505893D02*
X108230Y506299D01*
X109449Y507518D01*
X109449Y498983D01*
G54D11*
X114732Y505486D02*
X114732Y505893D01*
X115138Y506705D01*
X115545Y507112D01*
X116358Y507518D01*
X117984Y507518D01*
X118796Y507112D01*
X119202Y506705D01*
X119609Y505893D01*
X119609Y505080D01*
X119202Y504267D01*
X118390Y503048D01*
X114326Y498983D01*
X120015Y498983D01*
G54D11*
X107417Y480492D02*
X108230Y480899D01*
X109449Y482118D01*
X109449Y473584D01*
G54D11*
X118390Y473584D02*
X118390Y482118D01*
X114326Y476428D01*
X120422Y476428D01*
G54D11*
X107417Y455092D02*
X108230Y455498D01*
X109449Y456717D01*
X109449Y448183D01*
G54D11*
X119609Y455498D02*
X119202Y456311D01*
X117984Y456717D01*
X117170Y456717D01*
X115952Y456311D01*
X115138Y455092D01*
X114732Y453061D01*
X114732Y451028D01*
X115138Y449403D01*
X115952Y448590D01*
X117170Y448183D01*
X117577Y448183D01*
X118796Y448590D01*
X119609Y449403D01*
X120015Y450622D01*
X120015Y451028D01*
X119609Y452248D01*
X118796Y453061D01*
X117577Y453467D01*
X117170Y453467D01*
X115952Y453061D01*
X115138Y452248D01*
X114732Y451028D01*
G54D11*
X111481Y582498D02*
X111074Y583311D01*
X109856Y583717D01*
X109042Y583717D01*
X107824Y583311D01*
X107010Y582092D01*
X106604Y580061D01*
X106604Y578028D01*
X107010Y576403D01*
X107824Y575590D01*
X109042Y575183D01*
X109449Y575183D01*
X110668Y575590D01*
X111481Y576403D01*
X111888Y577622D01*
X111888Y578028D01*
X111481Y579248D01*
X110668Y580061D01*
X109449Y580467D01*
X109042Y580467D01*
X107824Y580061D01*
X107010Y579248D01*
X106604Y578028D01*
G54D11*
X109856Y558318D02*
X108230Y558318D01*
X107010Y557912D01*
X106604Y557099D01*
X106604Y556286D01*
X107010Y555473D01*
X107824Y555067D01*
X109449Y554660D01*
X110668Y554254D01*
X111481Y553441D01*
X111888Y552628D01*
X111888Y551409D01*
X111481Y550596D01*
X111074Y550189D01*
X109856Y549783D01*
X108230Y549783D01*
X107010Y550189D01*
X106604Y550596D01*
X106198Y551409D01*
X106198Y552628D01*
X106604Y553441D01*
X107417Y554254D01*
X108636Y554660D01*
X110262Y555067D01*
X111074Y555473D01*
X111481Y556286D01*
X111481Y557099D01*
X111074Y557912D01*
X109856Y558318D01*
G54D11*
X107417Y531292D02*
X108230Y531698D01*
X109449Y532918D01*
X109449Y524384D01*
G54D11*
X117577Y532918D02*
X116764Y532918D01*
X115545Y532511D01*
X114732Y531292D01*
X114326Y529260D01*
X114326Y528041D01*
X114732Y526009D01*
X115545Y524790D01*
X116764Y524384D01*
X117577Y524384D01*
X118796Y524790D01*
X119609Y526009D01*
X120015Y528041D01*
X120015Y529260D01*
X119609Y531292D01*
X118796Y532511D01*
X117577Y532918D01*
G54D11*
X119609Y531292D02*
X114732Y526009D01*
G54D10*
X127229Y632689D02*
X127229Y635864D01*
X130404Y635864D01*
X130404Y632689D01*
X127229Y632689D01*
G54D11*
X106604Y632486D02*
X106604Y632893D01*
X107010Y633705D01*
X107417Y634112D01*
X108230Y634518D01*
X109856Y634518D01*
X110668Y634112D01*
X111074Y633705D01*
X111481Y632893D01*
X111481Y632080D01*
X111074Y631267D01*
X110262Y630048D01*
X106198Y625983D01*
X111888Y625983D01*
G54D11*
X110262Y600584D02*
X110262Y609118D01*
X106198Y603428D01*
X112294Y603428D01*
G54D10*
X98654Y721589D02*
X98654Y724764D01*
X101829Y724764D01*
X101829Y721589D01*
X98654Y721589D01*
G54D11*
X93650Y765277D02*
X93244Y766090D01*
X92024Y767309D01*
X100559Y767309D01*
G54D11*
X100152Y773405D02*
X99746Y772998D01*
X100152Y772592D01*
X100559Y772998D01*
X100152Y773405D01*
G54D11*
X92024Y777062D02*
X92024Y781533D01*
X95276Y779095D01*
X95276Y780314D01*
X95682Y781127D01*
X96088Y781533D01*
X97308Y781940D01*
X98120Y781940D01*
X99340Y781533D01*
X100152Y780720D01*
X100559Y779501D01*
X100559Y778282D01*
X100152Y777062D01*
X99746Y776656D01*
X98934Y776250D01*
G54D10*
X92304Y807314D02*
X98654Y807314D01*
G54D10*
X114529Y807314D02*
X120879Y807314D01*
G54D11*
X134900Y763296D02*
X134900Y767766D01*
X138151Y765327D01*
X138151Y766547D01*
X138557Y767360D01*
X138964Y767766D01*
X140183Y768172D01*
X140996Y768172D01*
X142215Y767766D01*
X143028Y766953D01*
X143434Y765734D01*
X143434Y764515D01*
X143028Y763296D01*
X142622Y762890D01*
X141808Y762483D01*
G54D11*
X134900Y771424D02*
X134900Y775895D01*
X138151Y773456D01*
X138151Y774675D01*
X138557Y775488D01*
X138964Y775895D01*
X140183Y776301D01*
X140996Y776301D01*
X142215Y775895D01*
X143028Y775082D01*
X143434Y773862D01*
X143434Y772643D01*
X143028Y771424D01*
X142622Y771017D01*
X141808Y770611D01*
G54D11*
X134900Y781990D02*
X134900Y781177D01*
X135306Y779958D01*
X136526Y779145D01*
X138557Y778739D01*
X139776Y778739D01*
X141808Y779145D01*
X143028Y779958D01*
X143434Y781177D01*
X143434Y781990D01*
X143028Y783209D01*
X141808Y784022D01*
X139776Y784429D01*
X138557Y784429D01*
X136526Y784022D01*
X135306Y783209D01*
X134900Y781990D01*
G54D11*
X136526Y784022D02*
X141808Y779145D01*
G54D10*
X136754Y807314D02*
X143104Y807314D01*
G54D11*
X113894Y767766D02*
X113081Y767360D01*
X112674Y766140D01*
X112674Y765327D01*
X113081Y764108D01*
X114300Y763296D01*
X116332Y762890D01*
X118364Y762890D01*
X119990Y763296D01*
X120803Y764108D01*
X121210Y765327D01*
X121210Y765734D01*
X120803Y766953D01*
X119990Y767766D01*
X118770Y768172D01*
X118364Y768172D01*
X117145Y767766D01*
X116332Y766953D01*
X115926Y765734D01*
X115926Y765327D01*
X116332Y764108D01*
X117145Y763296D01*
X118364Y762890D01*
G54D11*
X112674Y774269D02*
X112674Y772643D01*
X113081Y771424D01*
X113894Y771017D01*
X114707Y771017D01*
X115520Y771424D01*
X115926Y772237D01*
X116332Y773862D01*
X116738Y775082D01*
X117552Y775895D01*
X118364Y776301D01*
X119584Y776301D01*
X120396Y775895D01*
X120803Y775488D01*
X121210Y774269D01*
X121210Y772643D01*
X120803Y771424D01*
X120396Y771017D01*
X119584Y770611D01*
X118364Y770611D01*
X117552Y771017D01*
X116738Y771830D01*
X116332Y773050D01*
X115926Y774675D01*
X115520Y775488D01*
X114707Y775895D01*
X113894Y775895D01*
X113081Y775488D01*
X112674Y774269D01*
G54D11*
X112674Y781990D02*
X112674Y781177D01*
X113081Y779958D01*
X114300Y779145D01*
X116332Y778739D01*
X117552Y778739D01*
X119584Y779145D01*
X120803Y779958D01*
X121210Y781177D01*
X121210Y781990D01*
X120803Y783209D01*
X119584Y784022D01*
X117552Y784429D01*
X116332Y784429D01*
X114300Y784022D01*
X113081Y783209D01*
X112674Y781990D01*
G54D11*
X114300Y784022D02*
X119584Y779145D01*
G54D12*
X203429Y146914D02*
X209779Y146914D01*
G54D12*
X178029Y146914D02*
X184379Y146914D01*
G54D11*
X201397Y176835D02*
X201397Y176022D01*
X201804Y174778D01*
X203048Y173940D01*
X205106Y173533D01*
X206350Y173533D01*
X208408Y173940D01*
X209652Y174778D01*
X210058Y176022D01*
X210058Y176835D01*
X209652Y178079D01*
X208408Y178892D01*
X206350Y179299D01*
X205106Y179299D01*
X203048Y178892D01*
X201804Y178079D01*
X201397Y176835D01*
G54D11*
X203048Y178892D02*
X208408Y173940D01*
G54D11*
X209652Y183007D02*
X209220Y182601D01*
X209652Y182194D01*
X210058Y182601D01*
X209652Y183007D01*
G54D11*
X203048Y187148D02*
X202642Y187961D01*
X201397Y189205D01*
X210058Y189205D01*
G54D11*
X204292Y194565D02*
X208408Y194565D01*
X209652Y194971D01*
X210058Y195809D01*
X210058Y197028D01*
X209652Y197866D01*
X208408Y199086D01*
G54D11*
X204292Y199086D02*
X210058Y199086D01*
G54D11*
X175997Y176835D02*
X175997Y176022D01*
X176403Y174778D01*
X177648Y173940D01*
X179706Y173533D01*
X180950Y173533D01*
X183008Y173940D01*
X184252Y174778D01*
X184658Y176022D01*
X184658Y176835D01*
X184252Y178079D01*
X183008Y178892D01*
X180950Y179299D01*
X179706Y179299D01*
X177648Y178892D01*
X176403Y178079D01*
X175997Y176835D01*
G54D11*
X177648Y178892D02*
X183008Y173940D01*
G54D11*
X184252Y183007D02*
X183820Y182601D01*
X184252Y182194D01*
X184658Y182601D01*
X184252Y183007D01*
G54D11*
X177648Y187148D02*
X177242Y187961D01*
X175997Y189205D01*
X184658Y189205D01*
G54D11*
X178892Y194565D02*
X183008Y194565D01*
X184252Y194971D01*
X184658Y195809D01*
X184658Y197028D01*
X184252Y197866D01*
X183008Y199086D01*
G54D11*
X178892Y199086D02*
X184658Y199086D01*
G54D11*
X176174Y533045D02*
X175362Y533045D01*
X174142Y532638D01*
X173304Y531419D01*
X172898Y529362D01*
X172898Y528117D01*
X173304Y526060D01*
X174142Y524840D01*
X175362Y524434D01*
X176174Y524434D01*
X177420Y524840D01*
X178232Y526060D01*
X178638Y528117D01*
X178638Y529362D01*
X178232Y531419D01*
X177420Y532638D01*
X176174Y533045D01*
G54D11*
X178232Y531419D02*
X173304Y526060D01*
G54D11*
X182347Y524840D02*
X181940Y525247D01*
X181534Y524840D01*
X181940Y524434D01*
X182347Y524840D01*
G54D11*
X188520Y533045D02*
X187681Y533045D01*
X186462Y532638D01*
X185624Y531419D01*
X185217Y529362D01*
X185217Y528117D01*
X185624Y526060D01*
X186462Y524840D01*
X187681Y524434D01*
X188520Y524434D01*
X189738Y524840D01*
X190577Y526060D01*
X190983Y528117D01*
X190983Y529362D01*
X190577Y531419D01*
X189738Y532638D01*
X188520Y533045D01*
G54D11*
X190577Y531419D02*
X185624Y526060D01*
G54D11*
X194666Y531419D02*
X195504Y531825D01*
X196723Y533045D01*
X196723Y524434D01*
G54D11*
X202083Y530174D02*
X202083Y526060D01*
X202490Y524840D01*
X203302Y524434D01*
X204546Y524434D01*
X205360Y524840D01*
X206578Y526060D01*
G54D11*
X206578Y530174D02*
X206578Y524434D01*
G54D11*
X212954Y702539D02*
X212954Y696189D01*
G54D11*
X212954Y683489D02*
X212954Y677139D01*
G54D11*
X184150Y768452D02*
X183744Y769265D01*
X182525Y770484D01*
X191060Y770484D01*
G54D11*
X190653Y776580D02*
X190246Y776174D01*
X190653Y775768D01*
X191060Y776174D01*
X190653Y776580D01*
G54D11*
X182525Y780237D02*
X182525Y784708D01*
X185776Y782269D01*
X185776Y783489D01*
X186182Y784302D01*
X186588Y784708D01*
X187808Y785114D01*
X188621Y785114D01*
X189840Y784708D01*
X190653Y783895D01*
X191060Y782676D01*
X191060Y781457D01*
X190653Y780237D01*
X190246Y779831D01*
X189434Y779424D01*
G54D10*
X184379Y807314D02*
X190729Y807314D01*
G54D10*
X162154Y807314D02*
X168504Y807314D01*
G54D11*
X207544Y766166D02*
X206731Y765760D01*
X206324Y764541D01*
X206324Y763728D01*
X206731Y762509D01*
X207950Y761696D01*
X209982Y761289D01*
X212014Y761289D01*
X213640Y761696D01*
X214452Y762509D01*
X214859Y763728D01*
X214859Y764134D01*
X214452Y765354D01*
X213640Y766166D01*
X212420Y766572D01*
X212014Y766572D01*
X210795Y766166D01*
X209982Y765354D01*
X209576Y764134D01*
X209576Y763728D01*
X209982Y762509D01*
X210795Y761696D01*
X212014Y761289D01*
G54D11*
X206324Y772668D02*
X206324Y771043D01*
X206731Y769823D01*
X207544Y769417D01*
X208356Y769417D01*
X209170Y769823D01*
X209576Y770636D01*
X209982Y772262D01*
X210388Y773481D01*
X211202Y774294D01*
X212014Y774701D01*
X213234Y774701D01*
X214046Y774294D01*
X214452Y773888D01*
X214859Y772668D01*
X214859Y771043D01*
X214452Y769823D01*
X214046Y769417D01*
X213234Y769010D01*
X212014Y769010D01*
X211202Y769417D01*
X210388Y770230D01*
X209982Y771449D01*
X209576Y773075D01*
X209170Y773888D01*
X208356Y774294D01*
X207544Y774294D01*
X206731Y773888D01*
X206324Y772668D01*
G54D11*
X206324Y780390D02*
X206324Y779578D01*
X206731Y778358D01*
X207950Y777546D01*
X209982Y777139D01*
X211202Y777139D01*
X213234Y777546D01*
X214452Y778358D01*
X214859Y779578D01*
X214859Y780390D01*
X214452Y781609D01*
X213234Y782422D01*
X211202Y782828D01*
X209982Y782828D01*
X207950Y782422D01*
X206731Y781609D01*
X206324Y780390D01*
G54D11*
X207950Y782422D02*
X213234Y777546D01*
G54D10*
X206604Y807314D02*
X212954Y807314D01*
G54D11*
X428854Y89764D02*
X428854Y127864D01*
X289154Y127864D01*
X289154Y89764D01*
G54D12*
X254229Y146914D02*
X260579Y146914D01*
G54D12*
X279629Y146914D02*
X285979Y146914D01*
G54D11*
X260858Y175184D02*
X252172Y179324D01*
X252172Y173533D01*
G54D11*
X252172Y186767D02*
X252172Y182627D01*
X255906Y182220D01*
X255474Y182627D01*
X255067Y183871D01*
X255067Y185116D01*
X255474Y186335D01*
X256312Y187173D01*
X257556Y187580D01*
X258369Y187580D01*
X259614Y187173D01*
X260426Y186335D01*
X260858Y185116D01*
X260858Y183871D01*
X260426Y182627D01*
X260020Y182220D01*
X259208Y181788D01*
G54D11*
X252172Y190475D02*
X260858Y190475D01*
G54D11*
X252172Y196266D02*
X257962Y190475D01*
G54D11*
X255906Y192532D02*
X260858Y196266D01*
G54D11*
X279248Y174778D02*
X278842Y175590D01*
X277597Y176835D01*
X286258Y176835D01*
G54D11*
X285852Y183007D02*
X285420Y182601D01*
X285852Y182194D01*
X286258Y182601D01*
X285852Y183007D01*
G54D11*
X277597Y189612D02*
X277597Y187961D01*
X278004Y186715D01*
X278842Y186309D01*
X279654Y186309D01*
X280493Y186715D01*
X280899Y187554D01*
X281306Y189205D01*
X281712Y190425D01*
X282550Y191263D01*
X283363Y191669D01*
X284608Y191669D01*
X285420Y191263D01*
X285852Y190856D01*
X286258Y189612D01*
X286258Y187961D01*
X285852Y186715D01*
X285420Y186309D01*
X284608Y185903D01*
X283363Y185903D01*
X282550Y186309D01*
X281712Y187148D01*
X281306Y188367D01*
X280899Y190018D01*
X280493Y190856D01*
X279654Y191263D01*
X278842Y191263D01*
X278004Y190856D01*
X277597Y189612D01*
G54D11*
X277597Y194565D02*
X286258Y194565D01*
G54D11*
X277597Y200330D02*
X283363Y194565D01*
G54D11*
X281306Y196622D02*
X286258Y200330D01*
G54D11*
X239980Y694995D02*
X239980Y699999D01*
X244984Y699999D01*
X244984Y694995D01*
X239980Y694995D01*
G54D10*
X267488Y712495D02*
X259995Y712495D01*
G54D11*
X280162Y714807D02*
X279730Y715671D01*
X278892Y716509D01*
X278029Y716941D01*
X276327Y716941D01*
X275488Y716509D01*
X274626Y715671D01*
X274194Y714807D01*
X273762Y713537D01*
X273762Y711403D01*
X274194Y710108D01*
X274626Y709270D01*
X275488Y708406D01*
X276327Y707974D01*
X278029Y707974D01*
X278892Y708406D01*
X279730Y709270D01*
X280162Y710108D01*
G54D11*
X255982Y766065D02*
X255575Y766065D01*
X254762Y766471D01*
X254356Y766877D01*
X253950Y767690D01*
X253950Y769316D01*
X254356Y770128D01*
X254762Y770534D01*
X255575Y770941D01*
X256388Y770941D01*
X257200Y770534D01*
X258420Y769722D01*
X262484Y765658D01*
X262484Y771347D01*
G54D11*
X262078Y775005D02*
X261672Y774599D01*
X262078Y774192D01*
X262484Y774599D01*
X262078Y775005D01*
G54D11*
X262484Y779476D02*
X253950Y783539D01*
X253950Y777850D01*
G54D10*
X254229Y807314D02*
X260579Y807314D01*
G54D10*
X298679Y807314D02*
X305029Y807314D01*
G54D11*
X276226Y766877D02*
X275819Y767690D01*
X274600Y768910D01*
X283134Y768910D01*
G54D11*
X282728Y775005D02*
X282321Y774599D01*
X282728Y774192D01*
X283134Y774599D01*
X282728Y775005D01*
G54D11*
X274600Y778663D02*
X274600Y783133D01*
X277851Y780695D01*
X277851Y781914D01*
X278258Y782727D01*
X278664Y783133D01*
X279883Y783539D01*
X280696Y783539D01*
X281915Y783133D01*
X282728Y782321D01*
X283134Y781102D01*
X283134Y779882D01*
X282728Y778663D01*
X282321Y778257D01*
X281508Y777850D01*
G54D10*
X276454Y807314D02*
X282804Y807314D01*
G54D11*
X328194Y238786D02*
X327788Y239599D01*
X326974Y240412D01*
X326162Y240818D01*
X324536Y240818D01*
X323723Y240412D01*
X322911Y239599D01*
X322504Y238786D01*
X322098Y237567D01*
X322098Y235534D01*
X322504Y234315D01*
X322911Y233502D01*
X323723Y232689D01*
X324536Y232283D01*
X326162Y232283D01*
X326974Y232689D01*
X327788Y233502D01*
X328194Y234315D01*
G54D11*
X331038Y240818D02*
X331038Y232283D01*
G54D11*
X336728Y240818D02*
X336728Y232283D01*
G54D11*
X331038Y236754D02*
X336728Y236754D01*
G54D11*
X340386Y240818D02*
X344856Y240818D01*
X342418Y237567D01*
X343637Y237567D01*
X344450Y237160D01*
X344856Y236754D01*
X345262Y235534D01*
X345262Y234722D01*
X344856Y233502D01*
X344043Y232689D01*
X342824Y232283D01*
X341605Y232283D01*
X340386Y232689D01*
X339980Y233096D01*
X339573Y233909D01*
G54D11*
X351765Y232283D02*
X351765Y240818D01*
X347701Y235128D01*
X353797Y235128D01*
G54D11*
X359080Y240818D02*
X358268Y240818D01*
X357048Y240412D01*
X356236Y239192D01*
X355829Y237160D01*
X355829Y235941D01*
X356236Y233909D01*
X357048Y232689D01*
X358268Y232283D01*
X359080Y232283D01*
X360300Y232689D01*
X361112Y233909D01*
X361518Y235941D01*
X361518Y237160D01*
X361112Y239192D01*
X360300Y240412D01*
X359080Y240818D01*
G54D11*
X361112Y239192D02*
X356236Y233909D01*
G54D11*
X370053Y238786D02*
X369647Y239599D01*
X368834Y240412D01*
X368021Y240818D01*
X366396Y240818D01*
X365582Y240412D01*
X364770Y239599D01*
X364363Y238786D01*
X363957Y237567D01*
X363957Y235534D01*
X364363Y234315D01*
X364770Y233502D01*
X365582Y232689D01*
X366396Y232283D01*
X368021Y232283D01*
X368834Y232689D01*
X369647Y233502D01*
X370053Y234315D01*
G54D11*
X320624Y761696D02*
X320624Y766166D01*
X323876Y763728D01*
X323876Y764947D01*
X324282Y765760D01*
X324688Y766166D01*
X325908Y766572D01*
X326720Y766572D01*
X327940Y766166D01*
X328752Y765354D01*
X329159Y764134D01*
X329159Y762915D01*
X328752Y761696D01*
X328346Y761289D01*
X327534Y760883D01*
G54D11*
X320624Y769823D02*
X320624Y774294D01*
X323876Y771855D01*
X323876Y773075D01*
X324282Y773888D01*
X324688Y774294D01*
X325908Y774701D01*
X326720Y774701D01*
X327940Y774294D01*
X328752Y773481D01*
X329159Y772262D01*
X329159Y771043D01*
X328752Y769823D01*
X328346Y769417D01*
X327534Y769010D01*
G54D11*
X320624Y780390D02*
X320624Y779578D01*
X321031Y778358D01*
X322250Y777546D01*
X324282Y777139D01*
X325501Y777139D01*
X327534Y777546D01*
X328752Y778358D01*
X329159Y779578D01*
X329159Y780390D01*
X328752Y781609D01*
X327534Y782422D01*
X325501Y782828D01*
X324282Y782828D01*
X322250Y782422D01*
X321031Y781609D01*
X320624Y780390D01*
G54D11*
X322250Y782422D02*
X327534Y777546D01*
G54D10*
X320904Y807314D02*
X327254Y807314D01*
G54D12*
X334188Y849071D02*
X339040Y836346D01*
X343891Y849071D01*
G54D12*
X355397Y846049D02*
X354788Y847243D01*
X353594Y848462D01*
X352374Y849071D01*
X349962Y849071D01*
X348742Y848462D01*
X347523Y847243D01*
X346914Y846049D01*
X346304Y844220D01*
X346304Y841198D01*
X346914Y839368D01*
X347523Y838175D01*
X348742Y836956D01*
X349962Y836346D01*
X352374Y836346D01*
X353594Y836956D01*
X354788Y838175D01*
X355397Y839368D01*
X355397Y841198D01*
X352374Y841198D01*
G54D12*
X367513Y836346D02*
X362687Y849071D01*
X357836Y836346D01*
G54D12*
X359639Y840588D02*
X365710Y840588D01*
G54D10*
X349987Y964997D02*
X354990Y959994D01*
X359994Y964997D01*
G54D12*
X390754Y251689D02*
X397104Y251689D01*
G54D12*
X416154Y251689D02*
X422504Y251689D01*
G54D12*
X441554Y251689D02*
X447904Y251689D01*
G54D11*
X349479Y350114D02*
X400279Y350114D01*
X400279Y299314D01*
X349479Y299314D01*
G54D10*
X400279Y839064D02*
X406629Y839064D01*
G54D10*
X447904Y839064D02*
X454254Y839064D01*
G54D10*
X422504Y839064D02*
X428854Y839064D01*
G54D12*
X514579Y178664D02*
X520929Y178664D01*
G54D12*
X489179Y178664D02*
X495529Y178664D01*
G54D12*
X463779Y178664D02*
X470129Y178664D01*
G54D10*
X489179Y338989D02*
X489179Y334239D01*
G54D11*
X493674Y353569D02*
X493243Y354407D01*
X492380Y355270D01*
X491541Y355702D01*
X489840Y355702D01*
X488976Y355270D01*
X488112Y354407D01*
X487706Y353569D01*
X487274Y352273D01*
X487274Y350140D01*
X487706Y348869D01*
X488112Y348006D01*
X488976Y347168D01*
X489840Y346736D01*
X491541Y346736D01*
X492380Y347168D01*
X493243Y348006D01*
X493674Y348869D01*
G54D11*
X529997Y347498D02*
X529997Y352502D01*
X535000Y352502D01*
X535000Y347498D01*
X529997Y347498D01*
G54D11*
X529997Y550012D02*
X529997Y554990D01*
X535000Y554990D01*
X535000Y550012D01*
X529997Y550012D01*
G54D10*
X498450Y702869D02*
X498450Y709219D01*
G54D11*
X498018Y693471D02*
X498856Y693903D01*
X500101Y695148D01*
X500101Y686385D01*
G54D11*
X505511Y695148D02*
X505511Y686385D01*
G54D11*
X511353Y695148D02*
X505511Y689306D01*
G54D11*
X507594Y691388D02*
X511353Y686385D01*
G54D11*
X471856Y809270D02*
X470230Y809270D01*
X468986Y808864D01*
X468580Y808025D01*
X468580Y807212D01*
X468986Y806400D01*
X469824Y805994D01*
X471450Y805561D01*
X472694Y805155D01*
X473507Y804342D01*
X473914Y803530D01*
X473914Y802284D01*
X473507Y801472D01*
X473100Y801066D01*
X471856Y800660D01*
X470230Y800660D01*
X468986Y801066D01*
X468580Y801472D01*
X468173Y802284D01*
X468173Y803530D01*
X468580Y804342D01*
X469392Y805155D01*
X470637Y805561D01*
X472262Y805994D01*
X473100Y806400D01*
X473507Y807212D01*
X473507Y808025D01*
X473100Y808864D01*
X471856Y809270D01*
G54D11*
X481712Y806400D02*
X486232Y800660D01*
G54D11*
X486232Y806400D02*
X481712Y800660D01*
G54D11*
X494843Y809270D02*
X499339Y809270D01*
X496900Y805994D01*
X498120Y805994D01*
X498932Y805561D01*
X499339Y805155D01*
X499770Y803936D01*
X499770Y803097D01*
X499339Y801878D01*
X498526Y801066D01*
X497307Y800660D01*
X496062Y800660D01*
X494843Y801066D01*
X494436Y801472D01*
X494005Y802284D01*
G54D11*
X503048Y809270D02*
X507544Y809270D01*
X505104Y805994D01*
X506324Y805994D01*
X507137Y805561D01*
X507544Y805155D01*
X507975Y803936D01*
X507975Y803097D01*
X507544Y801878D01*
X506730Y801066D01*
X505511Y800660D01*
X504266Y800660D01*
X503048Y801066D01*
X502641Y801472D01*
X502210Y802284D01*
G54D10*
X495529Y839064D02*
X501879Y839064D01*
G54D10*
X470129Y839064D02*
X476479Y839064D01*
G54D10*
X517754Y839064D02*
X524104Y839064D01*
G54D10*
X601878Y24663D02*
X576478Y24663D01*
G54D10*
X601878Y113564D02*
X601878Y72288D01*
X611404Y62764D01*
X611404Y46889D01*
G54D10*
X589179Y129439D02*
X560604Y129439D01*
G54D12*
X590779Y178664D02*
X597129Y178664D01*
G54D12*
X565379Y178664D02*
X571729Y178664D01*
G54D12*
X539979Y178664D02*
X546329Y178664D01*
G54D12*
X543154Y232639D02*
X543154Y226289D01*
G54D12*
X597129Y258039D02*
X597129Y251689D01*
G54D12*
X597129Y235814D02*
X597129Y229464D01*
G54D10*
X593954Y321539D02*
X600304Y321539D01*
G54D10*
X562204Y527914D02*
X557429Y527914D01*
G54D10*
X611404Y527914D02*
X605054Y527914D01*
G54D10*
X546329Y527914D02*
X541554Y527914D01*
G54D11*
X574624Y528194D02*
X574193Y529032D01*
X573355Y529895D01*
X572491Y530327D01*
X570789Y530327D01*
X569951Y529895D01*
X569088Y529032D01*
X568656Y528194D01*
X568224Y526898D01*
X568224Y524765D01*
X568656Y523494D01*
X569088Y522631D01*
X569951Y521793D01*
X570789Y521361D01*
X572491Y521361D01*
X573355Y521793D01*
X574193Y522631D01*
X574624Y523494D01*
G54D10*
X543434Y702869D02*
X543434Y709219D01*
G54D10*
X587604Y699364D02*
X581254Y699364D01*
G54D11*
X598450Y702819D02*
X598018Y703657D01*
X597154Y704520D01*
X596316Y704952D01*
X594614Y704952D01*
X593751Y704520D01*
X592887Y703657D01*
X592481Y702819D01*
X592049Y701523D01*
X592049Y699390D01*
X592481Y698119D01*
X592887Y697256D01*
X593751Y696418D01*
X594614Y695986D01*
X596316Y695986D01*
X597154Y696418D01*
X598018Y697256D01*
X598450Y698119D01*
G54D10*
X565379Y839064D02*
X571729Y839064D01*
G54D10*
X543154Y839064D02*
X549504Y839064D01*
G54D10*
X663499Y296062D02*
X663499Y283363D01*
X638100Y283363D01*
X638100Y296062D01*
X663499Y296062D01*
G54D11*
X640563Y312268D02*
X641376Y312700D01*
X642620Y313919D01*
X642620Y305283D01*
G54D11*
X650850Y313919D02*
X650037Y313919D01*
X648792Y313513D01*
X647980Y312268D01*
X647548Y310211D01*
X647548Y308991D01*
X647980Y306934D01*
X648792Y305690D01*
X650037Y305283D01*
X650850Y305283D01*
X652094Y305690D01*
X652908Y306934D01*
X653314Y308991D01*
X653314Y310211D01*
X652908Y312268D01*
X652094Y313513D01*
X650850Y313919D01*
G54D11*
X652908Y312268D02*
X647980Y306934D01*
G54D11*
X656209Y311049D02*
X656209Y306934D01*
X656616Y305690D01*
X657428Y305283D01*
X658673Y305283D01*
X659486Y305690D01*
X660730Y306934D01*
G54D11*
X660730Y311049D02*
X660730Y305283D01*
G54D11*
X669367Y313919D02*
X664032Y313919D01*
X664032Y305283D01*
G54D11*
X664032Y309804D02*
X667310Y309804D01*
G54D10*
X630454Y327889D02*
X630454Y323114D01*
G54D11*
X630200Y315468D02*
X629768Y316306D01*
X628904Y317171D01*
X628066Y317602D01*
X626364Y317602D01*
X625501Y317171D01*
X624637Y316306D01*
X624231Y315468D01*
X623799Y314173D01*
X623799Y312039D01*
X624231Y310769D01*
X624637Y309906D01*
X625501Y309067D01*
X626364Y308635D01*
X628066Y308635D01*
X628904Y309067D01*
X629768Y309906D01*
X630200Y310769D01*
G54D10*
X625704Y492989D02*
X625704Y486639D01*
G54D11*
X634950Y505968D02*
X634518Y506806D01*
X633680Y507671D01*
X632816Y508102D01*
X631114Y508102D01*
X630276Y507671D01*
X629412Y506806D01*
X628980Y505968D01*
X628548Y504673D01*
X628548Y502539D01*
X628980Y501269D01*
X629412Y500406D01*
X630276Y499567D01*
X631114Y499135D01*
X632816Y499135D01*
X633680Y499567D01*
X634518Y500406D01*
X634950Y501269D01*
G54D10*
X651104Y527914D02*
X644754Y527914D01*
G54D11*
X663524Y529768D02*
X663093Y530631D01*
X662254Y531470D01*
X661391Y531902D01*
X659689Y531902D01*
X658851Y531470D01*
X657987Y530631D01*
X657556Y529768D01*
X657124Y528498D01*
X657124Y526364D01*
X657556Y525095D01*
X657987Y524231D01*
X658851Y523367D01*
X659689Y522961D01*
X661391Y522961D01*
X662254Y523367D01*
X663093Y524231D01*
X663524Y525095D01*
G54D11*
X623850Y529768D02*
X623418Y530631D01*
X622554Y531470D01*
X621716Y531902D01*
X620014Y531902D01*
X619151Y531470D01*
X618287Y530631D01*
X617880Y529768D01*
X617449Y528498D01*
X617449Y526364D01*
X617880Y525095D01*
X618287Y524231D01*
X619151Y523367D01*
X620014Y522961D01*
X621716Y522961D01*
X622554Y523367D01*
X623418Y524231D01*
X623850Y525095D01*
G54D10*
X635229Y699364D02*
X628879Y699364D01*
G54D11*
X647650Y702819D02*
X647218Y703657D01*
X646380Y704520D01*
X645516Y704952D01*
X643814Y704952D01*
X642976Y704520D01*
X642112Y703657D01*
X641680Y702819D01*
X641249Y701523D01*
X641249Y699390D01*
X641680Y698119D01*
X642112Y697256D01*
X642976Y696418D01*
X643814Y695986D01*
X645516Y695986D01*
X646380Y696418D01*
X647218Y697256D01*
X647650Y698119D01*
G54D11*
X673050Y709168D02*
X672618Y710006D01*
X671780Y710870D01*
X670916Y711302D01*
X669214Y711302D01*
X668376Y710870D01*
X667512Y710006D01*
X667080Y709168D01*
X666649Y707873D01*
X666649Y705739D01*
X667080Y704470D01*
X667512Y703605D01*
X668376Y702767D01*
X669214Y702336D01*
X670916Y702336D01*
X671780Y702767D01*
X672618Y703605D01*
X673050Y704470D01*
G54D10*
X670154Y697764D02*
X670154Y691413D01*
G54D10*
X625222Y893039D02*
X625222Y873989D01*
G54D11*
X622529Y108814D02*
X698729Y108814D01*
X698729Y102464D01*
X749529Y102464D01*
X749529Y108814D01*
X825729Y108814D01*
X825729Y19914D01*
X622529Y19914D01*
X622529Y108814D01*
G54D10*
X755879Y527914D02*
X749529Y527914D01*
G54D11*
X702438Y696799D02*
X701624Y697612D01*
X700406Y698018D01*
X698780Y698018D01*
X697560Y697612D01*
X696748Y696799D01*
X696748Y695986D01*
X697154Y695173D01*
X697560Y694767D01*
X698374Y694360D01*
X700812Y693548D01*
X701624Y693141D01*
X702031Y692735D01*
X702438Y691922D01*
X702438Y690702D01*
X701624Y689890D01*
X700406Y689483D01*
X698780Y689483D01*
X697560Y689890D01*
X696748Y690702D01*
G54D11*
X708127Y698018D02*
X705282Y698018D01*
X705282Y689483D01*
X708127Y689483D01*
X709346Y689890D01*
X710159Y690702D01*
X710566Y691515D01*
X710972Y692735D01*
X710972Y694767D01*
X710566Y695986D01*
X710159Y696799D01*
X709346Y697612D01*
X708127Y698018D01*
G54D11*
X713816Y693954D02*
X717474Y693954D01*
X718694Y694360D01*
X719100Y694767D01*
X719506Y695580D01*
X719506Y696393D01*
X719100Y697205D01*
X718694Y697612D01*
X717474Y698018D01*
X713816Y698018D01*
X713816Y689483D01*
G54D11*
X716662Y693954D02*
X719506Y689483D01*
G54D11*
X727634Y689483D02*
X724383Y698018D01*
X721132Y689483D01*
G54D11*
X722351Y692328D02*
X726415Y692328D01*
G54D11*
X736168Y689483D02*
X736168Y698018D01*
X732917Y689483D01*
X729666Y698018D01*
X729666Y689483D01*
G54D10*
X828904Y159614D02*
X828904Y134214D01*
X816204Y134214D01*
X816204Y159614D01*
X828904Y159614D01*
G54D10*
X816204Y153264D02*
X828904Y153264D01*
G54D10*
X803504Y318364D02*
X778104Y318364D01*
X778104Y331064D01*
X803504Y331064D01*
X803504Y318364D01*
G54D10*
X797154Y331064D02*
X797154Y318364D01*
G54D11*
X780568Y347270D02*
X781381Y347701D01*
X782626Y348921D01*
X782626Y340285D01*
G54D11*
X790854Y348921D02*
X790016Y348921D01*
X788798Y348514D01*
X787960Y347270D01*
X787553Y345212D01*
X787553Y343993D01*
X787960Y341936D01*
X788798Y340691D01*
X790016Y340285D01*
X790854Y340285D01*
X792074Y340691D01*
X792912Y341936D01*
X793318Y343993D01*
X793318Y345212D01*
X792912Y347270D01*
X792074Y348514D01*
X790854Y348921D01*
G54D11*
X792912Y347270D02*
X787960Y341936D01*
G54D11*
X796189Y346050D02*
X796189Y341936D01*
X796620Y340691D01*
X797434Y340285D01*
X798678Y340285D01*
X799490Y340691D01*
X800736Y341936D01*
G54D11*
X800736Y346050D02*
X800736Y340285D01*
G54D11*
X809372Y348921D02*
X804012Y348921D01*
X804012Y340285D01*
G54D11*
X804012Y344806D02*
X807314Y344806D01*
G54D12*
X781279Y683489D02*
X787629Y683489D01*
G54D12*
X806679Y683489D02*
X813029Y683489D01*
G54D12*
X832079Y683489D02*
X838429Y683489D01*
G54D10*
X771272Y893039D02*
X771272Y873989D01*
G54D10*
X825246Y893039D02*
X825246Y873989D01*
G54D10*
X911454Y102464D02*
X886054Y102464D01*
X886054Y115164D01*
X911454Y115164D01*
X911454Y102464D01*
G54D10*
X905104Y115164D02*
X905104Y102464D01*
G54D12*
X886054Y385039D02*
X886054Y391389D01*
G54D12*
X886054Y410439D02*
X886054Y416789D01*
G54D11*
X878612Y368808D02*
X878612Y377342D01*
X874548Y371653D01*
X880644Y371653D01*
G54D11*
X884302Y368808D02*
X888366Y377342D01*
X882676Y377342D01*
G54D11*
X894055Y377342D02*
X893242Y377342D01*
X892023Y376936D01*
X891210Y375717D01*
X890804Y373686D01*
X890804Y372466D01*
X891210Y370434D01*
X892023Y369215D01*
X893242Y368808D01*
X894055Y368808D01*
X895274Y369215D01*
X896087Y370434D01*
X896494Y372466D01*
X896494Y373686D01*
X896087Y375717D01*
X895274Y376936D01*
X894055Y377342D01*
G54D11*
X896087Y375717D02*
X891210Y370434D01*
G54D12*
X886054Y461239D02*
X886054Y467589D01*
G54D11*
X888544Y483921D02*
X889382Y484353D01*
X890626Y485597D01*
X890626Y476834D01*
G54D11*
X896036Y485597D02*
X896036Y476834D01*
G54D11*
X901852Y485597D02*
X896036Y479756D01*
G54D11*
X898119Y481838D02*
X901852Y476834D01*
G54D12*
X908279Y586639D02*
X901929Y586639D01*
G54D12*
X857479Y683489D02*
X863829Y683489D01*
G54D12*
X882879Y683489D02*
X889229Y683489D01*
G54D12*
X908279Y683489D02*
X914629Y683489D01*
G54D11*
X956158Y46508D02*
X952044Y46508D01*
X951637Y42800D01*
X952044Y43231D01*
X953288Y43638D01*
X954507Y43638D01*
X955752Y43231D01*
X956564Y42393D01*
X956971Y41174D01*
X956971Y40336D01*
X956564Y39116D01*
X955752Y38278D01*
X954507Y37872D01*
X953288Y37872D01*
X952044Y38278D01*
X951637Y38710D01*
X951230Y39523D01*
G54D11*
X958622Y46508D02*
X961898Y37872D01*
X965200Y46508D01*
G54D11*
X972592Y44451D02*
X972592Y44857D01*
X972998Y45695D01*
X973404Y46101D01*
X974242Y46508D01*
X975868Y46508D01*
X976706Y46101D01*
X977113Y45695D01*
X977520Y44857D01*
X977520Y44044D01*
X977113Y43231D01*
X976275Y41987D01*
X972186Y37872D01*
X977926Y37872D01*
G54D11*
X986156Y37872D02*
X982854Y46508D01*
X979576Y37872D01*
G54D11*
X980796Y40742D02*
X984910Y40742D01*
G54D10*
X964997Y119990D02*
X970001Y115011D01*
X974980Y119990D01*
G54D10*
X949554Y318364D02*
X924154Y318364D01*
X924154Y331064D01*
X949554Y331064D01*
X949554Y318364D01*
G54D10*
X943204Y331064D02*
X943204Y318364D01*
G54D11*
X932917Y410643D02*
X933730Y411049D01*
X934949Y412268D01*
X934949Y403733D01*
G54D11*
X941045Y404140D02*
X940638Y404546D01*
X940232Y404140D01*
X940638Y403733D01*
X941045Y404140D01*
G54D11*
X944296Y410236D02*
X944296Y410643D01*
X944702Y411455D01*
X945109Y411862D01*
X945922Y412268D01*
X947548Y412268D01*
X948360Y411862D01*
X948766Y411455D01*
X949173Y410643D01*
X949173Y409830D01*
X948766Y409017D01*
X947954Y407798D01*
X943890Y403733D01*
X949580Y403733D01*
G54D11*
X951205Y412268D02*
X954456Y403733D01*
X957708Y412268D01*
G54D11*
X932510Y488467D02*
X936981Y488467D01*
X934542Y485217D01*
X935762Y485217D01*
X936574Y484811D01*
X936981Y484404D01*
X937388Y483185D01*
X937388Y482372D01*
X936981Y481153D01*
X936168Y480340D01*
X934949Y479933D01*
X933730Y479933D01*
X932510Y480340D01*
X932104Y480746D01*
X931698Y481559D01*
G54D11*
X941045Y480340D02*
X940638Y480746D01*
X940232Y480340D01*
X940638Y479933D01*
X941045Y480340D01*
G54D11*
X944702Y488467D02*
X949173Y488467D01*
X946734Y485217D01*
X947954Y485217D01*
X948766Y484811D01*
X949173Y484404D01*
X949580Y483185D01*
X949580Y482372D01*
X949173Y481153D01*
X948360Y480340D01*
X947141Y479933D01*
X945922Y479933D01*
X944702Y480340D01*
X944296Y480746D01*
X943890Y481559D01*
G54D11*
X951205Y488467D02*
X954456Y479933D01*
X957708Y488467D01*
G54D10*
X954990Y629997D02*
X959994Y624993D01*
X964997Y629997D01*
G54D10*
X959994Y645008D02*
X959994Y624993D01*
G54D12*
X933679Y683489D02*
X940029Y683489D01*
G54D12*
X959079Y683489D02*
X965429Y683489D01*
G54D10*
X971296Y893039D02*
X971296Y873989D01*
G54D10*
X15622Y988289D02*
X15622Y835889D01*
X326772Y835889D01*
X326772Y988289D01*
G54D11*
X133858Y124384D02*
X125172Y128524D01*
X125172Y122733D01*
G54D11*
X125172Y135967D02*
X125172Y131826D01*
X128906Y131420D01*
X128474Y131826D01*
X128067Y133071D01*
X128067Y134316D01*
X128474Y135534D01*
X129312Y136373D01*
X130556Y136780D01*
X131369Y136780D01*
X132614Y136373D01*
X133426Y135534D01*
X133858Y134316D01*
X133858Y133071D01*
X133426Y131826D01*
X133020Y131420D01*
X132208Y130988D01*
G54D11*
X125172Y139675D02*
X133858Y139675D01*
G54D11*
X125172Y145466D02*
X130962Y139675D01*
G54D11*
X128906Y141733D02*
X133858Y145466D01*
G54D11*
X110262Y206884D02*
X110262Y215418D01*
X106198Y209729D01*
X112294Y209729D01*
G54D10*
X130404Y578714D02*
X130404Y604114D01*
G54D10*
X184379Y604114D02*
X184379Y578714D01*
G54D11*
X479984Y689991D02*
X249988Y689991D01*
X249988Y459994D01*
X479984Y459994D01*
X479984Y689991D01*
G54D10*
X354990Y980009D02*
X354990Y959994D01*
G54D11*
X412294Y283897D02*
X413132Y284303D01*
X414376Y285573D01*
X414376Y276810D01*
G54D11*
X419786Y285573D02*
X419786Y276810D01*
G54D11*
X425602Y285573D02*
X419786Y279730D01*
G54D11*
X421869Y281813D02*
X425602Y276810D01*
G54D11*
X482118Y210795D02*
X482956Y211201D01*
X484175Y212446D01*
X484175Y203759D01*
G54D11*
X492456Y212446D02*
X491618Y212446D01*
X490373Y212039D01*
X489560Y210795D01*
X489128Y208712D01*
X489128Y207493D01*
X489560Y205410D01*
X490373Y204191D01*
X491618Y203759D01*
X492456Y203759D01*
X493674Y204191D01*
X494513Y205410D01*
X494920Y207493D01*
X494920Y208712D01*
X494513Y210795D01*
X493674Y212039D01*
X492456Y212446D01*
G54D11*
X494513Y210795D02*
X489560Y205410D01*
G54D11*
X497815Y212446D02*
X497815Y203759D01*
G54D11*
X503606Y212446D02*
X497815Y206655D01*
G54D11*
X499872Y208712D02*
X503606Y203759D01*
G54D11*
X522250Y210694D02*
X521818Y211532D01*
X520954Y212395D01*
X520116Y212827D01*
X518414Y212827D01*
X517551Y212395D01*
X516687Y211532D01*
X516280Y210694D01*
X515849Y209398D01*
X515849Y207265D01*
X516280Y205994D01*
X516687Y205131D01*
X517551Y204293D01*
X518414Y203861D01*
X520116Y203861D01*
X520954Y204293D01*
X521818Y205131D01*
X522250Y205994D01*
G54D11*
X588036Y212243D02*
X592506Y212243D01*
X590068Y208991D01*
X591287Y208991D01*
X592100Y208585D01*
X592506Y208179D01*
X592912Y206959D01*
X592912Y206146D01*
X592506Y204928D01*
X591694Y204115D01*
X590474Y203709D01*
X589255Y203709D01*
X588036Y204115D01*
X587630Y204522D01*
X587223Y205334D01*
G54D11*
X596164Y212243D02*
X600634Y212243D01*
X598196Y208991D01*
X599415Y208991D01*
X600228Y208585D01*
X600634Y208179D01*
X601040Y206959D01*
X601040Y206146D01*
X600634Y204928D01*
X599821Y204115D01*
X598602Y203709D01*
X597383Y203709D01*
X596164Y204115D01*
X595758Y204522D01*
X595351Y205334D01*
G54D11*
X562636Y212243D02*
X567106Y212243D01*
X564668Y208991D01*
X565887Y208991D01*
X566700Y208585D01*
X567106Y208179D01*
X567512Y206959D01*
X567512Y206146D01*
X567106Y204928D01*
X566293Y204115D01*
X565074Y203709D01*
X563855Y203709D01*
X562636Y204115D01*
X562230Y204522D01*
X561823Y205334D01*
G54D11*
X570764Y212243D02*
X575234Y212243D01*
X572796Y208991D01*
X574015Y208991D01*
X574828Y208585D01*
X575234Y208179D01*
X575640Y206959D01*
X575640Y206146D01*
X575234Y204928D01*
X574422Y204115D01*
X573202Y203709D01*
X571983Y203709D01*
X570764Y204115D01*
X570358Y204522D01*
X569951Y205334D01*
G54D10*
X581254Y988289D02*
X581254Y880339D01*
G54D10*
X594996Y824992D02*
X599999Y820014D01*
X605003Y824992D01*
G54D10*
X599999Y840004D02*
X599999Y820014D01*
G54D10*
X657149Y296062D02*
X657149Y283363D01*
G54D12*
X638785Y134798D02*
X638785Y123063D01*
X638048Y120879D01*
X637312Y120142D01*
X635864Y119406D01*
X634391Y119406D01*
X632918Y120142D01*
X632181Y120879D01*
X631444Y123063D01*
X631444Y124537D01*
G54D12*
X647574Y134798D02*
X647574Y119406D01*
G54D12*
X642442Y134798D02*
X652704Y134798D01*
G54D12*
X665887Y119406D02*
X660020Y134798D01*
X654178Y119406D01*
G54D12*
X656362Y124537D02*
X663702Y124537D01*
G54D12*
X679806Y131140D02*
X679070Y132588D01*
X677622Y134062D01*
X676148Y134798D01*
X673228Y134798D01*
X671754Y134062D01*
X670281Y132588D01*
X669544Y131140D01*
X668834Y128931D01*
X668834Y125273D01*
X669544Y123063D01*
X670281Y121616D01*
X671754Y120142D01*
X673228Y119406D01*
X676148Y119406D01*
X677622Y120142D01*
X679070Y121616D01*
X679806Y123063D01*
X679806Y125273D01*
X676148Y125273D01*
G54D10*
X625222Y988289D02*
X625222Y937489D01*
G54D10*
X771272Y988289D02*
X771272Y937489D01*
G54D10*
X825246Y988289D02*
X825246Y937489D01*
G54D12*
X783692Y984581D02*
X783692Y975513D01*
X784302Y973684D01*
X785496Y972490D01*
X787324Y971881D01*
X788518Y971881D01*
X790347Y972490D01*
X791540Y973684D01*
X792150Y975513D01*
X792150Y984581D01*
G54D12*
X804850Y982752D02*
X803656Y983971D01*
X801828Y984581D01*
X799414Y984581D01*
X797612Y983971D01*
X796392Y982752D01*
X796392Y981558D01*
X797002Y980339D01*
X797612Y979729D01*
X798805Y979120D01*
X802437Y977926D01*
X803656Y977316D01*
X804240Y976707D01*
X804850Y975513D01*
X804850Y973684D01*
X803656Y972490D01*
X801828Y971881D01*
X799414Y971881D01*
X797612Y972490D01*
X796392Y973684D01*
G54D12*
X814528Y984581D02*
X809092Y984581D01*
X809092Y971881D01*
X814528Y971881D01*
X816356Y972490D01*
X816966Y973074D01*
X817550Y974293D01*
X817550Y976097D01*
X816966Y977316D01*
X816356Y977926D01*
X814528Y978535D01*
X816356Y979120D01*
X816966Y979729D01*
X817550Y980948D01*
X817550Y982168D01*
X816966Y983362D01*
X816356Y983971D01*
X814528Y984581D01*
G54D12*
X809092Y978535D02*
X814528Y978535D01*
G54D12*
X784302Y960755D02*
X790956Y960755D01*
X787324Y955929D01*
X789128Y955929D01*
X790347Y955320D01*
X790956Y954710D01*
X791540Y952907D01*
X791540Y951687D01*
X790956Y949884D01*
X789738Y948665D01*
X787908Y948056D01*
X786105Y948056D01*
X784302Y948665D01*
X783692Y949275D01*
X783082Y950468D01*
G54D12*
X795172Y949275D02*
X795782Y948665D01*
X795172Y948056D01*
X794563Y948665D01*
X795172Y949275D01*
G54D12*
X795782Y948665D02*
X795782Y947446D01*
X795172Y946252D01*
X794563Y945642D01*
G54D12*
X806070Y948056D02*
X806070Y960755D01*
X800024Y952298D01*
X809092Y952298D01*
G54D11*
X856616Y56490D02*
X863930Y56490D01*
G54D11*
X878968Y131344D02*
X879806Y131776D01*
X881025Y132995D01*
X881025Y124384D01*
G54D11*
X889229Y132995D02*
X888416Y132995D01*
X887197Y132588D01*
X886359Y131344D01*
X885952Y129312D01*
X885952Y128067D01*
X886359Y126010D01*
X887197Y124791D01*
X888416Y124384D01*
X889229Y124384D01*
X890474Y124791D01*
X891286Y126010D01*
X891693Y128067D01*
X891693Y129312D01*
X891286Y131344D01*
X890474Y132588D01*
X889229Y132995D01*
G54D11*
X891286Y131344D02*
X886359Y126010D01*
G54D11*
X897458Y132995D02*
X896620Y132995D01*
X895401Y132588D01*
X894588Y131344D01*
X894156Y129312D01*
X894156Y128067D01*
X894588Y126010D01*
X895401Y124791D01*
X896620Y124384D01*
X897458Y124384D01*
X898678Y124791D01*
X899490Y126010D01*
X899922Y128067D01*
X899922Y129312D01*
X899490Y131344D01*
X898678Y132588D01*
X897458Y132995D01*
G54D11*
X899490Y131344D02*
X894588Y126010D01*
G54D11*
X902792Y130125D02*
X902792Y126010D01*
X903199Y124791D01*
X904012Y124384D01*
X905256Y124384D01*
X906069Y124791D01*
X907314Y126010D01*
G54D11*
X907314Y130125D02*
X907314Y124384D01*
G54D11*
X915924Y132995D02*
X910590Y132995D01*
X910590Y124384D01*
G54D11*
X910590Y128880D02*
X913867Y128880D01*
G54D12*
X886054Y435839D02*
X886054Y442189D01*
G54D12*
X844779Y515214D02*
X844779Y521564D01*
G54D11*
X896900Y588518D02*
X896468Y589382D01*
X895630Y590220D01*
X894766Y590652D01*
X893064Y590652D01*
X892200Y590220D01*
X891362Y589382D01*
X890931Y588518D01*
X890499Y587248D01*
X890499Y585115D01*
X890931Y583819D01*
X891362Y582981D01*
X892200Y582118D01*
X893064Y581686D01*
X894766Y581686D01*
X895630Y582118D01*
X896468Y582981D01*
X896900Y583819D01*
G54D11*
X940283Y60148D02*
X940283Y52832D01*
G54D11*
X936625Y56490D02*
X943940Y56490D01*
G54D10*
X970001Y135002D02*
X970001Y115011D01*
G54D11*
X932104Y448336D02*
X932104Y448742D01*
X932510Y449555D01*
X932917Y449961D01*
X933730Y450368D01*
X935356Y450368D01*
X936168Y449961D01*
X936574Y449555D01*
X936981Y448742D01*
X936981Y447929D01*
X936574Y447116D01*
X935762Y445897D01*
X931698Y441834D01*
X937388Y441834D01*
G54D11*
X941045Y442240D02*
X940638Y442647D01*
X940232Y442240D01*
X940638Y441834D01*
X941045Y442240D01*
G54D11*
X948766Y450368D02*
X944702Y450368D01*
X944296Y446710D01*
X944702Y447116D01*
X945922Y447523D01*
X947141Y447523D01*
X948360Y447116D01*
X949173Y446304D01*
X949580Y445084D01*
X949580Y444271D01*
X949173Y443053D01*
X948360Y442240D01*
X947141Y441834D01*
X945922Y441834D01*
X944702Y442240D01*
X944296Y442647D01*
X943890Y443459D01*
G54D11*
X951205Y450368D02*
X954456Y441834D01*
X957708Y450368D01*
G54D11*
X942925Y526568D02*
X938860Y526568D01*
X938454Y522910D01*
X938860Y523317D01*
X940080Y523723D01*
X941299Y523723D01*
X942518Y523317D01*
X943331Y522504D01*
X943737Y521284D01*
X943737Y520472D01*
X943331Y519252D01*
X942518Y518439D01*
X941299Y518033D01*
X940080Y518033D01*
X938860Y518439D01*
X938454Y518846D01*
X938048Y519659D01*
G54D11*
X945363Y526568D02*
X948614Y518033D01*
X951866Y526568D01*
G54D10*
X971296Y988289D02*
X971296Y937489D01*
G54D11*
X263754Y10389D02*
X263754Y115164D01*
X174854Y115164D01*
X174854Y10389D01*
G54D10*
X449478Y46889D02*
X449478Y113564D01*
G54D11*
X850037Y92355D02*
X848411Y92355D01*
X847598Y91948D01*
X846786Y91136D01*
X846380Y90323D01*
X845973Y89103D01*
X845973Y87071D01*
X846380Y85852D01*
X846786Y85039D01*
X847598Y84227D01*
X848411Y83821D01*
X850037Y83821D01*
X850850Y84227D01*
X851662Y85039D01*
X852069Y85852D01*
X852476Y87071D01*
X852476Y89103D01*
X852069Y90323D01*
X851662Y91136D01*
X850850Y91948D01*
X850037Y92355D01*
G54D11*
X855320Y87884D02*
X858978Y87884D01*
X860197Y88291D01*
X860603Y88697D01*
X861010Y89510D01*
X861010Y90729D01*
X860603Y91542D01*
X860197Y91948D01*
X858978Y92355D01*
X855320Y92355D01*
X855320Y83821D01*
G54D11*
X869138Y92355D02*
X863854Y92355D01*
X863854Y83821D01*
X869138Y83821D01*
G54D11*
X863854Y88291D02*
X867106Y88291D01*
G54D11*
X871576Y88291D02*
X875234Y88291D01*
X876453Y88697D01*
X876859Y89103D01*
X877266Y89916D01*
X877266Y90729D01*
X876859Y91542D01*
X876453Y91948D01*
X875234Y92355D01*
X871576Y92355D01*
X871576Y83821D01*
G54D11*
X874420Y88291D02*
X877266Y83821D01*
G54D11*
X885394Y83821D02*
X882142Y92355D01*
X878892Y83821D01*
G54D11*
X880110Y86665D02*
X884174Y86665D01*
G54D11*
X889051Y92355D02*
X889051Y83821D01*
G54D11*
X886206Y92355D02*
X891896Y92355D01*
G54D11*
X893928Y92355D02*
X893928Y83821D01*
G54D11*
X902868Y92355D02*
X902868Y83821D01*
X897179Y92355D01*
X897179Y83821D01*
G54D11*
X911810Y90323D02*
X911404Y91136D01*
X910590Y91948D01*
X909778Y92355D01*
X908152Y92355D01*
X907339Y91948D01*
X906526Y91136D01*
X906120Y90323D01*
X905714Y89103D01*
X905714Y87071D01*
X906120Y85852D01*
X906526Y85039D01*
X907339Y84227D01*
X908152Y83821D01*
X909778Y83821D01*
X910590Y84227D01*
X911404Y85039D01*
X911810Y85852D01*
X911810Y87071D01*
X909778Y87071D01*
G54D11*
X862635Y74067D02*
X862228Y74879D01*
X861416Y75692D01*
X860603Y76099D01*
X858978Y76099D01*
X858165Y75692D01*
X857352Y74879D01*
X856946Y74067D01*
X856539Y72847D01*
X856539Y70816D01*
X856946Y69597D01*
X857352Y68784D01*
X858165Y67971D01*
X858978Y67565D01*
X860603Y67565D01*
X861416Y67971D01*
X862228Y68784D01*
X862635Y69597D01*
G54D11*
X865480Y76099D02*
X865480Y70003D01*
X865886Y68784D01*
X866700Y67971D01*
X867918Y67565D01*
X868731Y67565D01*
X869950Y67971D01*
X870763Y68784D01*
X871170Y70003D01*
X871170Y76099D01*
G54D11*
X874420Y72034D02*
X878078Y72034D01*
X879298Y72441D01*
X879704Y72847D01*
X880110Y73660D01*
X880110Y74473D01*
X879704Y75286D01*
X879298Y75692D01*
X878078Y76099D01*
X874420Y76099D01*
X874420Y67565D01*
G54D11*
X877266Y72034D02*
X880110Y67565D01*
G54D11*
X882955Y72034D02*
X886613Y72034D01*
X887832Y72441D01*
X888238Y72847D01*
X888644Y73660D01*
X888644Y74473D01*
X888238Y75286D01*
X887832Y75692D01*
X886613Y76099D01*
X882955Y76099D01*
X882955Y67565D01*
G54D11*
X885800Y72034D02*
X888644Y67565D01*
G54D11*
X896773Y76099D02*
X891490Y76099D01*
X891490Y67565D01*
X896773Y67565D01*
G54D11*
X891490Y72034D02*
X894740Y72034D01*
G54D11*
X904901Y76099D02*
X904901Y67565D01*
X899212Y76099D01*
X899212Y67565D01*
G54D11*
X909778Y76099D02*
X909778Y67565D01*
G54D11*
X906933Y76099D02*
X912622Y76099D01*
G54D11*
X884988Y59842D02*
X884988Y51308D01*
G54D11*
X882142Y59842D02*
X887832Y59842D01*
G54D11*
X895147Y59842D02*
X889864Y59842D01*
X889864Y51308D01*
X895147Y51308D01*
G54D11*
X889864Y55779D02*
X893116Y55779D01*
G54D11*
X902868Y58623D02*
X902056Y59436D01*
X900836Y59842D01*
X899212Y59842D01*
X897992Y59436D01*
X897179Y58623D01*
X897179Y57811D01*
X897586Y56998D01*
X897992Y56592D01*
X898805Y56186D01*
X901243Y55373D01*
X902056Y54966D01*
X902462Y54560D01*
X902868Y53747D01*
X902868Y52528D01*
X902056Y51715D01*
X900836Y51308D01*
X899212Y51308D01*
X897992Y51715D01*
X897179Y52528D01*
G54D11*
X907339Y59842D02*
X907339Y51308D01*
G54D11*
X904494Y59842D02*
X910184Y59842D01*
G54D11*
X139522Y101499D02*
X138684Y101499D01*
X137465Y101093D01*
X136627Y99873D01*
X136220Y97816D01*
X136220Y96571D01*
X136627Y94514D01*
X137465Y93295D01*
X138684Y92888D01*
X139522Y92888D01*
X140742Y93295D01*
X141554Y94514D01*
X141986Y96571D01*
X141986Y97816D01*
X141554Y99873D01*
X140742Y101093D01*
X139522Y101499D01*
G54D11*
X141554Y99873D02*
X136627Y94514D01*
G54D11*
X145670Y93295D02*
X145263Y93701D01*
X144856Y93295D01*
X145263Y92888D01*
X145670Y93295D01*
G54D11*
X151842Y101499D02*
X151004Y101499D01*
X149784Y101093D01*
X148972Y99873D01*
X148540Y97816D01*
X148540Y96571D01*
X148972Y94514D01*
X149784Y93295D01*
X151004Y92888D01*
X151842Y92888D01*
X153060Y93295D01*
X153899Y94514D01*
X154306Y96571D01*
X154306Y97816D01*
X153899Y99873D01*
X153060Y101093D01*
X151842Y101499D01*
G54D11*
X153899Y99873D02*
X148972Y94514D01*
G54D11*
X157988Y99873D02*
X158827Y100280D01*
X160046Y101499D01*
X160046Y92888D01*
G54D11*
X165406Y98629D02*
X165406Y94514D01*
X165812Y93295D01*
X166624Y92888D01*
X167869Y92888D01*
X168682Y93295D01*
X169926Y94514D01*
G54D11*
X169926Y98629D02*
X169926Y92888D01*
G54D11*
X136043Y112370D02*
X136881Y112776D01*
X138100Y114021D01*
X138100Y105334D01*
G54D11*
X146381Y114021D02*
X145542Y114021D01*
X144298Y113614D01*
X143485Y112370D01*
X143053Y110287D01*
X143053Y109068D01*
X143485Y106985D01*
X144298Y105766D01*
X145542Y105334D01*
X146381Y105334D01*
X147600Y105766D01*
X148438Y106985D01*
X148844Y109068D01*
X148844Y110287D01*
X148438Y112370D01*
X147600Y113614D01*
X146381Y114021D01*
G54D11*
X148438Y112370D02*
X143485Y106985D01*
G54D11*
X151740Y114021D02*
X151740Y105334D01*
G54D11*
X157532Y114021D02*
X151740Y108230D01*
G54D11*
X153798Y110287D02*
X157532Y105334D01*
G54D11*
X59132Y74879D02*
X62840Y74879D01*
X64060Y75311D01*
X64466Y75717D01*
X64872Y76530D01*
X64872Y77343D01*
X64466Y78181D01*
X64060Y78588D01*
X62840Y78994D01*
X59132Y78994D01*
X59132Y70383D01*
G54D11*
X62002Y74879D02*
X64872Y70383D01*
G54D11*
X73102Y78994D02*
X67768Y78994D01*
X67768Y70383D01*
X73102Y70383D01*
G54D11*
X67768Y74879D02*
X71044Y74879D01*
G54D11*
X80900Y77775D02*
X80061Y78588D01*
X78842Y78994D01*
X77191Y78994D01*
X75972Y78588D01*
X75134Y77775D01*
X75134Y76937D01*
X75566Y76124D01*
X75972Y75717D01*
X76785Y75311D01*
X79248Y74473D01*
X80061Y74067D01*
X80493Y73660D01*
X80900Y72847D01*
X80900Y71603D01*
X80061Y70790D01*
X78842Y70383D01*
X77191Y70383D01*
X75972Y70790D01*
X75134Y71603D01*
G54D11*
X89104Y78994D02*
X83770Y78994D01*
X83770Y70383D01*
X89104Y70383D01*
G54D11*
X83770Y74879D02*
X87046Y74879D01*
G54D11*
X93218Y78994D02*
X93218Y70383D01*
G54D11*
X90348Y78994D02*
X96088Y78994D01*
G54D12*
X228829Y146914D02*
X235179Y146914D01*
G54D11*
X226975Y174321D02*
X226975Y178791D01*
X230226Y176353D01*
X230226Y177572D01*
X230632Y178385D01*
X231039Y178791D01*
X232258Y179197D01*
X233071Y179197D01*
X234290Y178791D01*
X235102Y177979D01*
X235509Y176759D01*
X235509Y175540D01*
X235102Y174321D01*
X234696Y173914D01*
X233884Y173508D01*
G54D11*
X226975Y184887D02*
X226975Y184074D01*
X227381Y182855D01*
X228600Y182042D01*
X230632Y181635D01*
X231852Y181635D01*
X233884Y182042D01*
X235102Y182855D01*
X235509Y184074D01*
X235509Y184887D01*
X235102Y186106D01*
X233884Y186919D01*
X231852Y187326D01*
X230632Y187326D01*
X228600Y186919D01*
X227381Y186106D01*
X226975Y184887D01*
G54D11*
X228600Y186919D02*
X233884Y182042D01*
G54D11*
X226975Y193015D02*
X226975Y192203D01*
X227381Y190983D01*
X228600Y190171D01*
X230632Y189764D01*
X231852Y189764D01*
X233884Y190171D01*
X235102Y190983D01*
X235509Y192203D01*
X235509Y193015D01*
X235102Y194234D01*
X233884Y195047D01*
X231852Y195453D01*
X230632Y195453D01*
X228600Y195047D01*
X227381Y194234D01*
X226975Y193015D01*
G54D11*
X228600Y195047D02*
X233884Y190171D01*
G54D12*
X158979Y172314D02*
X152629Y172314D01*
G54D11*
X131445Y426618D02*
X131039Y427431D01*
X130200Y428244D01*
X129388Y428676D01*
X127737Y428676D01*
X126924Y428244D01*
X126086Y427431D01*
X125680Y426618D01*
X125273Y425374D01*
X125273Y423317D01*
X125680Y422097D01*
X126086Y421259D01*
X126924Y420446D01*
X127737Y420040D01*
X129388Y420040D01*
X130200Y420446D01*
X131039Y421259D01*
X131445Y422097D01*
G54D11*
X138024Y428676D02*
X136373Y428676D01*
X135560Y428244D01*
X134722Y427431D01*
X134316Y426618D01*
X133909Y425374D01*
X133909Y423317D01*
X134316Y422097D01*
X134722Y421259D01*
X135560Y420446D01*
X136373Y420040D01*
X138024Y420040D01*
X138836Y420446D01*
X139675Y421259D01*
X140082Y422097D01*
X140488Y423317D01*
X140488Y425374D01*
X140082Y426618D01*
X139675Y427431D01*
X138836Y428244D01*
X138024Y428676D01*
G54D11*
X149124Y428676D02*
X149124Y420040D01*
X143358Y428676D01*
X143358Y420040D01*
G54D11*
X157760Y428676D02*
X152426Y428676D01*
X152426Y420040D01*
G54D11*
X152426Y424561D02*
X155702Y424561D01*
G54D11*
X129388Y412421D02*
X125680Y412421D01*
X125680Y403785D01*
X129388Y403785D01*
X130633Y404191D01*
X131039Y404597D01*
X131445Y405436D01*
X131445Y406655D01*
X131039Y407493D01*
X130633Y407899D01*
X129388Y408306D01*
X130633Y408712D01*
X131039Y409119D01*
X131445Y409957D01*
X131445Y410770D01*
X131039Y411582D01*
X130633Y412014D01*
X129388Y412421D01*
G54D11*
X125680Y408306D02*
X129388Y408306D01*
G54D11*
X135966Y412421D02*
X135966Y403785D01*
G54D11*
X133096Y412421D02*
X138836Y412421D01*
G54D11*
X146660Y412421D02*
X146660Y403785D01*
X140894Y412421D01*
X140894Y403785D01*
G54D11*
X141530Y492405D02*
X141530Y483871D01*
G54D11*
X144374Y483871D02*
X150064Y492405D01*
G54D11*
X156566Y492405D02*
X154940Y492405D01*
X154128Y491998D01*
X153315Y491185D01*
X152908Y490373D01*
X152502Y489153D01*
X152502Y487122D01*
X152908Y485903D01*
X153315Y485090D01*
X154128Y484277D01*
X154940Y483871D01*
X156566Y483871D01*
X157378Y484277D01*
X158192Y485090D01*
X158598Y485903D01*
X159004Y487122D01*
X159004Y489153D01*
X158598Y490373D01*
X158192Y491185D01*
X157378Y491998D01*
X156566Y492405D01*
G54D11*
X165913Y492405D02*
X169164Y483871D01*
X172416Y492405D01*
G54D11*
X178105Y492405D02*
X176480Y492405D01*
X175667Y491998D01*
X174854Y491185D01*
X174448Y490373D01*
X174041Y489153D01*
X174041Y487122D01*
X174448Y485903D01*
X174854Y485090D01*
X175667Y484277D01*
X176480Y483871D01*
X178105Y483871D01*
X178918Y484277D01*
X179731Y485090D01*
X180137Y485903D01*
X180544Y487122D01*
X180544Y489153D01*
X180137Y490373D01*
X179731Y491185D01*
X178918Y491998D01*
X178105Y492405D01*
G54D11*
X183388Y492405D02*
X183388Y483871D01*
X188266Y483871D01*
G54D11*
X191922Y492405D02*
X191922Y483871D01*
G54D11*
X189078Y492405D02*
X194768Y492405D01*
G54D11*
X202083Y483871D02*
X198832Y492405D01*
X195580Y483871D01*
G54D11*
X196800Y486716D02*
X200864Y486716D01*
G54D11*
X209779Y490373D02*
X209372Y491185D01*
X208586Y491998D01*
X207772Y492405D01*
X206146Y492405D01*
X205334Y491998D01*
X204521Y491185D01*
X204114Y490373D01*
X203708Y489153D01*
X203708Y487122D01*
X204114Y485903D01*
X204521Y485090D01*
X205334Y484277D01*
X206146Y483871D01*
X207772Y483871D01*
X208586Y484277D01*
X209372Y485090D01*
X209779Y485903D01*
X209779Y487122D01*
X207772Y487122D01*
G54D11*
X217907Y492405D02*
X212624Y492405D01*
X212624Y483871D01*
X217907Y483871D01*
G54D11*
X212624Y488340D02*
X215875Y488340D01*
G54D11*
X148032Y467614D02*
X148032Y476148D01*
X144780Y467614D01*
X141530Y476148D01*
X141530Y467614D01*
G54D11*
X151282Y476148D02*
X151282Y470053D01*
X151689Y468834D01*
X152502Y468021D01*
X153721Y467614D01*
X154534Y467614D01*
X155754Y468021D01*
X156566Y468834D01*
X156972Y470053D01*
X156972Y476148D01*
G54D11*
X165506Y474929D02*
X164694Y475742D01*
X163475Y476148D01*
X161850Y476148D01*
X160630Y475742D01*
X159817Y474929D01*
X159817Y474117D01*
X160224Y473304D01*
X160630Y472898D01*
X161443Y472492D01*
X163881Y471679D01*
X164694Y471272D01*
X165100Y470866D01*
X165506Y470053D01*
X165506Y468834D01*
X164694Y468021D01*
X163475Y467614D01*
X161850Y467614D01*
X160630Y468021D01*
X159817Y468834D01*
G54D11*
X169978Y476148D02*
X169978Y467614D01*
G54D11*
X167132Y476148D02*
X172822Y476148D01*
G54D11*
X183794Y476148D02*
X180137Y476148D01*
X180137Y467614D01*
X183794Y467614D01*
X185014Y468021D01*
X185420Y468427D01*
X185826Y469240D01*
X185826Y470459D01*
X185420Y471272D01*
X185014Y471679D01*
X183794Y472085D01*
X185014Y472492D01*
X185420Y472898D01*
X185826Y473711D01*
X185826Y474523D01*
X185420Y475336D01*
X185014Y475742D01*
X183794Y476148D01*
G54D11*
X180137Y472085D02*
X183794Y472085D01*
G54D11*
X193955Y476148D02*
X188672Y476148D01*
X188672Y467614D01*
X193955Y467614D01*
G54D11*
X188672Y472085D02*
X191922Y472085D01*
G54D11*
X201676Y476148D02*
X201676Y467614D01*
G54D11*
X210592Y476148D02*
X210592Y467614D01*
X204928Y476148D01*
X204928Y467614D01*
G54D11*
X141530Y455829D02*
X145186Y455829D01*
X146406Y456235D01*
X146812Y456642D01*
X147219Y457455D01*
X147219Y458268D01*
X146812Y459080D01*
X146406Y459487D01*
X145186Y459893D01*
X141530Y459893D01*
X141530Y451358D01*
G54D11*
X144374Y455829D02*
X147219Y451358D01*
G54D11*
X155347Y451358D02*
X152096Y459893D01*
X148844Y451358D01*
G54D11*
X150064Y454203D02*
X154128Y454203D01*
G54D11*
X163068Y459893D02*
X163068Y451358D01*
X157378Y459893D01*
X157378Y451358D01*
G54D11*
X172009Y457861D02*
X171602Y458674D01*
X170790Y459487D01*
X169978Y459893D01*
X168352Y459893D01*
X167539Y459487D01*
X166726Y458674D01*
X166320Y457861D01*
X165913Y456642D01*
X165913Y454610D01*
X166320Y453390D01*
X166726Y452577D01*
X167539Y451765D01*
X168352Y451358D01*
X169978Y451358D01*
X170790Y451765D01*
X171602Y452577D01*
X172009Y453390D01*
X172009Y454610D01*
X169978Y454610D01*
G54D11*
X180137Y459893D02*
X174854Y459893D01*
X174854Y451358D01*
X180137Y451358D01*
G54D11*
X174854Y455829D02*
X178105Y455829D01*
G54D11*
X190704Y459893D02*
X189891Y459893D01*
X188672Y459487D01*
X187859Y458268D01*
X187452Y456235D01*
X187452Y455016D01*
X187859Y452984D01*
X188672Y451765D01*
X189891Y451358D01*
X190704Y451358D01*
X191922Y451765D01*
X192736Y452984D01*
X193142Y455016D01*
X193142Y456235D01*
X192736Y458268D01*
X191922Y459487D01*
X190704Y459893D01*
G54D11*
X192736Y458268D02*
X187859Y452984D01*
G54D11*
X195987Y455016D02*
X203302Y455016D01*
G54D11*
X206960Y459893D02*
X211404Y459893D01*
X208966Y456642D01*
X210186Y456642D01*
X210998Y456235D01*
X211404Y455829D01*
X211811Y454610D01*
X211811Y453797D01*
X211404Y452577D01*
X210592Y451765D01*
X209372Y451358D01*
X208179Y451358D01*
X206960Y451765D01*
X206553Y452171D01*
X206146Y452984D01*
G54D11*
X215468Y451765D02*
X215062Y452171D01*
X214656Y451765D01*
X215062Y451358D01*
X215468Y451765D01*
G54D11*
X219126Y459893D02*
X223596Y459893D01*
X221158Y456642D01*
X222377Y456642D01*
X223190Y456235D01*
X223596Y455829D01*
X224003Y454610D01*
X224003Y453797D01*
X223596Y452577D01*
X222784Y451765D01*
X221564Y451358D01*
X220346Y451358D01*
X219126Y451765D01*
X218720Y452171D01*
X218314Y452984D01*
G54D11*
X225628Y459893D02*
X228880Y451358D01*
X232131Y459893D01*
G54D10*
X165329Y559664D02*
X149454Y559664D01*
G54D10*
X149454Y623164D02*
X165329Y623164D01*
G54D12*
X152096Y648895D02*
X146102Y648895D01*
X145492Y643484D01*
X146102Y644094D01*
X147904Y644703D01*
X149708Y644703D01*
X151486Y644094D01*
X152705Y642900D01*
X153290Y641097D01*
X153290Y639877D01*
X152705Y638074D01*
X151486Y636880D01*
X149708Y636296D01*
X147904Y636296D01*
X146102Y636880D01*
X145492Y637489D01*
X144882Y638683D01*
G54D12*
X161697Y648895D02*
X160503Y648895D01*
X158700Y648284D01*
X157506Y646481D01*
X156896Y643484D01*
X156896Y641681D01*
X157506Y638683D01*
X158700Y636880D01*
X160503Y636296D01*
X161697Y636296D01*
X163500Y636880D01*
X164720Y638683D01*
X165304Y641681D01*
X165304Y643484D01*
X164720Y646481D01*
X163500Y648284D01*
X161697Y648895D01*
G54D12*
X164720Y646481D02*
X157506Y638683D01*
G54D12*
X186919Y636296D02*
X186919Y648895D01*
X182118Y636296D01*
X177318Y648895D01*
X177318Y636296D01*
G54D12*
X191720Y648895D02*
X191720Y636296D01*
G54D12*
X200127Y648895D02*
X200127Y636296D01*
G54D12*
X191720Y642900D02*
X200127Y642900D01*
G54D12*
X204344Y644703D02*
X210948Y644703D01*
X204344Y636296D01*
X210948Y636296D01*
G54D11*
X121692Y732968D02*
X123724Y724434D01*
X125756Y732968D01*
X127788Y724434D01*
X129820Y732968D01*
G54D11*
X132258Y730936D02*
X132258Y731343D01*
X132664Y732155D01*
X133071Y732562D01*
X133884Y732968D01*
X135484Y732968D01*
X136296Y732562D01*
X136703Y732155D01*
X137110Y731343D01*
X137110Y730530D01*
X136703Y729717D01*
X135890Y728498D01*
X131852Y724434D01*
X137516Y724434D01*
G54D11*
X144831Y732968D02*
X140768Y732968D01*
X140361Y729310D01*
X140768Y729717D01*
X141986Y730123D01*
X143206Y730123D01*
X144424Y729717D01*
X145238Y728904D01*
X145644Y727685D01*
X145644Y726872D01*
X145238Y725653D01*
X144424Y724841D01*
X143206Y724434D01*
X141986Y724434D01*
X140768Y724841D01*
X140361Y725247D01*
X139954Y726059D01*
G54D11*
X152146Y732968D02*
X150520Y732968D01*
X149708Y732562D01*
X148895Y731749D01*
X148488Y730936D01*
X148082Y729717D01*
X148082Y727685D01*
X148488Y726465D01*
X148895Y725653D01*
X149708Y724841D01*
X150520Y724434D01*
X152146Y724434D01*
X152960Y724841D01*
X153772Y725653D01*
X154178Y726465D01*
X154585Y727685D01*
X154585Y729717D01*
X154178Y730936D01*
X153772Y731749D01*
X152960Y732562D01*
X152146Y732968D01*
G54D11*
X151740Y726059D02*
X154178Y723621D01*
G54D11*
X162306Y731749D02*
X161900Y732562D01*
X160681Y732968D01*
X159868Y732968D01*
X158649Y732562D01*
X157836Y731343D01*
X157430Y729310D01*
X157430Y727278D01*
X157836Y725653D01*
X158649Y724841D01*
X159868Y724434D01*
X160274Y724434D01*
X161494Y724841D01*
X162306Y725653D01*
X162712Y726872D01*
X162712Y727278D01*
X162306Y728498D01*
X161494Y729310D01*
X160274Y729717D01*
X159868Y729717D01*
X158649Y729310D01*
X157836Y728498D01*
X157430Y727278D01*
G54D11*
X169215Y724434D02*
X169215Y732968D01*
X165151Y727278D01*
X171247Y727278D01*
G54D11*
X218593Y712445D02*
X219431Y712851D01*
X220650Y714096D01*
X220650Y705410D01*
G54D11*
X228930Y714096D02*
X228092Y714096D01*
X226848Y713690D01*
X226035Y712445D01*
X225603Y710362D01*
X225603Y709143D01*
X226035Y707061D01*
X226848Y705841D01*
X228092Y705410D01*
X228930Y705410D01*
X230150Y705841D01*
X230988Y707061D01*
X231394Y709143D01*
X231394Y710362D01*
X230988Y712445D01*
X230150Y713690D01*
X228930Y714096D01*
G54D11*
X230988Y712445D02*
X226035Y707061D01*
G54D11*
X234290Y714096D02*
X234290Y705410D01*
G54D11*
X240081Y714096D02*
X234290Y708305D01*
G54D11*
X236347Y710362D02*
X240081Y705410D01*
G54D10*
X79985Y724993D02*
X59995Y724993D01*
G54D11*
X26162Y694842D02*
X20880Y694842D01*
X20880Y686308D01*
X26162Y686308D01*
G54D11*
X20880Y690779D02*
X24130Y690779D01*
G54D11*
X28194Y694842D02*
X33884Y686308D01*
G54D11*
X33884Y694842D02*
X28194Y686308D01*
G54D11*
X36728Y690373D02*
X40386Y690373D01*
X41606Y690779D01*
X42012Y691186D01*
X42418Y691998D01*
X42418Y693217D01*
X42012Y694030D01*
X41606Y694436D01*
X40386Y694842D01*
X36728Y694842D01*
X36728Y686308D01*
G54D11*
X50546Y686308D02*
X47296Y694842D01*
X44044Y686308D01*
G54D11*
X45263Y689153D02*
X49327Y689153D01*
G54D11*
X58268Y694842D02*
X58268Y686308D01*
X52578Y694842D01*
X52578Y686308D01*
G54D11*
X66802Y693623D02*
X65990Y694436D01*
X64770Y694842D01*
X63144Y694842D01*
X61926Y694436D01*
X61113Y693623D01*
X61113Y692811D01*
X61520Y691998D01*
X61926Y691592D01*
X62738Y691186D01*
X65177Y690373D01*
X65990Y689966D01*
X66396Y689560D01*
X66802Y688747D01*
X66802Y687528D01*
X65990Y686715D01*
X64770Y686308D01*
X63144Y686308D01*
X61926Y686715D01*
X61113Y687528D01*
G54D11*
X69647Y694842D02*
X69647Y686308D01*
G54D11*
X76556Y694842D02*
X74930Y694842D01*
X74118Y694436D01*
X73305Y693623D01*
X72898Y692811D01*
X72492Y691592D01*
X72492Y689560D01*
X72898Y688341D01*
X73305Y687528D01*
X74118Y686715D01*
X74930Y686308D01*
X76556Y686308D01*
X77368Y686715D01*
X78182Y687528D01*
X78588Y688341D01*
X78994Y689560D01*
X78994Y691592D01*
X78588Y692811D01*
X78182Y693623D01*
X77368Y694436D01*
X76556Y694842D01*
G54D11*
X87529Y694842D02*
X87529Y686308D01*
X81839Y694842D01*
X81839Y686308D01*
G54D11*
X71832Y764464D02*
X71425Y764464D01*
X70612Y764871D01*
X70206Y765277D01*
X69800Y766090D01*
X69800Y767716D01*
X70206Y768528D01*
X70612Y768935D01*
X71425Y769341D01*
X72238Y769341D01*
X73051Y768935D01*
X74270Y768122D01*
X78334Y764058D01*
X78334Y769748D01*
G54D11*
X77928Y773405D02*
X77521Y772998D01*
X77928Y772592D01*
X78334Y772998D01*
X77928Y773405D01*
G54D11*
X78334Y777875D02*
X69800Y781940D01*
X69800Y776250D01*
G54D11*
X162332Y767639D02*
X161926Y767639D01*
X161112Y768045D01*
X160706Y768452D01*
X160300Y769265D01*
X160300Y770890D01*
X160706Y771703D01*
X161112Y772110D01*
X161926Y772516D01*
X162738Y772516D01*
X163551Y772110D01*
X164770Y771297D01*
X168834Y767232D01*
X168834Y772923D01*
G54D11*
X168428Y776580D02*
X168022Y776174D01*
X168428Y775768D01*
X168834Y776174D01*
X168428Y776580D01*
G54D11*
X168834Y781050D02*
X160300Y785114D01*
X160300Y779424D01*
G54D11*
X228550Y761696D02*
X228550Y766166D01*
X231801Y763728D01*
X231801Y764947D01*
X232207Y765760D01*
X232614Y766166D01*
X233833Y766572D01*
X234646Y766572D01*
X235864Y766166D01*
X236678Y765354D01*
X237084Y764134D01*
X237084Y762915D01*
X236678Y761696D01*
X236271Y761289D01*
X235458Y760883D01*
G54D11*
X228550Y769823D02*
X228550Y774294D01*
X231801Y771855D01*
X231801Y773075D01*
X232207Y773888D01*
X232614Y774294D01*
X233833Y774701D01*
X234646Y774701D01*
X235864Y774294D01*
X236678Y773481D01*
X237084Y772262D01*
X237084Y771043D01*
X236678Y769823D01*
X236271Y769417D01*
X235458Y769010D01*
G54D11*
X228550Y780390D02*
X228550Y779578D01*
X228956Y778358D01*
X230175Y777546D01*
X232207Y777139D01*
X233426Y777139D01*
X235458Y777546D01*
X236678Y778358D01*
X237084Y779578D01*
X237084Y780390D01*
X236678Y781609D01*
X235458Y782422D01*
X233426Y782828D01*
X232207Y782828D01*
X230175Y782422D01*
X228956Y781609D01*
X228550Y780390D01*
G54D11*
X230175Y782422D02*
X235458Y777546D01*
G54D10*
X228829Y807314D02*
X235179Y807314D01*
G54D10*
X541554Y24663D02*
X497104Y24663D01*
G54D11*
X536118Y248971D02*
X536956Y249377D01*
X538201Y250648D01*
X538201Y241885D01*
G54D11*
X543612Y250648D02*
X543612Y241885D01*
G54D11*
X549428Y250648D02*
X543612Y244806D01*
G54D11*
X545694Y246888D02*
X549428Y241885D01*
G54D11*
X459106Y258877D02*
X459106Y250342D01*
G54D11*
X464795Y258877D02*
X464795Y250342D01*
G54D11*
X459106Y254813D02*
X464795Y254813D01*
G54D11*
X470891Y258877D02*
X468046Y258877D01*
X468046Y250342D01*
X470891Y250342D01*
X472110Y250749D01*
X472923Y251562D01*
X473330Y252375D01*
X473736Y253594D01*
X473736Y255626D01*
X473330Y256845D01*
X472923Y257658D01*
X472110Y258471D01*
X470891Y258877D01*
G54D11*
X479426Y258877D02*
X476580Y258877D01*
X476580Y250342D01*
X479426Y250342D01*
X480645Y250749D01*
X481458Y251562D01*
X481864Y252375D01*
X482270Y253594D01*
X482270Y255626D01*
X481864Y256845D01*
X481458Y257658D01*
X480645Y258471D01*
X479426Y258877D01*
G54D11*
X490398Y258877D02*
X490398Y250342D01*
X495275Y250342D01*
G54D11*
X502590Y258877D02*
X497307Y258877D01*
X497307Y250342D01*
X502590Y250342D01*
G54D11*
X497307Y254813D02*
X500558Y254813D01*
G54D11*
X507874Y258877D02*
X505028Y258877D01*
X505028Y250342D01*
X507874Y250342D01*
X509092Y250749D01*
X509906Y251562D01*
X510312Y252375D01*
X510718Y253594D01*
X510718Y255626D01*
X510312Y256845D01*
X509906Y257658D01*
X509092Y258471D01*
X507874Y258877D01*
G54D11*
X417018Y306375D02*
X421488Y306375D01*
X419050Y303124D01*
X420268Y303124D01*
X421082Y302718D01*
X421488Y302311D01*
X421894Y301092D01*
X421894Y300279D01*
X421488Y299060D01*
X420675Y298247D01*
X419456Y297840D01*
X418237Y297840D01*
X417018Y298247D01*
X416612Y298653D01*
X416205Y299466D01*
G54D11*
X424740Y304343D02*
X424740Y304750D01*
X425146Y305563D01*
X425552Y305969D01*
X426364Y306375D01*
X427990Y306375D01*
X428803Y305969D01*
X429210Y305563D01*
X429616Y304750D01*
X429616Y303937D01*
X429210Y303124D01*
X428396Y301905D01*
X424333Y297840D01*
X430022Y297840D01*
G54D11*
X434086Y297840D02*
X438150Y306375D01*
X432461Y306375D01*
G54D11*
X445872Y305156D02*
X445466Y305969D01*
X444246Y306375D01*
X443434Y306375D01*
X442214Y305969D01*
X441402Y304750D01*
X440995Y302718D01*
X440995Y300685D01*
X441402Y299060D01*
X442214Y298247D01*
X443434Y297840D01*
X443840Y297840D01*
X445060Y298247D01*
X445872Y299060D01*
X446278Y300279D01*
X446278Y300685D01*
X445872Y301905D01*
X445060Y302718D01*
X443840Y303124D01*
X443434Y303124D01*
X442214Y302718D01*
X441402Y301905D01*
X440995Y300685D01*
G54D11*
X452374Y306375D02*
X450749Y306375D01*
X449530Y305969D01*
X449123Y305156D01*
X449123Y304343D01*
X449530Y303530D01*
X450342Y303124D01*
X451968Y302718D01*
X453187Y302311D01*
X454000Y301498D01*
X454406Y300685D01*
X454406Y299466D01*
X454000Y298653D01*
X453594Y298247D01*
X452374Y297840D01*
X450749Y297840D01*
X449530Y298247D01*
X449123Y298653D01*
X448717Y299466D01*
X448717Y300685D01*
X449123Y301498D01*
X449936Y302311D01*
X451156Y302718D01*
X452780Y303124D01*
X453594Y303530D01*
X454000Y304343D01*
X454000Y305156D01*
X453594Y305969D01*
X452374Y306375D01*
G54D11*
X462534Y306375D02*
X462534Y297840D01*
G54D11*
X468198Y306375D02*
X468198Y297840D01*
G54D11*
X462534Y302311D02*
X468198Y302311D01*
G54D11*
X471043Y303530D02*
X475514Y303530D01*
X471043Y297840D01*
X475514Y297840D01*
G54D12*
X355804Y403200D02*
X355194Y404419D01*
X354000Y405613D01*
X352806Y406222D01*
X350394Y406222D01*
X349200Y405613D01*
X347980Y404419D01*
X347396Y403200D01*
X346786Y401422D01*
X346786Y398399D01*
X347396Y396621D01*
X347980Y395402D01*
X349200Y394209D01*
X350394Y393599D01*
X352806Y393599D01*
X354000Y394209D01*
X355194Y395402D01*
X355804Y396621D01*
G54D12*
X359994Y400202D02*
X365405Y400202D01*
X367208Y400813D01*
X367792Y401422D01*
X368402Y402616D01*
X368402Y403810D01*
X367792Y405003D01*
X367208Y405613D01*
X365405Y406222D01*
X359994Y406222D01*
X359994Y393599D01*
G54D12*
X364211Y400202D02*
X368402Y393599D01*
G54D12*
X372593Y403200D02*
X372593Y403810D01*
X373202Y405003D01*
X373812Y405613D01*
X375006Y406222D01*
X377394Y406222D01*
X378613Y405613D01*
X379197Y405003D01*
X379806Y403810D01*
X379806Y402616D01*
X379197Y401422D01*
X378004Y399618D01*
X372009Y393599D01*
X380416Y393599D01*
G54D12*
X388798Y406222D02*
X387604Y406222D01*
X385801Y405613D01*
X384607Y403810D01*
X383998Y400813D01*
X383998Y399009D01*
X384607Y396012D01*
X385801Y394209D01*
X387604Y393599D01*
X388798Y393599D01*
X390602Y394209D01*
X391821Y396012D01*
X392405Y399009D01*
X392405Y400813D01*
X391821Y403810D01*
X390602Y405613D01*
X388798Y406222D01*
G54D12*
X391821Y403810D02*
X384607Y396012D01*
G54D12*
X397206Y406222D02*
X403810Y406222D01*
X400203Y401422D01*
X402006Y401422D01*
X403226Y400813D01*
X403810Y400202D01*
X404420Y398399D01*
X404420Y397206D01*
X403810Y395402D01*
X402616Y394209D01*
X400812Y393599D01*
X399009Y393599D01*
X397206Y394209D01*
X396622Y394818D01*
X396012Y396012D01*
G54D12*
X408610Y403200D02*
X408610Y403810D01*
X409220Y405003D01*
X409804Y405613D01*
X411023Y406222D01*
X413410Y406222D01*
X414630Y405613D01*
X415214Y405003D01*
X415824Y403810D01*
X415824Y402616D01*
X415214Y401422D01*
X414020Y399618D01*
X408026Y393599D01*
X416408Y393599D01*
G54D11*
X536524Y528194D02*
X536093Y529032D01*
X535254Y529895D01*
X534391Y530327D01*
X532689Y530327D01*
X531851Y529895D01*
X530987Y529032D01*
X530556Y528194D01*
X530124Y526898D01*
X530124Y524765D01*
X530556Y523494D01*
X530987Y522631D01*
X531851Y521793D01*
X532689Y521361D01*
X534391Y521361D01*
X535254Y521793D01*
X536093Y522631D01*
X536524Y523494D01*
G54D11*
X298044Y767766D02*
X297231Y767360D01*
X296824Y766140D01*
X296824Y765327D01*
X297231Y764108D01*
X298450Y763296D01*
X300482Y762890D01*
X302514Y762890D01*
X304140Y763296D01*
X304953Y764108D01*
X305359Y765327D01*
X305359Y765734D01*
X304953Y766953D01*
X304140Y767766D01*
X302920Y768172D01*
X302514Y768172D01*
X301296Y767766D01*
X300482Y766953D01*
X300076Y765734D01*
X300076Y765327D01*
X300482Y764108D01*
X301296Y763296D01*
X302514Y762890D01*
G54D11*
X296824Y774269D02*
X296824Y772643D01*
X297231Y771424D01*
X298044Y771017D01*
X298857Y771017D01*
X299670Y771424D01*
X300076Y772237D01*
X300482Y773862D01*
X300889Y775082D01*
X301702Y775895D01*
X302514Y776301D01*
X303734Y776301D01*
X304546Y775895D01*
X304953Y775488D01*
X305359Y774269D01*
X305359Y772643D01*
X304953Y771424D01*
X304546Y771017D01*
X303734Y770611D01*
X302514Y770611D01*
X301702Y771017D01*
X300889Y771830D01*
X300482Y773050D01*
X300076Y774675D01*
X299670Y775488D01*
X298857Y775895D01*
X298044Y775895D01*
X297231Y775488D01*
X296824Y774269D01*
G54D11*
X296824Y781990D02*
X296824Y781177D01*
X297231Y779958D01*
X298450Y779145D01*
X300482Y778739D01*
X301702Y778739D01*
X303734Y779145D01*
X304953Y779958D01*
X305359Y781177D01*
X305359Y781990D01*
X304953Y783209D01*
X303734Y784022D01*
X301702Y784429D01*
X300482Y784429D01*
X298450Y784022D01*
X297231Y783209D01*
X296824Y781990D01*
G54D11*
X298450Y784022D02*
X303734Y779145D01*
G54D12*
X348717Y874395D02*
X348717Y861721D01*
G54D12*
X357150Y874395D02*
X357150Y861721D01*
G54D12*
X348717Y868375D02*
X357150Y868375D01*
G54D12*
X366192Y874395D02*
X361976Y874395D01*
X361976Y861721D01*
X366192Y861721D01*
X368021Y862330D01*
X369214Y863549D01*
X369824Y864744D01*
X370434Y866547D01*
X370434Y869569D01*
X369824Y871373D01*
X369214Y872592D01*
X368021Y873786D01*
X366192Y874395D01*
G54D12*
X384302Y861721D02*
X384302Y874395D01*
X379476Y861721D01*
X374650Y874395D01*
X374650Y861721D01*
G54D12*
X389128Y874395D02*
X389128Y861721D01*
G54D11*
X837718Y147244D02*
X838530Y147676D01*
X839775Y148895D01*
X839775Y140259D01*
G54D11*
X848004Y148895D02*
X847166Y148895D01*
X845948Y148489D01*
X845109Y147244D01*
X844703Y145187D01*
X844703Y143968D01*
X845109Y141910D01*
X845948Y140666D01*
X847166Y140259D01*
X848004Y140259D01*
X849224Y140666D01*
X850062Y141910D01*
X850468Y143968D01*
X850468Y145187D01*
X850062Y147244D01*
X849224Y148489D01*
X848004Y148895D01*
G54D11*
X850062Y147244D02*
X845109Y141910D01*
G54D11*
X853338Y146025D02*
X853338Y141910D01*
X853771Y140666D01*
X854583Y140259D01*
X855828Y140259D01*
X856641Y140666D01*
X857886Y141910D01*
G54D11*
X857886Y146025D02*
X857886Y140259D01*
G54D11*
X866522Y148895D02*
X861162Y148895D01*
X861162Y140259D01*
G54D11*
X861162Y144780D02*
X864464Y144780D01*
G54D11*
X687630Y229260D02*
X687630Y229667D01*
X688036Y230480D01*
X688442Y230886D01*
X689254Y231293D01*
X690880Y231293D01*
X691693Y230886D01*
X692100Y230480D01*
X692506Y229667D01*
X692506Y228854D01*
X692100Y228041D01*
X691287Y226822D01*
X687223Y222759D01*
X692912Y222759D01*
G54D11*
X696570Y223165D02*
X696164Y223571D01*
X695757Y223165D01*
X696164Y222759D01*
X696570Y223165D01*
G54D11*
X704292Y231293D02*
X700228Y231293D01*
X699822Y227635D01*
X700228Y228041D01*
X701447Y228448D01*
X702666Y228448D01*
X703885Y228041D01*
X704698Y227228D01*
X705104Y226010D01*
X705104Y225197D01*
X704698Y223978D01*
X703885Y223165D01*
X702666Y222759D01*
X701447Y222759D01*
X700228Y223165D01*
X699822Y223571D01*
X699415Y224384D01*
G54D11*
X706730Y231293D02*
X709981Y222759D01*
X713232Y231293D01*
G54D11*
X612724Y313869D02*
X612293Y314732D01*
X611454Y315570D01*
X610591Y316002D01*
X608890Y316002D01*
X608051Y315570D01*
X607188Y314732D01*
X606756Y313869D01*
X606324Y312598D01*
X606324Y310465D01*
X606756Y309194D01*
X607188Y308331D01*
X608051Y307468D01*
X608890Y307061D01*
X610591Y307061D01*
X611454Y307468D01*
X612293Y308331D01*
X612724Y309194D01*
G54D11*
X843712Y410084D02*
X843712Y418618D01*
X839648Y412928D01*
X845744Y412928D01*
G54D11*
X849402Y410084D02*
X853440Y418618D01*
X847776Y418618D01*
G54D11*
X859130Y418618D02*
X858317Y418618D01*
X857098Y418211D01*
X856285Y416992D01*
X855878Y414960D01*
X855878Y413741D01*
X856285Y411709D01*
X857098Y410490D01*
X858317Y410084D01*
X859130Y410084D01*
X860350Y410490D01*
X861162Y411709D01*
X861568Y413741D01*
X861568Y414960D01*
X861162Y416992D01*
X860350Y418211D01*
X859130Y418618D01*
G54D11*
X861162Y416992D02*
X856285Y411709D01*
G54D11*
X584124Y420116D02*
X584124Y411608D01*
G54D11*
X592659Y418897D02*
X591846Y419710D01*
X590626Y420116D01*
X589001Y420116D01*
X587782Y419710D01*
X586969Y418897D01*
X586969Y418084D01*
X587375Y417271D01*
X587782Y416865D01*
X588594Y416459D01*
X591033Y415646D01*
X591846Y415239D01*
X592252Y414833D01*
X592659Y414020D01*
X592659Y412801D01*
X591846Y412014D01*
X590626Y411608D01*
X589001Y411608D01*
X587782Y412014D01*
X586969Y412801D01*
G54D11*
X600354Y418897D02*
X599948Y419710D01*
X598729Y420116D01*
X597916Y420116D01*
X596722Y419710D01*
X595910Y418491D01*
X595504Y416459D01*
X595504Y414426D01*
X595910Y412801D01*
X596722Y412014D01*
X597916Y411608D01*
X598322Y411608D01*
X599542Y412014D01*
X600354Y412801D01*
X600761Y414020D01*
X600761Y414426D01*
X600354Y415646D01*
X599542Y416459D01*
X598322Y416865D01*
X597916Y416865D01*
X596722Y416459D01*
X595910Y415646D01*
X595504Y414426D01*
G54D11*
X604419Y418491D02*
X605232Y418897D01*
X606450Y420116D01*
X606450Y411608D01*
G54D11*
X611734Y420116D02*
X611734Y411608D01*
X616611Y411608D01*
G54D11*
X617424Y420116D02*
X620674Y411608D01*
X623926Y420116D01*
G54D11*
X625958Y418084D02*
X625958Y418491D01*
X626364Y419304D01*
X626770Y419710D01*
X627584Y420116D01*
X629210Y420116D01*
X630022Y419710D01*
X630428Y419304D01*
X630835Y418491D01*
X630835Y417678D01*
X630428Y416865D01*
X629616Y415646D01*
X625552Y411608D01*
X631242Y411608D01*
G54D11*
X638556Y420116D02*
X634492Y420116D01*
X634086Y416459D01*
X634492Y416865D01*
X635712Y417271D01*
X636931Y417271D01*
X638150Y416865D01*
X638962Y416052D01*
X639369Y414833D01*
X639369Y414020D01*
X638962Y412801D01*
X638150Y412014D01*
X636931Y411608D01*
X635712Y411608D01*
X634492Y412014D01*
X634086Y412421D01*
X633680Y413207D01*
G54D11*
X647090Y418897D02*
X646684Y419710D01*
X645465Y420116D01*
X644652Y420116D01*
X643434Y419710D01*
X642620Y418491D01*
X642214Y416459D01*
X642214Y414426D01*
X642620Y412801D01*
X643434Y412014D01*
X644652Y411608D01*
X645058Y411608D01*
X646278Y412014D01*
X647090Y412801D01*
X647497Y414020D01*
X647497Y414426D01*
X647090Y415646D01*
X646278Y416459D01*
X645058Y416865D01*
X644652Y416865D01*
X643434Y416459D01*
X642620Y415646D01*
X642214Y414426D01*
G54D11*
X651155Y418491D02*
X651968Y418897D01*
X653186Y420116D01*
X653186Y411608D01*
G54D11*
X663347Y418897D02*
X662940Y419710D01*
X661721Y420116D01*
X660908Y420116D01*
X659689Y419710D01*
X658876Y418491D01*
X658470Y416459D01*
X658470Y414426D01*
X658876Y412801D01*
X659689Y412014D01*
X660908Y411608D01*
X661315Y411608D01*
X662534Y412014D01*
X663347Y412801D01*
X663754Y414020D01*
X663754Y414426D01*
X663347Y415646D01*
X662534Y416459D01*
X661315Y416865D01*
X660908Y416865D01*
X659689Y416459D01*
X658876Y415646D01*
X658470Y414426D01*
G54D11*
X584124Y403885D02*
X584124Y395351D01*
G54D11*
X592659Y402666D02*
X591846Y403479D01*
X590626Y403885D01*
X589001Y403885D01*
X587782Y403479D01*
X586969Y402666D01*
X586969Y401853D01*
X587375Y401041D01*
X587782Y400635D01*
X588594Y400229D01*
X591033Y399416D01*
X591846Y399009D01*
X592252Y398603D01*
X592659Y397790D01*
X592659Y396571D01*
X591846Y395758D01*
X590626Y395351D01*
X589001Y395351D01*
X587782Y395758D01*
X586969Y396571D01*
G54D11*
X600354Y402666D02*
X599948Y403479D01*
X598729Y403885D01*
X597916Y403885D01*
X596722Y403479D01*
X595910Y402260D01*
X595504Y400229D01*
X595504Y398196D01*
X595910Y396571D01*
X596722Y395758D01*
X597916Y395351D01*
X598322Y395351D01*
X599542Y395758D01*
X600354Y396571D01*
X600761Y397790D01*
X600761Y398196D01*
X600354Y399416D01*
X599542Y400229D01*
X598322Y400635D01*
X597916Y400635D01*
X596722Y400229D01*
X595910Y399416D01*
X595504Y398196D01*
G54D11*
X604419Y402260D02*
X605232Y402666D01*
X606450Y403885D01*
X606450Y395351D01*
G54D11*
X610922Y403885D02*
X612953Y395351D01*
X614985Y403885D01*
X617018Y395351D01*
X619049Y403885D01*
G54D11*
X620268Y403885D02*
X623520Y395351D01*
X626770Y403885D01*
G54D11*
X633273Y403885D02*
X629210Y403885D01*
X628803Y400229D01*
X629210Y400635D01*
X630428Y401041D01*
X631648Y401041D01*
X632866Y400635D01*
X633680Y399822D01*
X634086Y398603D01*
X634086Y397790D01*
X633680Y396571D01*
X632866Y395758D01*
X631648Y395351D01*
X630428Y395351D01*
X629210Y395758D01*
X628803Y396164D01*
X628396Y396977D01*
G54D11*
X637744Y402260D02*
X638556Y402666D01*
X639776Y403885D01*
X639776Y395351D01*
G54D11*
X645058Y401853D02*
X645058Y402260D01*
X645465Y403073D01*
X645872Y403479D01*
X646684Y403885D01*
X648310Y403885D01*
X649123Y403479D01*
X649530Y403073D01*
X649936Y402260D01*
X649936Y401447D01*
X649530Y400635D01*
X648716Y399416D01*
X644652Y395351D01*
X650342Y395351D01*
G54D11*
X654000Y402260D02*
X654812Y402666D01*
X656032Y403885D01*
X656032Y395351D01*
G54D11*
X666166Y402666D02*
X665785Y403479D01*
X664566Y403885D01*
X663754Y403885D01*
X662534Y403479D01*
X661721Y402260D01*
X661315Y400229D01*
X661315Y398196D01*
X661721Y396571D01*
X662534Y395758D01*
X663754Y395351D01*
X664160Y395351D01*
X665378Y395758D01*
X666166Y396571D01*
X666572Y397790D01*
X666572Y398196D01*
X666166Y399416D01*
X665378Y400229D01*
X664160Y400635D01*
X663754Y400635D01*
X662534Y400229D01*
X661721Y399416D01*
X661315Y398196D01*
G54D11*
X786258Y499390D02*
X786258Y507975D01*
X783006Y499390D01*
X779730Y507975D01*
X779730Y499390D01*
G54D11*
X793217Y507975D02*
X791592Y507975D01*
X790778Y507569D01*
X789940Y506756D01*
X789534Y505943D01*
X789128Y504698D01*
X789128Y502666D01*
X789534Y501422D01*
X789940Y500609D01*
X790778Y499796D01*
X791592Y499390D01*
X793217Y499390D01*
X794030Y499796D01*
X794868Y500609D01*
X795274Y501422D01*
X795681Y502666D01*
X795681Y504698D01*
X795274Y505943D01*
X794868Y506756D01*
X794030Y507569D01*
X793217Y507975D01*
G54D11*
X801396Y507975D02*
X798526Y507975D01*
X798526Y499390D01*
X801396Y499390D01*
X802615Y499796D01*
X803453Y500609D01*
X803860Y501422D01*
X804266Y502666D01*
X804266Y504698D01*
X803860Y505943D01*
X803453Y506756D01*
X802615Y507569D01*
X801396Y507975D01*
G54D11*
X812445Y507975D02*
X807111Y507975D01*
X807111Y499390D01*
X812445Y499390D01*
G54D11*
X807111Y503886D02*
X810388Y503886D01*
G54D11*
X785038Y490500D02*
X784226Y491312D01*
X783006Y491719D01*
X781355Y491719D01*
X780136Y491312D01*
X779324Y490500D01*
X779324Y489687D01*
X779730Y488874D01*
X780136Y488442D01*
X780948Y488036D01*
X783412Y487223D01*
X784226Y486817D01*
X784632Y486410D01*
X785038Y485597D01*
X785038Y484353D01*
X784226Y483540D01*
X783006Y483133D01*
X781355Y483133D01*
X780136Y483540D01*
X779324Y484353D01*
G54D11*
X793217Y491719D02*
X787908Y491719D01*
X787908Y483133D01*
X793217Y483133D01*
G54D11*
X787908Y487629D02*
X791185Y487629D01*
G54D11*
X795681Y491719D02*
X795681Y483133D01*
X800583Y483133D01*
G54D11*
X807949Y491719D02*
X802615Y491719D01*
X802615Y483133D01*
X807949Y483133D01*
G54D11*
X802615Y487629D02*
X805892Y487629D01*
G54D11*
X816128Y489687D02*
X815722Y490500D01*
X814883Y491312D01*
X814070Y491719D01*
X812445Y491719D01*
X811632Y491312D01*
X810794Y490500D01*
X810388Y489687D01*
X809981Y488442D01*
X809981Y486410D01*
X810388Y485191D01*
X810794Y484353D01*
X811632Y483540D01*
X812445Y483133D01*
X814070Y483133D01*
X814883Y483540D01*
X815722Y484353D01*
X816128Y485191D01*
G54D11*
X820624Y491719D02*
X820624Y483133D01*
G54D11*
X817754Y491719D02*
X823468Y491719D01*
G54D11*
X829209Y491719D02*
X827558Y491719D01*
X826745Y491312D01*
X825932Y490500D01*
X825526Y489687D01*
X825120Y488442D01*
X825120Y486410D01*
X825526Y485191D01*
X825932Y484353D01*
X826745Y483540D01*
X827558Y483133D01*
X829209Y483133D01*
X830022Y483540D01*
X830834Y484353D01*
X831240Y485191D01*
X831647Y486410D01*
X831647Y488442D01*
X831240Y489687D01*
X830834Y490500D01*
X830022Y491312D01*
X829209Y491719D01*
G54D11*
X834518Y487629D02*
X838200Y487629D01*
X839420Y488036D01*
X839826Y488442D01*
X840232Y489280D01*
X840232Y490093D01*
X839826Y490906D01*
X839420Y491312D01*
X838200Y491719D01*
X834518Y491719D01*
X834518Y483133D01*
G54D11*
X837388Y487629D02*
X840232Y483133D01*
G54D11*
X680060Y504724D02*
X683311Y496190D01*
X686562Y504724D01*
G54D11*
X688594Y504724D02*
X688594Y496190D01*
G54D11*
X694690Y504724D02*
X691846Y504724D01*
X691846Y496190D01*
X694690Y496190D01*
X695910Y496596D01*
X696722Y497409D01*
X697128Y498222D01*
X697535Y499441D01*
X697535Y501472D01*
X697128Y502692D01*
X696722Y503504D01*
X695910Y504317D01*
X694690Y504724D01*
G54D11*
X705663Y504724D02*
X700380Y504724D01*
X700380Y496190D01*
X705663Y496190D01*
G54D11*
X700380Y500659D02*
X703631Y500659D01*
G54D11*
X711759Y504724D02*
X710134Y504724D01*
X709321Y504317D01*
X708508Y503504D01*
X708102Y502692D01*
X707696Y501472D01*
X707696Y499441D01*
X708102Y498222D01*
X708508Y497409D01*
X709321Y496596D01*
X710134Y496190D01*
X711759Y496190D01*
X712572Y496596D01*
X713385Y497409D01*
X713791Y498222D01*
X714198Y499441D01*
X714198Y501472D01*
X713791Y502692D01*
X713385Y503504D01*
X712572Y504317D01*
X711759Y504724D01*
G54D11*
X681280Y484429D02*
X684936Y484429D01*
X686156Y484836D01*
X686562Y485242D01*
X686969Y486055D01*
X686969Y486868D01*
X686562Y487681D01*
X686156Y488087D01*
X684936Y488494D01*
X681280Y488494D01*
X681280Y479959D01*
G54D11*
X684124Y484429D02*
X686969Y479959D01*
G54D11*
X695097Y479959D02*
X691846Y488494D01*
X688594Y479959D01*
G54D11*
X689814Y482804D02*
X693878Y482804D01*
G54D11*
X703631Y479959D02*
X703631Y488494D01*
X700380Y479959D01*
X697128Y488494D01*
X697128Y479959D01*
G54D11*
X844093Y537897D02*
X844931Y538303D01*
X846176Y539573D01*
X846176Y530810D01*
G54D11*
X851586Y539573D02*
X851586Y530810D01*
G54D11*
X857403Y539573D02*
X851586Y533730D01*
G54D11*
X853669Y535813D02*
X857403Y530810D01*
G54D11*
X768300Y531369D02*
X767868Y532207D01*
X767030Y533070D01*
X766166Y533502D01*
X764464Y533502D01*
X763626Y533070D01*
X762762Y532207D01*
X762330Y531369D01*
X761899Y530073D01*
X761899Y527940D01*
X762330Y526670D01*
X762762Y525806D01*
X763626Y524968D01*
X764464Y524536D01*
X766166Y524536D01*
X767030Y524968D01*
X767868Y525806D01*
X768300Y526670D01*
G54D11*
X815874Y645059D02*
X819988Y653644D01*
X814248Y653644D01*
G54D11*
X826516Y645059D02*
X826516Y653644D01*
X822427Y647929D01*
X828574Y647929D01*
G54D11*
X831012Y653644D02*
X831012Y645059D01*
G54D11*
X836752Y653644D02*
X836752Y645059D01*
G54D11*
X831012Y649554D02*
X836752Y649554D01*
G54D11*
X845744Y651612D02*
X845338Y652424D01*
X844525Y653237D01*
X843712Y653644D01*
X842061Y653644D01*
X841248Y653237D01*
X840436Y652424D01*
X840030Y651612D01*
X839623Y650393D01*
X839623Y648336D01*
X840030Y647117D01*
X840436Y646304D01*
X841248Y645466D01*
X842061Y645059D01*
X843712Y645059D01*
X844525Y645466D01*
X845338Y646304D01*
X845744Y647117D01*
G54D11*
X853110Y653644D02*
X849020Y653644D01*
X848614Y649987D01*
X849020Y650393D01*
X850240Y650800D01*
X851484Y650800D01*
X852704Y650393D01*
X853516Y649554D01*
X853923Y648336D01*
X853923Y647523D01*
X853516Y646304D01*
X852704Y645466D01*
X851484Y645059D01*
X850240Y645059D01*
X849020Y645466D01*
X848614Y645872D01*
X848208Y646710D01*
G54D11*
X861289Y652424D02*
X861695Y650800D01*
X861289Y649554D01*
X860476Y648742D01*
X859257Y648336D01*
X858850Y648336D01*
X857606Y648742D01*
X856794Y649554D01*
X856387Y650800D01*
X856387Y651206D01*
X856794Y652424D01*
X857606Y653237D01*
X858850Y653644D01*
X859257Y653644D01*
X860476Y653237D01*
X861289Y652424D01*
G54D11*
X861695Y650800D02*
X861695Y648742D01*
X861289Y646710D01*
X860476Y645466D01*
X859257Y645059D01*
X858444Y645059D01*
X857200Y645466D01*
X856794Y646304D01*
G54D11*
X869468Y653644D02*
X865378Y653644D01*
X864972Y649987D01*
X865378Y650393D01*
X866623Y650800D01*
X867842Y650800D01*
X869062Y650393D01*
X869900Y649554D01*
X870306Y648336D01*
X870306Y647523D01*
X869900Y646304D01*
X869062Y645466D01*
X867842Y645059D01*
X866623Y645059D01*
X865378Y645466D01*
X864972Y645872D01*
X864566Y646710D01*
G54D11*
X675336Y767868D02*
X675336Y776479D01*
X671221Y770738D01*
X677368Y770738D01*
G54D11*
X684759Y773608D02*
X689280Y767868D01*
G54D11*
X689280Y773608D02*
X684759Y767868D01*
G54D11*
X697891Y776479D02*
X702412Y776479D01*
X699948Y773202D01*
X701167Y773202D01*
X701980Y772795D01*
X702412Y772389D01*
X702818Y771144D01*
X702818Y770332D01*
X702412Y769112D01*
X701574Y768274D01*
X700355Y767868D01*
X699110Y767868D01*
X697891Y768274D01*
X697484Y768706D01*
X697078Y769519D01*
G54D11*
X706095Y776479D02*
X710616Y776479D01*
X708152Y773202D01*
X709372Y773202D01*
X710184Y772795D01*
X710616Y772389D01*
X711022Y771144D01*
X711022Y770332D01*
X710616Y769112D01*
X709778Y768274D01*
X708558Y767868D01*
X707314Y767868D01*
X706095Y768274D01*
X705688Y768706D01*
X705282Y769519D01*
G54D10*
X641579Y832714D02*
X755879Y832714D01*
G54D11*
X917093Y347270D02*
X917906Y347701D01*
X919150Y348921D01*
X919150Y340285D01*
G54D11*
X927380Y348921D02*
X926542Y348921D01*
X925322Y348514D01*
X924484Y347270D01*
X924078Y345212D01*
X924078Y343993D01*
X924484Y341936D01*
X925322Y340691D01*
X926542Y340285D01*
X927380Y340285D01*
X928599Y340691D01*
X929437Y341936D01*
X929844Y343993D01*
X929844Y345212D01*
X929437Y347270D01*
X928599Y348514D01*
X927380Y348921D01*
G54D11*
X929437Y347270D02*
X924484Y341936D01*
G54D11*
X932714Y346050D02*
X932714Y341936D01*
X933146Y340691D01*
X933958Y340285D01*
X935203Y340285D01*
X936016Y340691D01*
X937260Y341936D01*
G54D11*
X937260Y346050D02*
X937260Y340285D01*
G54D11*
X945896Y348921D02*
X940537Y348921D01*
X940537Y340285D01*
G54D11*
X940537Y344806D02*
X943839Y344806D01*
G54D11*
X920268Y566395D02*
X921106Y566802D01*
X922350Y568046D01*
X922350Y559385D01*
G54D11*
X930606Y568046D02*
X929768Y568046D01*
X928523Y567640D01*
X927710Y566395D01*
X927304Y564338D01*
X927304Y563093D01*
X927710Y561036D01*
X928523Y559791D01*
X929768Y559385D01*
X930606Y559385D01*
X931850Y559791D01*
X932663Y561036D01*
X933070Y563093D01*
X933070Y564338D01*
X932663Y566395D01*
X931850Y567640D01*
X930606Y568046D01*
G54D11*
X932663Y566395D02*
X927710Y561036D01*
G54D11*
X935965Y568046D02*
X935965Y559385D01*
G54D11*
X941756Y568046D02*
X935965Y562255D01*
G54D11*
X938022Y564338D02*
X941756Y559385D01*
G54D12*
X924154Y586639D02*
X917804Y586639D01*
G54D11*
X150775Y123521D02*
X150775Y127991D01*
X154026Y125553D01*
X154026Y126771D01*
X154432Y127584D01*
X154838Y127991D01*
X156058Y128397D01*
X156871Y128397D01*
X158090Y127991D01*
X158903Y127178D01*
X159310Y125959D01*
X159310Y124740D01*
X158903Y123521D01*
X158496Y123115D01*
X157684Y122708D01*
G54D11*
X150775Y134087D02*
X150775Y133274D01*
X151182Y132055D01*
X152400Y131242D01*
X154432Y130836D01*
X155652Y130836D01*
X157684Y131242D01*
X158903Y132055D01*
X159310Y133274D01*
X159310Y134087D01*
X158903Y135306D01*
X157684Y136119D01*
X155652Y136526D01*
X154432Y136526D01*
X152400Y136119D01*
X151182Y135306D01*
X150775Y134087D01*
G54D11*
X152400Y136119D02*
X157684Y131242D01*
G54D11*
X150775Y142215D02*
X150775Y141402D01*
X151182Y140183D01*
X152400Y139370D01*
X154432Y138964D01*
X155652Y138964D01*
X157684Y139370D01*
X158903Y140183D01*
X159310Y141402D01*
X159310Y142215D01*
X158903Y143434D01*
X157684Y144247D01*
X155652Y144653D01*
X154432Y144653D01*
X152400Y144247D01*
X151182Y143434D01*
X150775Y142215D01*
G54D11*
X152400Y144247D02*
X157684Y139370D01*
G54D11*
X145898Y206528D02*
X145492Y207340D01*
X144247Y208585D01*
X152908Y208585D01*
G54D11*
X152502Y214757D02*
X152070Y214351D01*
X152502Y213944D01*
X152908Y214351D01*
X152502Y214757D01*
G54D11*
X144247Y221362D02*
X144247Y219711D01*
X144653Y218465D01*
X145492Y218059D01*
X146304Y218059D01*
X147142Y218465D01*
X147549Y219304D01*
X147956Y220955D01*
X148362Y222175D01*
X149200Y223013D01*
X150013Y223419D01*
X151258Y223419D01*
X152070Y223013D01*
X152502Y222606D01*
X152908Y221362D01*
X152908Y219711D01*
X152502Y218465D01*
X152070Y218059D01*
X151258Y217653D01*
X150013Y217653D01*
X149200Y218059D01*
X148362Y218898D01*
X147956Y220117D01*
X147549Y221768D01*
X147142Y222606D01*
X146304Y223013D01*
X145492Y223013D01*
X144653Y222606D01*
X144247Y221362D01*
G54D11*
X144247Y226315D02*
X152908Y226315D01*
G54D11*
X144247Y232080D02*
X150013Y226315D01*
G54D11*
X147956Y228372D02*
X152908Y232080D01*
G54D11*
X212242Y671170D02*
X213081Y671576D01*
X214300Y672821D01*
X214300Y664134D01*
G54D11*
X222580Y672821D02*
X221742Y672821D01*
X220498Y672414D01*
X219685Y671170D01*
X219254Y669087D01*
X219254Y667868D01*
X219685Y665785D01*
X220498Y664566D01*
X221742Y664134D01*
X222580Y664134D01*
X223800Y664566D01*
X224638Y665785D01*
X225044Y667868D01*
X225044Y669087D01*
X224638Y671170D01*
X223800Y672414D01*
X222580Y672821D01*
G54D11*
X224638Y671170D02*
X219685Y665785D01*
G54D11*
X227940Y672821D02*
X227940Y664134D01*
G54D11*
X233731Y672821D02*
X227940Y667030D01*
G54D11*
X229998Y669087D02*
X233731Y664134D01*
G54D11*
X386055Y283490D02*
X386055Y283897D01*
X386487Y284735D01*
X386894Y285141D01*
X387732Y285573D01*
X389382Y285573D01*
X390220Y285141D01*
X390652Y284735D01*
X391058Y283897D01*
X391058Y283058D01*
X390652Y282220D01*
X389814Y280975D01*
X385648Y276810D01*
X391465Y276810D01*
G54D11*
X394386Y285573D02*
X394386Y276810D01*
G54D11*
X400228Y285573D02*
X394386Y279730D01*
G54D11*
X396469Y281813D02*
X400228Y276810D01*
G54D11*
X437210Y285268D02*
X441681Y285268D01*
X439243Y282017D01*
X440462Y282017D01*
X441274Y281610D01*
X441681Y281204D01*
X442088Y279985D01*
X442088Y279172D01*
X441681Y277952D01*
X440868Y277140D01*
X439649Y276733D01*
X438430Y276733D01*
X437210Y277140D01*
X436804Y277546D01*
X436398Y278359D01*
G54D11*
X447777Y285268D02*
X446964Y285268D01*
X445745Y284862D01*
X444932Y283643D01*
X444526Y281610D01*
X444526Y280391D01*
X444932Y278359D01*
X445745Y277140D01*
X446964Y276733D01*
X447777Y276733D01*
X448996Y277140D01*
X449809Y278359D01*
X450216Y280391D01*
X450216Y281610D01*
X449809Y283643D01*
X448996Y284862D01*
X447777Y285268D01*
G54D11*
X449809Y283643D02*
X444932Y278359D01*
G54D11*
X455905Y285268D02*
X455092Y285268D01*
X453873Y284862D01*
X453060Y283643D01*
X452654Y281610D01*
X452654Y280391D01*
X453060Y278359D01*
X453873Y277140D01*
X455092Y276733D01*
X455905Y276733D01*
X457124Y277140D01*
X457937Y278359D01*
X458344Y280391D01*
X458344Y281610D01*
X457937Y283643D01*
X457124Y284862D01*
X455905Y285268D01*
G54D11*
X457937Y283643D02*
X453060Y278359D01*
G54D11*
X366980Y142469D02*
X366980Y136347D01*
X367386Y135103D01*
X368198Y134290D01*
X369418Y133883D01*
X370256Y133883D01*
X371476Y134290D01*
X372288Y135103D01*
X372694Y136347D01*
X372694Y142469D01*
G54D11*
X381280Y141250D02*
X380467Y142062D01*
X379248Y142469D01*
X377597Y142469D01*
X376378Y142062D01*
X375565Y141250D01*
X375565Y140437D01*
X375971Y139624D01*
X376378Y139192D01*
X377190Y138786D01*
X379654Y137973D01*
X380467Y137567D01*
X380874Y137160D01*
X381280Y136347D01*
X381280Y135103D01*
X380467Y134290D01*
X379248Y133883D01*
X377597Y133883D01*
X376378Y134290D01*
X375565Y135103D01*
G54D11*
X387833Y142469D02*
X384150Y142469D01*
X384150Y133883D01*
X387833Y133883D01*
X389052Y134290D01*
X389458Y134696D01*
X389865Y135534D01*
X389865Y136754D01*
X389458Y137567D01*
X389052Y137973D01*
X387833Y138379D01*
X389052Y138786D01*
X389458Y139192D01*
X389865Y140030D01*
X389865Y140843D01*
X389458Y141656D01*
X389052Y142062D01*
X387833Y142469D01*
G54D11*
X384150Y138379D02*
X387833Y138379D01*
G54D11*
X398044Y142469D02*
X398044Y136347D01*
X398476Y135103D01*
X399288Y134290D01*
X400508Y133883D01*
X401320Y133883D01*
X402565Y134290D01*
X403378Y135103D01*
X403784Y136347D01*
X403784Y142469D01*
G54D11*
X412370Y133883D02*
X409093Y142469D01*
X405816Y133883D01*
G54D11*
X407060Y136754D02*
X411150Y136754D01*
G54D11*
X414402Y138379D02*
X418084Y138379D01*
X419329Y138786D01*
X419736Y139192D01*
X420142Y140030D01*
X420142Y140843D01*
X419736Y141656D01*
X419329Y142062D01*
X418084Y142469D01*
X414402Y142469D01*
X414402Y133883D01*
G54D11*
X417272Y138379D02*
X420142Y133883D01*
G54D11*
X424638Y142469D02*
X424638Y133883D01*
G54D11*
X421768Y142469D02*
X427508Y142469D01*
G54D11*
X537236Y212243D02*
X541706Y212243D01*
X539268Y208991D01*
X540487Y208991D01*
X541300Y208585D01*
X541706Y208179D01*
X542112Y206959D01*
X542112Y206146D01*
X541706Y204928D01*
X540894Y204115D01*
X539674Y203709D01*
X538455Y203709D01*
X537236Y204115D01*
X536830Y204522D01*
X536423Y205334D01*
G54D11*
X545364Y212243D02*
X549834Y212243D01*
X547396Y208991D01*
X548615Y208991D01*
X549428Y208585D01*
X549834Y208179D01*
X550240Y206959D01*
X550240Y206146D01*
X549834Y204928D01*
X549022Y204115D01*
X547802Y203709D01*
X546583Y203709D01*
X545364Y204115D01*
X544958Y204522D01*
X544551Y205334D01*
G54D11*
X462610Y212243D02*
X467081Y212243D01*
X464642Y208991D01*
X465862Y208991D01*
X466675Y208585D01*
X467081Y208179D01*
X467487Y206959D01*
X467487Y206146D01*
X467081Y204928D01*
X466268Y204115D01*
X465049Y203709D01*
X463830Y203709D01*
X462610Y204115D01*
X462204Y204522D01*
X461798Y205334D01*
G54D11*
X470738Y212243D02*
X475209Y212243D01*
X472771Y208991D01*
X473990Y208991D01*
X474802Y208585D01*
X475209Y208179D01*
X475616Y206959D01*
X475616Y206146D01*
X475209Y204928D01*
X474396Y204115D01*
X473177Y203709D01*
X471958Y203709D01*
X470738Y204115D01*
X470332Y204522D01*
X469926Y205334D01*
G54D10*
X384404Y988289D02*
X384404Y880339D01*
G54D11*
X751942Y280493D02*
X752754Y280899D01*
X753974Y282119D01*
X753974Y273584D01*
G54D11*
X760070Y273990D02*
X759664Y274396D01*
X759257Y273990D01*
X759664Y273584D01*
X760070Y273990D01*
G54D11*
X763322Y280086D02*
X763322Y280493D01*
X763728Y281306D01*
X764134Y281712D01*
X764947Y282119D01*
X766572Y282119D01*
X767385Y281712D01*
X767792Y281306D01*
X768198Y280493D01*
X768198Y279680D01*
X767792Y278867D01*
X766978Y277648D01*
X762915Y273584D01*
X768604Y273584D01*
G54D11*
X770230Y282119D02*
X773481Y273584D01*
X776732Y282119D01*
G54D11*
X732232Y289433D02*
X732232Y297967D01*
X728980Y289433D01*
X725729Y297967D01*
X725729Y289433D01*
G54D11*
X740766Y289433D02*
X737515Y297967D01*
X734264Y289433D01*
G54D11*
X735483Y292278D02*
X739546Y292278D01*
G54D11*
X741579Y297967D02*
X744830Y293904D01*
X744830Y289433D01*
G54D11*
X748081Y297967D02*
X744830Y293904D01*
G54D11*
X759054Y297967D02*
X755396Y297967D01*
X755396Y289433D01*
X759054Y289433D01*
X760273Y289840D01*
X760680Y290246D01*
X761086Y291059D01*
X761086Y292278D01*
X760680Y293091D01*
X760273Y293498D01*
X759054Y293904D01*
X760273Y294311D01*
X760680Y294717D01*
X761086Y295530D01*
X761086Y296342D01*
X760680Y297155D01*
X760273Y297561D01*
X759054Y297967D01*
G54D11*
X755396Y293904D02*
X759054Y293904D01*
G54D11*
X769214Y297967D02*
X763931Y297967D01*
X763931Y289433D01*
X769214Y289433D01*
G54D11*
X763931Y293904D02*
X767182Y293904D01*
G54D11*
X776936Y297967D02*
X776936Y289433D01*
G54D11*
X782626Y297967D02*
X782626Y289433D01*
G54D11*
X776936Y293904D02*
X782626Y293904D01*
G54D11*
X789534Y297967D02*
X787908Y297967D01*
X787096Y297561D01*
X786282Y296748D01*
X785876Y295936D01*
X785470Y294717D01*
X785470Y292685D01*
X785876Y291466D01*
X786282Y290653D01*
X787096Y289840D01*
X787908Y289433D01*
X789534Y289433D01*
X790347Y289840D01*
X791160Y290653D01*
X791566Y291466D01*
X791972Y292685D01*
X791972Y294717D01*
X791566Y295936D01*
X791160Y296748D01*
X790347Y297561D01*
X789534Y297967D01*
G54D11*
X796417Y297967D02*
X796417Y289433D01*
G54D11*
X793572Y297967D02*
X799262Y297967D01*
G54D11*
X844931Y442799D02*
X844525Y443612D01*
X843306Y444018D01*
X842493Y444018D01*
X841274Y443612D01*
X840461Y442393D01*
X840054Y440360D01*
X840054Y438328D01*
X840461Y436702D01*
X841274Y435890D01*
X842493Y435483D01*
X842900Y435483D01*
X844119Y435890D01*
X844931Y436702D01*
X845338Y437922D01*
X845338Y438328D01*
X844931Y439548D01*
X844119Y440360D01*
X842900Y440767D01*
X842493Y440767D01*
X841274Y440360D01*
X840461Y439548D01*
X840054Y438328D01*
G54D11*
X851434Y444018D02*
X849808Y444018D01*
X848589Y443612D01*
X848182Y442799D01*
X848182Y441986D01*
X848589Y441173D01*
X849402Y440767D01*
X851028Y440360D01*
X852221Y439954D01*
X853034Y439141D01*
X853440Y438328D01*
X853440Y437109D01*
X853034Y436296D01*
X852628Y435890D01*
X851434Y435483D01*
X849808Y435483D01*
X848589Y435890D01*
X848182Y436296D01*
X847776Y437109D01*
X847776Y438328D01*
X848182Y439141D01*
X848996Y439954D01*
X850215Y440360D01*
X851840Y440767D01*
X852628Y441173D01*
X853034Y441986D01*
X853034Y442799D01*
X852628Y443612D01*
X851434Y444018D01*
G54D11*
X859130Y444018D02*
X858317Y444018D01*
X857098Y443612D01*
X856285Y442393D01*
X855878Y440360D01*
X855878Y439141D01*
X856285Y437109D01*
X857098Y435890D01*
X858317Y435483D01*
X859130Y435483D01*
X860350Y435890D01*
X861162Y437109D01*
X861568Y439141D01*
X861568Y440360D01*
X861162Y442393D01*
X860350Y443612D01*
X859130Y444018D01*
G54D11*
X861162Y442393D02*
X856285Y437109D01*
G54D11*
X595808Y651384D02*
X597840Y642849D01*
X599872Y651384D01*
X601904Y642849D01*
X603936Y651384D01*
G54D11*
X610845Y650164D02*
X611251Y648539D01*
X610845Y647319D01*
X610032Y646506D01*
X608813Y646100D01*
X608406Y646100D01*
X607188Y646506D01*
X606374Y647319D01*
X605968Y648539D01*
X605968Y648945D01*
X606374Y650164D01*
X607188Y650977D01*
X608406Y651384D01*
X608813Y651384D01*
X610032Y650977D01*
X610845Y650164D01*
G54D11*
X611251Y648539D02*
X611251Y646506D01*
X610845Y644474D01*
X610032Y643255D01*
X608813Y642849D01*
X608000Y642849D01*
X606781Y643255D01*
X606374Y644068D01*
G54D11*
X617754Y651384D02*
X616128Y651384D01*
X614909Y650977D01*
X614502Y650164D01*
X614502Y649351D01*
X614909Y648539D01*
X615722Y648132D01*
X617347Y647726D01*
X618541Y647319D01*
X619354Y646506D01*
X619760Y645694D01*
X619760Y644474D01*
X619354Y643661D01*
X618948Y643255D01*
X617754Y642849D01*
X616128Y642849D01*
X614909Y643255D01*
X614502Y643661D01*
X614096Y644474D01*
X614096Y645694D01*
X614502Y646506D01*
X615316Y647319D01*
X616535Y647726D01*
X618160Y648132D01*
X618948Y648539D01*
X619354Y649351D01*
X619354Y650164D01*
X618948Y650977D01*
X617754Y651384D01*
G54D11*
X623418Y649758D02*
X624231Y650164D01*
X625450Y651384D01*
X625450Y642849D01*
G54D11*
X630733Y649351D02*
X630733Y649758D01*
X631140Y650571D01*
X631546Y650977D01*
X632359Y651384D01*
X633984Y651384D01*
X634797Y650977D01*
X635204Y650571D01*
X635610Y649758D01*
X635610Y648945D01*
X635204Y648132D01*
X634391Y646913D01*
X630326Y642849D01*
X636016Y642849D01*
G54D11*
X644551Y649351D02*
X644144Y650164D01*
X643332Y650977D01*
X642518Y651384D01*
X640894Y651384D01*
X640080Y650977D01*
X639268Y650164D01*
X638862Y649351D01*
X638455Y648132D01*
X638455Y646100D01*
X638862Y644881D01*
X639268Y644068D01*
X640080Y643255D01*
X640894Y642849D01*
X642518Y642849D01*
X643332Y643255D01*
X644144Y644068D01*
X644551Y644881D01*
X644551Y646100D01*
X642518Y646100D01*
G54D11*
X652272Y650164D02*
X651866Y650977D01*
X650646Y651384D01*
X649834Y651384D01*
X648614Y650977D01*
X647802Y649758D01*
X647396Y647726D01*
X647396Y645694D01*
X647802Y644068D01*
X648614Y643255D01*
X649834Y642849D01*
X650240Y642849D01*
X651460Y643255D01*
X652272Y644068D01*
X652679Y645287D01*
X652679Y645694D01*
X652272Y646913D01*
X651460Y647726D01*
X650240Y648132D01*
X649834Y648132D01*
X648614Y647726D01*
X647802Y646913D01*
X647396Y645694D01*
G54D11*
X658775Y651384D02*
X658775Y644881D01*
X658368Y643661D01*
X657962Y643255D01*
X657149Y642849D01*
X656336Y642849D01*
X655524Y643255D01*
X655117Y643661D01*
X654711Y644881D01*
X654711Y645694D01*
G54D11*
X662026Y651384D02*
X662026Y642849D01*
G54D11*
X667716Y651384D02*
X667716Y642849D01*
G54D11*
X662026Y647319D02*
X667716Y647319D01*
G54D11*
X595808Y635127D02*
X597840Y626593D01*
X599872Y635127D01*
X601904Y626593D01*
X603936Y635127D01*
G54D11*
X610845Y633908D02*
X611251Y632282D01*
X610845Y631063D01*
X610032Y630250D01*
X608813Y629844D01*
X608406Y629844D01*
X607188Y630250D01*
X606374Y631063D01*
X605968Y632282D01*
X605968Y632689D01*
X606374Y633908D01*
X607188Y634721D01*
X608406Y635127D01*
X608813Y635127D01*
X610032Y634721D01*
X610845Y633908D01*
G54D11*
X611251Y632282D02*
X611251Y630250D01*
X610845Y628219D01*
X610032Y627000D01*
X608813Y626593D01*
X608000Y626593D01*
X606781Y627000D01*
X606374Y627813D01*
G54D11*
X617754Y635127D02*
X616128Y635127D01*
X614909Y634721D01*
X614502Y633908D01*
X614502Y633095D01*
X614909Y632282D01*
X615722Y631876D01*
X617347Y631470D01*
X618541Y631063D01*
X619354Y630250D01*
X619760Y629437D01*
X619760Y628219D01*
X619354Y627406D01*
X618948Y627000D01*
X617754Y626593D01*
X616128Y626593D01*
X614909Y627000D01*
X614502Y627406D01*
X614096Y628219D01*
X614096Y629437D01*
X614502Y630250D01*
X615316Y631063D01*
X616535Y631470D01*
X618160Y631876D01*
X618948Y632282D01*
X619354Y633095D01*
X619354Y633908D01*
X618948Y634721D01*
X617754Y635127D01*
G54D11*
X622605Y633095D02*
X622605Y633502D01*
X623012Y634315D01*
X623418Y634721D01*
X624231Y635127D01*
X625856Y635127D01*
X626670Y634721D01*
X627076Y634315D01*
X627482Y633502D01*
X627482Y632689D01*
X627076Y631876D01*
X626263Y630657D01*
X622198Y626593D01*
X627888Y626593D01*
G54D11*
X635204Y635127D02*
X631140Y635127D01*
X630733Y631470D01*
X631140Y631876D01*
X632359Y632282D01*
X633578Y632282D01*
X634797Y631876D01*
X635610Y631063D01*
X636016Y629844D01*
X636016Y629031D01*
X635610Y627813D01*
X634797Y627000D01*
X633578Y626593D01*
X632359Y626593D01*
X631140Y627000D01*
X630733Y627406D01*
X630326Y628219D01*
G54D11*
X644551Y633095D02*
X644144Y633908D01*
X643332Y634721D01*
X642518Y635127D01*
X640894Y635127D01*
X640080Y634721D01*
X639268Y633908D01*
X638862Y633095D01*
X638455Y631876D01*
X638455Y629844D01*
X638862Y628625D01*
X639268Y627813D01*
X640080Y627000D01*
X640894Y626593D01*
X642518Y626593D01*
X643332Y627000D01*
X644144Y627813D01*
X644551Y628625D01*
X644551Y629844D01*
X642518Y629844D01*
G54D11*
X652272Y633908D02*
X651866Y634721D01*
X650646Y635127D01*
X649834Y635127D01*
X648614Y634721D01*
X647802Y633502D01*
X647396Y631470D01*
X647396Y629437D01*
X647802Y627813D01*
X648614Y627000D01*
X649834Y626593D01*
X650240Y626593D01*
X651460Y627000D01*
X652272Y627813D01*
X652679Y629031D01*
X652679Y629437D01*
X652272Y630657D01*
X651460Y631470D01*
X650240Y631876D01*
X649834Y631876D01*
X648614Y631470D01*
X647802Y630657D01*
X647396Y629437D01*
G54D11*
X655524Y635127D02*
X655524Y626593D01*
G54D11*
X661214Y635127D02*
X655524Y629437D01*
G54D11*
X657556Y631470D02*
X661214Y626593D01*
G54D11*
X664058Y635127D02*
X664058Y626593D01*
G54D11*
X669748Y635127D02*
X669748Y626593D01*
G54D11*
X664058Y631063D02*
X669748Y631063D01*
G54D11*
X603124Y610337D02*
X603124Y618871D01*
X599872Y610337D01*
X596621Y618871D01*
X596621Y610337D01*
G54D11*
X608000Y618871D02*
X608000Y610337D01*
G54D11*
X605156Y618871D02*
X610845Y618871D01*
G54D11*
X616535Y610337D02*
X616535Y618871D01*
X612470Y613182D01*
X618541Y613182D01*
G54D11*
X624231Y618871D02*
X622605Y618871D01*
X621386Y618465D01*
X620980Y617652D01*
X620980Y616839D01*
X621386Y616026D01*
X622198Y615620D01*
X623824Y615214D01*
X625044Y614808D01*
X625856Y613995D01*
X626263Y613182D01*
X626263Y611963D01*
X625856Y611150D01*
X625450Y610744D01*
X624231Y610337D01*
X622605Y610337D01*
X621386Y610744D01*
X620980Y611150D01*
X620574Y611963D01*
X620574Y613182D01*
X620980Y613995D01*
X621792Y614808D01*
X623012Y615214D01*
X624637Y615620D01*
X625450Y616026D01*
X625856Y616839D01*
X625856Y617652D01*
X625450Y618465D01*
X624231Y618871D01*
G54D11*
X629108Y618871D02*
X629108Y610337D01*
X633984Y610337D01*
G54D11*
X641706Y616839D02*
X641300Y617652D01*
X640487Y618465D01*
X639674Y618871D01*
X638048Y618871D01*
X637236Y618465D01*
X636422Y617652D01*
X636016Y616839D01*
X635610Y615620D01*
X635610Y613589D01*
X636016Y612369D01*
X636422Y611556D01*
X637236Y610744D01*
X638048Y610337D01*
X639674Y610337D01*
X640487Y610744D01*
X641300Y611556D01*
X641706Y612369D01*
G54D11*
X649428Y617652D02*
X649021Y618465D01*
X647802Y618871D01*
X646990Y618871D01*
X645770Y618465D01*
X644957Y617245D01*
X644551Y615214D01*
X644551Y613182D01*
X644957Y611556D01*
X645770Y610744D01*
X646990Y610337D01*
X647396Y610337D01*
X648614Y610744D01*
X649428Y611556D01*
X649834Y612776D01*
X649834Y613182D01*
X649428Y614401D01*
X648614Y615214D01*
X647396Y615620D01*
X646990Y615620D01*
X645770Y615214D01*
X644957Y614401D01*
X644551Y613182D01*
G54D11*
X656336Y610337D02*
X656336Y618871D01*
X652272Y613182D01*
X658368Y613182D01*
G54D11*
X667310Y610337D02*
X667310Y618871D01*
X664058Y610337D01*
X660807Y618871D01*
X660807Y610337D01*
G54D11*
X674218Y610337D02*
X674218Y618871D01*
X670154Y613182D01*
X676250Y613182D01*
G54D11*
X683972Y610337D02*
X680720Y618871D01*
X677469Y610337D01*
G54D11*
X678688Y613182D02*
X682752Y613182D01*
G54D11*
X686004Y616839D02*
X686004Y617245D01*
X686410Y618058D01*
X686816Y618465D01*
X687604Y618871D01*
X689230Y618871D01*
X690042Y618465D01*
X690448Y618058D01*
X690855Y617245D01*
X690855Y616433D01*
X690448Y615620D01*
X689636Y614401D01*
X685598Y610337D01*
X691262Y610337D01*
G54D11*
X596621Y602615D02*
X596621Y594106D01*
G54D11*
X602310Y602615D02*
X596621Y596951D01*
G54D11*
X598653Y598958D02*
X602310Y594106D01*
G54D11*
X608813Y594106D02*
X608813Y602615D01*
X604749Y596951D01*
X610845Y596951D01*
G54D11*
X618541Y601397D02*
X617754Y602209D01*
X616535Y602615D01*
X614909Y602615D01*
X613690Y602209D01*
X612877Y601397D01*
X612877Y600584D01*
X613284Y599771D01*
X613690Y599365D01*
X614502Y598958D01*
X616941Y598145D01*
X617754Y597764D01*
X618160Y597358D01*
X618541Y596545D01*
X618541Y595325D01*
X617754Y594513D01*
X616535Y594106D01*
X614909Y594106D01*
X613690Y594513D01*
X612877Y595325D01*
G54D11*
X626263Y601397D02*
X625856Y602209D01*
X624637Y602615D01*
X623824Y602615D01*
X622605Y602209D01*
X621792Y600990D01*
X621386Y598958D01*
X621386Y596951D01*
X621792Y595325D01*
X622605Y594513D01*
X623824Y594106D01*
X624231Y594106D01*
X625450Y594513D01*
X626263Y595325D01*
X626670Y596545D01*
X626670Y596951D01*
X626263Y598145D01*
X625450Y598958D01*
X624231Y599365D01*
X623824Y599365D01*
X622605Y598958D01*
X621792Y598145D01*
X621386Y596951D01*
G54D11*
X633172Y594106D02*
X633172Y602615D01*
X629108Y596951D01*
X635204Y596951D01*
G54D11*
X638455Y600990D02*
X639268Y601397D01*
X640487Y602615D01*
X640487Y594106D01*
G54D11*
X650646Y601397D02*
X650240Y602209D01*
X649021Y602615D01*
X648208Y602615D01*
X646990Y602209D01*
X646176Y600990D01*
X645770Y598958D01*
X645770Y596951D01*
X646176Y595325D01*
X646990Y594513D01*
X648208Y594106D01*
X648614Y594106D01*
X649834Y594513D01*
X650646Y595325D01*
X651053Y596545D01*
X651053Y596951D01*
X650646Y598145D01*
X649834Y598958D01*
X648614Y599365D01*
X648208Y599365D01*
X646990Y598958D01*
X646176Y598145D01*
X645770Y596951D01*
G54D11*
X654304Y602615D02*
X658775Y602615D01*
X656336Y599365D01*
X657556Y599365D01*
X658368Y598958D01*
X658775Y598552D01*
X659182Y597358D01*
X659182Y596545D01*
X658775Y595325D01*
X657962Y594513D01*
X656742Y594106D01*
X655524Y594106D01*
X654304Y594513D01*
X653898Y594919D01*
X653492Y595732D01*
G54D11*
X662026Y600584D02*
X662026Y600990D01*
X662432Y601803D01*
X662838Y602209D01*
X663652Y602615D01*
X665277Y602615D01*
X666090Y602209D01*
X666496Y601803D01*
X666903Y600990D01*
X666903Y600177D01*
X666496Y599365D01*
X665684Y598145D01*
X661620Y594106D01*
X667310Y594106D01*
G54D11*
X670154Y602615D02*
X670154Y594106D01*
G54D11*
X675844Y602615D02*
X670154Y596951D01*
G54D11*
X672186Y598958D02*
X675844Y594106D01*
G54D11*
X596621Y586385D02*
X596621Y577850D01*
G54D11*
X602310Y586385D02*
X596621Y580695D01*
G54D11*
X598653Y582727D02*
X602310Y577850D01*
G54D11*
X608813Y577850D02*
X608813Y586385D01*
X604749Y580695D01*
X610845Y580695D01*
G54D11*
X618541Y585166D02*
X617754Y585979D01*
X616535Y586385D01*
X614909Y586385D01*
X613690Y585979D01*
X612877Y585166D01*
X612877Y584353D01*
X613284Y583540D01*
X613690Y583134D01*
X614502Y582727D01*
X616941Y581914D01*
X617754Y581508D01*
X618160Y581101D01*
X618541Y580288D01*
X618541Y579069D01*
X617754Y578256D01*
X616535Y577850D01*
X614909Y577850D01*
X613690Y578256D01*
X612877Y579069D01*
G54D11*
X625856Y586385D02*
X621792Y586385D01*
X621386Y582727D01*
X621792Y583134D01*
X623012Y583540D01*
X624231Y583540D01*
X625450Y583134D01*
X626263Y582321D01*
X626670Y581101D01*
X626670Y580288D01*
X626263Y579069D01*
X625450Y578256D01*
X624231Y577850D01*
X623012Y577850D01*
X621792Y578256D01*
X621386Y578663D01*
X620980Y579476D01*
G54D11*
X634391Y585166D02*
X633984Y585979D01*
X632766Y586385D01*
X631952Y586385D01*
X630733Y585979D01*
X629920Y584759D01*
X629514Y582727D01*
X629514Y580695D01*
X629920Y579069D01*
X630733Y578256D01*
X631952Y577850D01*
X632359Y577850D01*
X633578Y578256D01*
X634391Y579069D01*
X634797Y580288D01*
X634797Y580695D01*
X634391Y581914D01*
X633578Y582727D01*
X632359Y583134D01*
X631952Y583134D01*
X630733Y582727D01*
X629920Y581914D01*
X629514Y580695D01*
G54D11*
X638455Y584759D02*
X639268Y585166D01*
X640487Y586385D01*
X640487Y577850D01*
G54D11*
X650646Y585166D02*
X650240Y585979D01*
X649021Y586385D01*
X648208Y586385D01*
X646990Y585979D01*
X646176Y584759D01*
X645770Y582727D01*
X645770Y580695D01*
X646176Y579069D01*
X646990Y578256D01*
X648208Y577850D01*
X648614Y577850D01*
X649834Y578256D01*
X650646Y579069D01*
X651053Y580288D01*
X651053Y580695D01*
X650646Y581914D01*
X649834Y582727D01*
X648614Y583134D01*
X648208Y583134D01*
X646990Y582727D01*
X646176Y581914D01*
X645770Y580695D01*
G54D11*
X654304Y586385D02*
X658775Y586385D01*
X656336Y583134D01*
X657556Y583134D01*
X658368Y582727D01*
X658775Y582321D01*
X659182Y581101D01*
X659182Y580288D01*
X658775Y579069D01*
X657962Y578256D01*
X656742Y577850D01*
X655524Y577850D01*
X654304Y578256D01*
X653898Y578663D01*
X653492Y579476D01*
G54D11*
X662026Y584353D02*
X662026Y584759D01*
X662432Y585572D01*
X662838Y585979D01*
X663652Y586385D01*
X665277Y586385D01*
X666090Y585979D01*
X666496Y585572D01*
X666903Y584759D01*
X666903Y583946D01*
X666496Y583134D01*
X665684Y581914D01*
X661620Y577850D01*
X667310Y577850D01*
G54D11*
X670154Y586385D02*
X670154Y577850D01*
G54D11*
X675844Y586385D02*
X670154Y580695D01*
G54D11*
X672186Y582727D02*
X675844Y577850D01*
G54D11*
X838708Y784047D02*
X830098Y784047D01*
X835838Y779958D01*
X835838Y786105D01*
G54D11*
X832968Y793496D02*
X838708Y798017D01*
G54D11*
X832968Y798017D02*
X838708Y793496D01*
G54D11*
X830098Y806628D02*
X830098Y811124D01*
X833374Y808685D01*
X833374Y809905D01*
X833806Y810718D01*
X834212Y811124D01*
X835432Y811556D01*
X836270Y811556D01*
X837490Y811124D01*
X838302Y810311D01*
X838708Y809092D01*
X838708Y807847D01*
X838302Y806628D01*
X837896Y806222D01*
X837083Y805790D01*
G54D11*
X830098Y814832D02*
X830098Y819328D01*
X833374Y816890D01*
X833374Y818109D01*
X833806Y818922D01*
X834212Y819328D01*
X835432Y819760D01*
X836270Y819760D01*
X837490Y819328D01*
X838302Y818515D01*
X838708Y817296D01*
X838708Y816052D01*
X838302Y814832D01*
X837896Y814426D01*
X837083Y813994D01*
G54D12*
X586842Y984581D02*
X586842Y975513D01*
X587452Y973684D01*
X588646Y972490D01*
X590474Y971881D01*
X591668Y971881D01*
X593497Y972490D01*
X594690Y973684D01*
X595300Y975513D01*
X595300Y984581D01*
G54D12*
X608000Y982752D02*
X606806Y983971D01*
X604978Y984581D01*
X602564Y984581D01*
X600761Y983971D01*
X599542Y982752D01*
X599542Y981558D01*
X600152Y980339D01*
X600761Y979729D01*
X601955Y979120D01*
X605588Y977926D01*
X606806Y977316D01*
X607390Y976707D01*
X608000Y975513D01*
X608000Y973684D01*
X606806Y972490D01*
X604978Y971881D01*
X602564Y971881D01*
X600761Y972490D01*
X599542Y973684D01*
G54D12*
X617678Y984581D02*
X612242Y984581D01*
X612242Y971881D01*
X617678Y971881D01*
X619506Y972490D01*
X620116Y973074D01*
X620700Y974293D01*
X620700Y976097D01*
X620116Y977316D01*
X619506Y977926D01*
X617678Y978535D01*
X619506Y979120D01*
X620116Y979729D01*
X620700Y980948D01*
X620700Y982168D01*
X620116Y983362D01*
X619506Y983971D01*
X617678Y984581D01*
G54D12*
X612242Y978535D02*
X617678Y978535D01*
G54D12*
X588036Y958343D02*
X589255Y958952D01*
X591058Y960755D01*
X591058Y948056D01*
G54D12*
X598322Y949275D02*
X598932Y948665D01*
X598322Y948056D01*
X597714Y948665D01*
X598322Y949275D01*
G54D12*
X598932Y948665D02*
X598932Y947446D01*
X598322Y946252D01*
X597714Y945642D01*
G54D12*
X603784Y957732D02*
X603784Y958343D01*
X604368Y959562D01*
X604978Y960171D01*
X606197Y960755D01*
X608610Y960755D01*
X609829Y960171D01*
X610438Y959562D01*
X611023Y958343D01*
X611023Y957123D01*
X610438Y955929D01*
X609220Y954101D01*
X603174Y948056D01*
X611632Y948056D01*
G54D11*
X897611Y282119D02*
X902082Y282119D01*
X899643Y278867D01*
X900862Y278867D01*
X901675Y278461D01*
X902082Y278054D01*
X902488Y276835D01*
X902488Y276022D01*
X902082Y274803D01*
X901268Y273990D01*
X900050Y273584D01*
X898830Y273584D01*
X897611Y273990D01*
X897204Y274396D01*
X896798Y275209D01*
G54D11*
X906146Y273990D02*
X905739Y274396D01*
X905332Y273990D01*
X905739Y273584D01*
X906146Y273990D01*
G54D11*
X909778Y282119D02*
X914248Y282119D01*
X911810Y278867D01*
X913029Y278867D01*
X913842Y278461D01*
X914248Y278054D01*
X914654Y276835D01*
X914654Y276022D01*
X914248Y274803D01*
X913436Y273990D01*
X912216Y273584D01*
X910997Y273584D01*
X909778Y273990D01*
X909371Y274396D01*
X908990Y275209D01*
G54D11*
X916280Y282119D02*
X919532Y273584D01*
X922782Y282119D01*
G54D11*
X569799Y149505D02*
X568986Y150343D01*
X567742Y150750D01*
X566116Y150750D01*
X564896Y150343D01*
X564058Y149505D01*
X564058Y148692D01*
X564490Y147880D01*
X564896Y147473D01*
X565710Y147067D01*
X568173Y146229D01*
X568986Y145822D01*
X569392Y145416D01*
X569799Y144603D01*
X569799Y143384D01*
X568986Y142546D01*
X567742Y142139D01*
X566116Y142139D01*
X564896Y142546D01*
X564058Y143384D01*
G54D11*
X575539Y150750D02*
X572669Y150750D01*
X572669Y142139D01*
X575539Y142139D01*
X576758Y142546D01*
X577571Y143384D01*
X577978Y144196D01*
X578384Y145416D01*
X578384Y147473D01*
X577978Y148692D01*
X577571Y149505D01*
X576758Y150343D01*
X575539Y150750D01*
G54D11*
X592303Y148692D02*
X591897Y149505D01*
X591084Y150343D01*
X590271Y150750D01*
X588620Y150750D01*
X587808Y150343D01*
X586994Y149505D01*
X586588Y148692D01*
X586182Y147473D01*
X586182Y145416D01*
X586588Y144196D01*
X586994Y143384D01*
X587808Y142546D01*
X588620Y142139D01*
X590271Y142139D01*
X591084Y142546D01*
X591897Y143384D01*
X592303Y144196D01*
G54D11*
X600507Y142139D02*
X597230Y150750D01*
X593954Y142139D01*
G54D11*
X595173Y145009D02*
X599262Y145009D01*
G54D11*
X602539Y146660D02*
X606222Y146660D01*
X607442Y147067D01*
X607873Y147473D01*
X608280Y148286D01*
X608280Y149099D01*
X607873Y149911D01*
X607442Y150343D01*
X606222Y150750D01*
X602539Y150750D01*
X602539Y142139D01*
G54D11*
X605410Y146660D02*
X608280Y142139D01*
G54D11*
X613994Y150750D02*
X611124Y150750D01*
X611124Y142139D01*
X613994Y142139D01*
X615240Y142546D01*
X616052Y143384D01*
X616458Y144196D01*
X616864Y145416D01*
X616864Y147473D01*
X616458Y148692D01*
X616052Y149505D01*
X615240Y150343D01*
X613994Y150750D01*
G54D11*
X521614Y261849D02*
X521614Y262255D01*
X522021Y263068D01*
X522428Y263474D01*
X523240Y263881D01*
X524866Y263881D01*
X525679Y263474D01*
X526086Y263068D01*
X526492Y262255D01*
X526492Y261442D01*
X526086Y260630D01*
X525272Y259411D01*
X521208Y255347D01*
X526898Y255347D01*
G54D11*
X534620Y261036D02*
X539090Y255347D01*
G54D11*
X539090Y261036D02*
X534620Y255347D01*
G54D11*
X550876Y255347D02*
X550876Y263881D01*
X546812Y258192D01*
X552908Y258192D01*
G54D11*
X556158Y255753D02*
X555752Y256160D01*
X555346Y255753D01*
X555752Y255347D01*
X556158Y255753D01*
G54D11*
X560604Y255347D02*
X564668Y263881D01*
X559004Y263881D01*
G54D11*
X567512Y263881D02*
X567512Y255347D01*
G54D11*
X573202Y263881D02*
X567512Y258192D01*
G54D11*
X569544Y260224D02*
X573202Y255347D01*
G54D11*
X529488Y331470D02*
X526619Y331470D01*
X526619Y322860D01*
X529488Y322860D01*
X530734Y323266D01*
X531546Y324104D01*
X531952Y324917D01*
X532359Y326136D01*
X532359Y328194D01*
X531952Y329413D01*
X531546Y330251D01*
X530734Y331064D01*
X529488Y331470D01*
G54D11*
X540563Y330251D02*
X539750Y331064D01*
X538506Y331470D01*
X536880Y331470D01*
X535636Y331064D01*
X534822Y330251D01*
X534822Y329413D01*
X535229Y328600D01*
X535636Y328194D01*
X536448Y327787D01*
X538912Y326974D01*
X539750Y326568D01*
X540156Y326136D01*
X540563Y325323D01*
X540563Y324104D01*
X539750Y323266D01*
X538506Y322860D01*
X536880Y322860D01*
X535636Y323266D01*
X534822Y324104D01*
G54D11*
X544246Y329845D02*
X545059Y330251D01*
X546304Y331470D01*
X546304Y322860D01*
G54D11*
X552018Y331470D02*
X556540Y331470D01*
X554076Y328194D01*
X555296Y328194D01*
X556134Y327787D01*
X556540Y327381D01*
X556946Y326136D01*
X556946Y325323D01*
X556540Y324104D01*
X555702Y323266D01*
X554482Y322860D01*
X553263Y322860D01*
X552018Y323266D01*
X551612Y323698D01*
X551206Y324510D01*
G54D11*
X562687Y331470D02*
X561848Y331470D01*
X560630Y331064D01*
X559816Y329845D01*
X559410Y327787D01*
X559410Y326568D01*
X559816Y324510D01*
X560630Y323266D01*
X561848Y322860D01*
X562687Y322860D01*
X563906Y323266D01*
X564718Y324510D01*
X565125Y326568D01*
X565125Y327787D01*
X564718Y329845D01*
X563906Y331064D01*
X562687Y331470D01*
G54D11*
X564718Y329845D02*
X559816Y324510D01*
G54D11*
X569240Y322860D02*
X573329Y331470D01*
X567588Y331470D01*
G54D11*
X514808Y729336D02*
X514401Y730148D01*
X513588Y730961D01*
X512776Y731368D01*
X511150Y731368D01*
X510338Y730961D01*
X509524Y730148D01*
X509118Y729336D01*
X508712Y728117D01*
X508712Y726085D01*
X509118Y724866D01*
X509524Y724053D01*
X510338Y723240D01*
X511150Y722834D01*
X512776Y722834D01*
X513588Y723240D01*
X514401Y724053D01*
X514808Y724866D01*
G54D11*
X521310Y731368D02*
X519684Y731368D01*
X518872Y730961D01*
X518058Y730148D01*
X517652Y729336D01*
X517246Y728117D01*
X517246Y726085D01*
X517652Y724866D01*
X518058Y724053D01*
X518872Y723240D01*
X519684Y722834D01*
X521310Y722834D01*
X522123Y723240D01*
X522936Y724053D01*
X523342Y724866D01*
X523748Y726085D01*
X523748Y728117D01*
X523342Y729336D01*
X522936Y730148D01*
X522123Y730961D01*
X521310Y731368D01*
G54D11*
X532282Y731368D02*
X532282Y722834D01*
X526593Y731368D01*
X526593Y722834D01*
G54D11*
X540792Y731368D02*
X535534Y731368D01*
X535534Y722834D01*
G54D11*
X535534Y727304D02*
X538785Y727304D01*
G54D11*
X550952Y731368D02*
X548107Y731368D01*
X548107Y722834D01*
X550952Y722834D01*
X552171Y723240D01*
X552984Y724053D01*
X553390Y724866D01*
X553796Y726085D01*
X553796Y728117D01*
X553390Y729336D01*
X552984Y730148D01*
X552171Y730961D01*
X550952Y731368D01*
G54D11*
X560299Y731368D02*
X558674Y731368D01*
X557860Y730961D01*
X557048Y730148D01*
X556641Y729336D01*
X556235Y728117D01*
X556235Y726085D01*
X556641Y724866D01*
X557048Y724053D01*
X557860Y723240D01*
X558674Y722834D01*
X560299Y722834D01*
X561112Y723240D01*
X561925Y724053D01*
X562331Y724866D01*
X562737Y726085D01*
X562737Y728117D01*
X562331Y729336D01*
X561925Y730148D01*
X561112Y730961D01*
X560299Y731368D01*
G54D11*
X571272Y731368D02*
X571272Y722834D01*
X565582Y731368D01*
X565582Y722834D01*
G54D11*
X579806Y731368D02*
X574523Y731368D01*
X574523Y722834D01*
X579806Y722834D01*
G54D11*
X574523Y727304D02*
X577774Y727304D01*
G54D11*
X881787Y539293D02*
X878130Y539293D01*
X878130Y530758D01*
X881787Y530758D01*
X883006Y531165D01*
X883412Y531571D01*
X883819Y532384D01*
X883819Y533603D01*
X883412Y534416D01*
X883006Y534823D01*
X881787Y535229D01*
X883006Y535636D01*
X883412Y536042D01*
X883819Y536855D01*
X883819Y537668D01*
X883412Y538481D01*
X883006Y538887D01*
X881787Y539293D01*
G54D11*
X878130Y535229D02*
X881787Y535229D01*
G54D11*
X892353Y537261D02*
X891947Y538074D01*
X891134Y538887D01*
X890322Y539293D01*
X888696Y539293D01*
X887882Y538887D01*
X887070Y538074D01*
X886664Y537261D01*
X886257Y536042D01*
X886257Y534010D01*
X886664Y532791D01*
X887070Y531978D01*
X887882Y531165D01*
X888696Y530758D01*
X890322Y530758D01*
X891134Y531165D01*
X891947Y531978D01*
X892353Y532791D01*
G54D11*
X898450Y539293D02*
X896824Y539293D01*
X895604Y538887D01*
X895198Y538074D01*
X895198Y537261D01*
X895604Y536448D01*
X896418Y536042D01*
X898043Y535636D01*
X899262Y535229D01*
X900074Y534416D01*
X900481Y533603D01*
X900481Y532384D01*
X900074Y531571D01*
X899668Y531165D01*
X898450Y530758D01*
X896824Y530758D01*
X895604Y531165D01*
X895198Y531571D01*
X894792Y532384D01*
X894792Y533603D01*
X895198Y534416D01*
X896011Y535229D01*
X897230Y535636D01*
X898856Y536042D01*
X899668Y536448D01*
X900074Y537261D01*
X900074Y538074D01*
X899668Y538887D01*
X898450Y539293D01*
G54D11*
X904139Y537668D02*
X904952Y538074D01*
X906170Y539293D01*
X906170Y530758D01*
G54D11*
X912673Y530758D02*
X916738Y539293D01*
X911048Y539293D01*
G54D10*
X841604Y832714D02*
X955904Y832714D01*
G54D11*
X878282Y289433D02*
X878282Y297967D01*
X875030Y289433D01*
X871780Y297967D01*
X871780Y289433D01*
G54D11*
X886816Y289433D02*
X883565Y297967D01*
X880314Y289433D01*
G54D11*
X881532Y292278D02*
X885597Y292278D01*
G54D11*
X887628Y297967D02*
X890880Y293904D01*
X890880Y289433D01*
G54D11*
X894131Y297967D02*
X890880Y293904D01*
G54D11*
X905104Y297967D02*
X901446Y297967D01*
X901446Y289433D01*
X905104Y289433D01*
X906324Y289840D01*
X906730Y290246D01*
X907136Y291059D01*
X907136Y292278D01*
X906730Y293091D01*
X906324Y293498D01*
X905104Y293904D01*
X906324Y294311D01*
X906730Y294717D01*
X907136Y295530D01*
X907136Y296342D01*
X906730Y297155D01*
X906324Y297561D01*
X905104Y297967D01*
G54D11*
X901446Y293904D02*
X905104Y293904D01*
G54D11*
X915264Y297967D02*
X909981Y297967D01*
X909981Y289433D01*
X915264Y289433D01*
G54D11*
X909981Y293904D02*
X913232Y293904D01*
G54D11*
X922986Y297967D02*
X922986Y289433D01*
G54D11*
X928675Y297967D02*
X928675Y289433D01*
G54D11*
X922986Y293904D02*
X928675Y293904D01*
G54D11*
X935584Y297967D02*
X933958Y297967D01*
X933146Y297561D01*
X932333Y296748D01*
X931926Y295936D01*
X931520Y294717D01*
X931520Y292685D01*
X931926Y291466D01*
X932333Y290653D01*
X933146Y289840D01*
X933958Y289433D01*
X935584Y289433D01*
X936396Y289840D01*
X937210Y290653D01*
X937616Y291466D01*
X938022Y292685D01*
X938022Y294717D01*
X937616Y295936D01*
X937210Y296748D01*
X936396Y297561D01*
X935584Y297967D01*
G54D11*
X942468Y297967D02*
X942468Y289433D01*
G54D11*
X939622Y297967D02*
X945312Y297967D01*
G54D11*
X232639Y210440D02*
X235179Y210414D01*
X237694Y210440D01*
X240234Y210515D01*
X242774Y210642D01*
X245314Y210846D01*
X247828Y211100D01*
X250343Y211405D01*
X252858Y211786D01*
X255372Y212192D01*
X257862Y212674D01*
X260325Y213208D01*
X262814Y213792D01*
X265252Y214427D01*
X267691Y215138D01*
X270130Y215875D01*
X272542Y216687D01*
X274930Y217526D01*
X277292Y218440D01*
X279629Y219405D01*
X281966Y220422D01*
X284277Y221489D01*
X286538Y222606D01*
X288798Y223774D01*
X291034Y224993D01*
X293218Y226238D01*
X295402Y227559D01*
X297536Y228931D01*
X299644Y230327D01*
X301727Y231776D01*
X303784Y233274D01*
X305791Y234823D01*
X307772Y236424D01*
X309702Y238050D01*
X311608Y239726D01*
X313488Y241452D01*
X315316Y243205D01*
X317094Y245008D01*
X318846Y246838D01*
X320548Y248717D01*
X322225Y250648D01*
X323850Y252578D01*
X325425Y254584D01*
X326950Y256591D01*
X328448Y258649D01*
X329896Y260731D01*
X331292Y262865D01*
X332639Y264998D01*
X333934Y267183D01*
X335204Y269393D01*
X336398Y271628D01*
X337541Y273888D01*
X338659Y276174D01*
X339700Y278486D01*
X340716Y280823D01*
X341656Y283159D01*
X342544Y285548D01*
X343383Y287935D01*
X344170Y290348D01*
X344907Y292786D01*
X345593Y295224D01*
X346228Y297688D01*
X346786Y300152D01*
X347320Y302642D01*
X347777Y305131D01*
X348184Y307645D01*
X348539Y310159D01*
X348844Y312675D01*
X349072Y315189D01*
X349250Y317729D01*
X349377Y320269D01*
X349454Y322809D01*
X349454Y325323D01*
X349428Y327864D01*
X349327Y330403D01*
X349174Y332944D01*
X348946Y335458D01*
X348692Y337998D01*
X348361Y340513D01*
X347980Y343028D01*
X347549Y345517D01*
X347066Y348006D01*
X346507Y350495D01*
X345923Y352959D01*
X345262Y355397D01*
X344552Y357836D01*
X343790Y360274D01*
X342976Y362662D01*
X342113Y365050D01*
X341173Y367412D01*
X340208Y369748D01*
X339192Y372085D01*
X338100Y374371D01*
X336982Y376657D01*
X335814Y378893D01*
X334569Y381127D01*
X333299Y383312D01*
X331978Y385471D01*
X330607Y387604D01*
X329184Y389713D01*
X327712Y391770D01*
X326187Y393828D01*
X324638Y395834D01*
X323038Y397790D01*
X321386Y399720D01*
X319710Y401625D01*
X317983Y403479D01*
X316205Y405308D01*
X314402Y407086D01*
X312548Y408813D01*
X310668Y410515D01*
X308737Y412166D01*
X306782Y413792D01*
X304800Y415341D01*
X302768Y416865D01*
X300686Y418338D01*
X298602Y419786D01*
X296469Y421158D01*
X294310Y422504D01*
X292126Y423800D01*
X289916Y425044D01*
X287681Y426212D01*
X285420Y427356D01*
X283109Y428448D01*
X280798Y429489D01*
X278460Y430480D01*
X276098Y431420D01*
X273736Y432308D01*
X271324Y433121D01*
X268910Y433909D01*
X266472Y434620D01*
X264034Y435306D01*
X261570Y435915D01*
X259106Y436474D01*
X256617Y436982D01*
X254102Y437413D01*
X251613Y437820D01*
X249098Y438151D01*
X246558Y438430D01*
X244044Y438658D01*
X241504Y438836D01*
X238964Y438937D01*
X236424Y438989D01*
X233909Y438989D01*
X231369Y438937D01*
X228829Y438836D01*
X226289Y438658D01*
X223774Y438430D01*
X221234Y438151D01*
X218720Y437820D01*
X216230Y437413D01*
X213716Y436982D01*
X211226Y436474D01*
X208763Y435915D01*
X206299Y435306D01*
X203861Y434620D01*
X201422Y433909D01*
X199010Y433121D01*
X196596Y432308D01*
X194234Y431420D01*
X191872Y430480D01*
X189535Y429489D01*
X187224Y428448D01*
X184912Y427356D01*
X182652Y426212D01*
X180416Y425044D01*
X178207Y423800D01*
X176022Y422504D01*
X173863Y421158D01*
X171730Y419786D01*
X169647Y418338D01*
X167564Y416865D01*
X165532Y415341D01*
X163551Y413792D01*
X161595Y412166D01*
X159665Y410515D01*
X157785Y408813D01*
X155931Y407086D01*
X154128Y405308D01*
X152350Y403479D01*
X150622Y401625D01*
X148946Y399720D01*
X147295Y397790D01*
X145695Y395834D01*
X144146Y393828D01*
X142622Y391770D01*
X141148Y389713D01*
X139726Y387604D01*
X138354Y385471D01*
X137034Y383312D01*
X135764Y381127D01*
X134518Y378893D01*
X133350Y376657D01*
X132233Y374371D01*
X131140Y372085D01*
X130124Y369748D01*
X129160Y367412D01*
X128220Y365050D01*
X127356Y362662D01*
X126544Y360274D01*
X125782Y357836D01*
X125070Y355397D01*
X124410Y352959D01*
X123826Y350495D01*
X123266Y348006D01*
X122784Y345517D01*
X122352Y343028D01*
X121971Y340513D01*
X121641Y337998D01*
X121387Y335458D01*
X121158Y332944D01*
X121006Y330403D01*
X120904Y327864D01*
X120879Y325323D01*
X120879Y322809D01*
X120955Y320269D01*
X121082Y317729D01*
X121260Y315189D01*
X121514Y312675D01*
X121793Y310159D01*
X122149Y307645D01*
X122556Y305131D01*
X123012Y302642D01*
X123546Y300152D01*
X124104Y297688D01*
X124740Y295224D01*
X125426Y292786D01*
X126162Y290348D01*
X126950Y287935D01*
X127788Y285548D01*
X128677Y283159D01*
X129617Y280823D01*
X130633Y278486D01*
X131674Y276174D01*
X132792Y273888D01*
X133934Y271628D01*
X135128Y269393D01*
X136398Y267183D01*
X137694Y264998D01*
X139040Y262865D01*
X140437Y260731D01*
X141885Y258649D01*
X143384Y256591D01*
X144908Y254584D01*
X146482Y252578D01*
X148108Y250648D01*
X149784Y248717D01*
X151486Y246838D01*
X153238Y245008D01*
X155016Y243205D01*
X156846Y241452D01*
X158725Y239726D01*
X160630Y238050D01*
X162560Y236424D01*
X164542Y234823D01*
X166548Y233274D01*
X168606Y231776D01*
X170688Y230327D01*
X172796Y228931D01*
X174930Y227559D01*
X177114Y226238D01*
X179299Y224993D01*
X181534Y223774D01*
X183794Y222606D01*
X186056Y221489D01*
X188366Y220422D01*
X190704Y219405D01*
X193040Y218440D01*
X195402Y217526D01*
X197790Y216687D01*
X200203Y215875D01*
X202642Y215138D01*
X205080Y214427D01*
X207518Y213792D01*
X210008Y213208D01*
X212472Y212674D01*
X214960Y212192D01*
X217476Y211786D01*
X219990Y211405D01*
X222504Y211100D01*
X225019Y210846D01*
X227559Y210642D01*
X230099Y210515D01*
X232639Y210440D01*
G54D12*
X886816Y523469D02*
X896976Y523469D01*
X896976Y515849D01*
G54D12*
X896976Y500609D02*
X896976Y492989D01*
X886816Y492989D01*
G54D12*
X884276Y510769D02*
X884276Y505689D01*
G54D12*
X304394Y143104D02*
X305664Y143104D01*
G54D12*
X306934Y141834D02*
X306934Y145644D01*
X303124Y145644D01*
X303124Y141834D01*
X306934Y141834D01*
G54D12*
X504419Y320904D02*
X505689Y320904D01*
G54D12*
X506959Y319634D02*
X506959Y323444D01*
X503149Y323444D01*
X503149Y319634D01*
X506959Y319634D01*
G54D12*
X891769Y644754D02*
X893039Y644754D01*
G54D12*
X894309Y643484D02*
X894309Y647294D01*
X890499Y647294D01*
X890499Y643484D01*
X894309Y643484D01*
G54D12*
X539090Y420599D02*
X539090Y453288D01*
X716890Y453288D01*
X716890Y362509D01*
X539090Y362509D01*
X539090Y395199D01*
G54D12*
X759004Y664007D02*
X759004Y564007D01*
X536982Y564007D01*
X536982Y598754D01*
X539496Y598958D01*
X541934Y599592D01*
X544246Y600609D01*
X546354Y601981D01*
X548208Y603682D01*
X549758Y605664D01*
X550952Y607873D01*
X551764Y610260D01*
X552171Y612750D01*
X552171Y615265D01*
X551764Y617754D01*
X550952Y620116D01*
X549758Y622325D01*
X548208Y624332D01*
X546354Y626035D01*
X544246Y627406D01*
X541934Y628422D01*
X539496Y629031D01*
X536982Y629235D01*
X536982Y664007D01*
X759004Y664007D01*
M02*
