%FSLAX34Y34*%
%MOMM*%
%LNSOLDERMASK_TOP*%
G71*
G01*
%ADD10C, 2.20*%
%ADD11R, 1.82X1.92*%
%ADD12C, 2.00*%
%ADD13R, 1.92X1.82*%
%ADD14R, 2.40X2.20*%
%ADD15R, 2.43X1.06*%
%ADD16C, 2.10*%
%ADD17C, 2.69*%
%ADD18C, 0.90*%
%ADD19C, 2.20*%
%ADD20C, 3.90*%
%ADD21R, 1.50X2.60*%
%ADD22C, 2.90*%
%ADD23C, 1.50*%
%ADD24C, 2.90*%
%ADD25R, 4.00X2.40*%
%ADD26C, 4.40*%
%ADD27R, 1.80X2.00*%
%ADD28R, 0.68X3.40*%
%ADD29R, 1.10X1.70*%
%ADD30C, 2.70*%
%ADD31R, 1.06X2.43*%
%ADD32R, 0.80X1.92*%
%ADD33R, 0.80X1.90*%
%LPD*%
X66904Y159614D02*
G54D10*
D03*
X41504Y159614D02*
G54D10*
D03*
X41504Y185014D02*
G54D10*
D03*
X66904Y185014D02*
G54D10*
D03*
X66904Y235814D02*
G54D10*
D03*
G36*
X30500Y246818D02*
X52508Y246818D01*
X52508Y224810D01*
X30500Y224810D01*
X30500Y246818D01*
G37*
X66904Y350114D02*
G54D10*
D03*
X41504Y350114D02*
G54D10*
D03*
X41504Y400914D02*
G54D10*
D03*
X66904Y400914D02*
G54D10*
D03*
X41504Y426314D02*
G54D10*
D03*
X66904Y426314D02*
G54D10*
D03*
X66904Y375514D02*
G54D10*
D03*
X41504Y375514D02*
G54D10*
D03*
X41504Y451714D02*
G54D10*
D03*
X66904Y451714D02*
G54D10*
D03*
X66904Y477114D02*
G54D10*
D03*
X41504Y477114D02*
G54D10*
D03*
X41504Y502514D02*
G54D10*
D03*
X66904Y502514D02*
G54D10*
D03*
X66904Y527914D02*
G54D10*
D03*
X41504Y527914D02*
G54D10*
D03*
X41504Y553314D02*
G54D10*
D03*
X66904Y553314D02*
G54D10*
D03*
X66904Y578714D02*
G54D10*
D03*
X41504Y578714D02*
G54D10*
D03*
X41504Y604114D02*
G54D10*
D03*
X66904Y604114D02*
G54D10*
D03*
X66904Y629514D02*
G54D10*
D03*
G36*
X30500Y640518D02*
X52508Y640518D01*
X52508Y618510D01*
X30500Y618510D01*
X30500Y640518D01*
G37*
X22454Y794614D02*
G54D11*
D03*
X47854Y794614D02*
G54D11*
D03*
X95479Y32614D02*
G54D12*
D03*
X139929Y32614D02*
G54D12*
D03*
X110389Y81204D02*
G54D13*
D03*
X135789Y81204D02*
G54D13*
D03*
G36*
X102115Y108528D02*
X114243Y108528D01*
X114243Y96400D01*
X102115Y96400D01*
X102115Y108528D01*
G37*
G36*
X121165Y108528D02*
X133293Y108528D01*
X133293Y96400D01*
X121165Y96400D01*
X121165Y108528D01*
G37*
X130404Y185014D02*
G54D11*
D03*
X130404Y159614D02*
G54D11*
D03*
X130404Y235814D02*
G54D11*
D03*
X114529Y391389D02*
G54D10*
D03*
X136754Y566014D02*
G54D14*
D03*
G36*
X123451Y538042D02*
X143707Y538042D01*
X143707Y517786D01*
X123451Y517786D01*
X123451Y538042D01*
G37*
X136754Y616814D02*
G54D14*
D03*
X114529Y686664D02*
G54D15*
D03*
X114529Y699364D02*
G54D15*
D03*
X114529Y673964D02*
G54D15*
D03*
X114529Y712064D02*
G54D15*
D03*
X95479Y794614D02*
G54D11*
D03*
X139929Y794614D02*
G54D11*
D03*
X117704Y794614D02*
G54D11*
D03*
X133579Y867639D02*
G54D16*
D03*
X133579Y918439D02*
G54D16*
D03*
X206604Y159614D02*
G54D11*
D03*
X181204Y159614D02*
G54D11*
D03*
X171679Y324714D02*
G54D17*
D03*
X178029Y566014D02*
G54D14*
D03*
X178029Y616814D02*
G54D14*
D03*
X178029Y712064D02*
G54D15*
D03*
X178029Y699364D02*
G54D15*
D03*
X178029Y686664D02*
G54D15*
D03*
X178029Y673964D02*
G54D15*
D03*
G36*
X197365Y705428D02*
X209493Y705428D01*
X209493Y693300D01*
X197365Y693300D01*
X197365Y705428D01*
G37*
G36*
X216415Y705428D02*
X228543Y705428D01*
X228543Y693300D01*
X216415Y693300D01*
X216415Y705428D01*
G37*
G36*
X197365Y686378D02*
X209493Y686378D01*
X209493Y674250D01*
X197365Y674250D01*
X197365Y686378D01*
G37*
G36*
X216415Y686378D02*
X228543Y686378D01*
X228543Y674250D01*
X216415Y674250D01*
X216415Y686378D01*
G37*
X187554Y794614D02*
G54D11*
D03*
X165329Y794614D02*
G54D11*
D03*
X209779Y794614D02*
G54D11*
D03*
X178029Y867639D02*
G54D16*
D03*
X200254Y867639D02*
G54D16*
D03*
X178029Y918439D02*
G54D16*
D03*
X200254Y918439D02*
G54D16*
D03*
X257404Y159614D02*
G54D11*
D03*
X282804Y159614D02*
G54D11*
D03*
X259995Y510007D02*
G54D18*
D03*
X270002Y510007D02*
G54D18*
D03*
X279984Y510007D02*
G54D18*
D03*
X289992Y510007D02*
G54D18*
D03*
X300000Y510007D02*
G54D18*
D03*
X259995Y480010D02*
G54D18*
D03*
X270002Y480010D02*
G54D18*
D03*
X279984Y480010D02*
G54D18*
D03*
X289992Y480010D02*
G54D18*
D03*
X300000Y480010D02*
G54D18*
D03*
X259995Y470002D02*
G54D18*
D03*
X270002Y470002D02*
G54D18*
D03*
X279984Y470002D02*
G54D18*
D03*
X289992Y470002D02*
G54D18*
D03*
X300000Y470002D02*
G54D18*
D03*
X259995Y500000D02*
G54D18*
D03*
X270002Y500000D02*
G54D18*
D03*
X279984Y500000D02*
G54D18*
D03*
X289992Y500000D02*
G54D18*
D03*
X300000Y500000D02*
G54D18*
D03*
X259995Y489992D02*
G54D18*
D03*
X270002Y489992D02*
G54D18*
D03*
X279984Y489992D02*
G54D18*
D03*
X289992Y489992D02*
G54D18*
D03*
X300000Y489992D02*
G54D18*
D03*
X259995Y580009D02*
G54D18*
D03*
X270002Y580009D02*
G54D18*
D03*
X279984Y580009D02*
G54D18*
D03*
X289992Y580009D02*
G54D18*
D03*
X300000Y580009D02*
G54D18*
D03*
X259995Y570002D02*
G54D18*
D03*
X270002Y570002D02*
G54D18*
D03*
X279984Y570002D02*
G54D18*
D03*
X289992Y570002D02*
G54D18*
D03*
X300000Y570002D02*
G54D18*
D03*
X259995Y540004D02*
G54D18*
D03*
X270002Y540004D02*
G54D18*
D03*
X279984Y540004D02*
G54D18*
D03*
X289992Y540004D02*
G54D18*
D03*
X300000Y540004D02*
G54D18*
D03*
X259995Y529997D02*
G54D18*
D03*
X270002Y529997D02*
G54D18*
D03*
X279984Y529997D02*
G54D18*
D03*
X289992Y529997D02*
G54D18*
D03*
X300000Y529997D02*
G54D18*
D03*
X259995Y559994D02*
G54D18*
D03*
X270002Y559994D02*
G54D18*
D03*
X279984Y559994D02*
G54D18*
D03*
X289992Y559994D02*
G54D18*
D03*
X300000Y559994D02*
G54D18*
D03*
X259995Y550012D02*
G54D18*
D03*
X270002Y550012D02*
G54D18*
D03*
X279984Y550012D02*
G54D18*
D03*
X289992Y550012D02*
G54D18*
D03*
X300000Y550012D02*
G54D18*
D03*
X259995Y519990D02*
G54D18*
D03*
X270002Y519990D02*
G54D18*
D03*
X279984Y519990D02*
G54D18*
D03*
X289992Y519990D02*
G54D18*
D03*
X300000Y519990D02*
G54D18*
D03*
X259995Y659994D02*
G54D18*
D03*
X270002Y659994D02*
G54D18*
D03*
X279984Y659994D02*
G54D18*
D03*
X289992Y659994D02*
G54D18*
D03*
X300000Y659994D02*
G54D18*
D03*
X259995Y650012D02*
G54D18*
D03*
X270002Y650012D02*
G54D18*
D03*
X279984Y650012D02*
G54D18*
D03*
X289992Y650012D02*
G54D18*
D03*
X300000Y650012D02*
G54D18*
D03*
X259995Y619989D02*
G54D18*
D03*
X270002Y619989D02*
G54D18*
D03*
X279984Y619989D02*
G54D18*
D03*
X289992Y619989D02*
G54D18*
D03*
X300000Y619989D02*
G54D18*
D03*
X259995Y610006D02*
G54D18*
D03*
X270002Y610006D02*
G54D18*
D03*
X279984Y610006D02*
G54D18*
D03*
X289992Y610006D02*
G54D18*
D03*
X300000Y610006D02*
G54D18*
D03*
X259995Y640005D02*
G54D18*
D03*
X270002Y640005D02*
G54D18*
D03*
X279984Y640005D02*
G54D18*
D03*
X289992Y640005D02*
G54D18*
D03*
X300000Y640005D02*
G54D18*
D03*
X259995Y629997D02*
G54D18*
D03*
X270002Y629997D02*
G54D18*
D03*
X279984Y629997D02*
G54D18*
D03*
X289992Y629997D02*
G54D18*
D03*
X300000Y629997D02*
G54D18*
D03*
X259995Y599999D02*
G54D18*
D03*
X270002Y599999D02*
G54D18*
D03*
X279984Y599999D02*
G54D18*
D03*
X289992Y599999D02*
G54D18*
D03*
X300000Y599999D02*
G54D18*
D03*
X259995Y680009D02*
G54D18*
D03*
X270002Y680009D02*
G54D18*
D03*
X279984Y680009D02*
G54D18*
D03*
X289992Y680009D02*
G54D18*
D03*
X300000Y680009D02*
G54D18*
D03*
G36*
X257690Y727653D02*
X269818Y727653D01*
X269818Y715525D01*
X257690Y715525D01*
X257690Y727653D01*
G37*
G36*
X257690Y708603D02*
X269818Y708603D01*
X269818Y696475D01*
X257690Y696475D01*
X257690Y708603D01*
G37*
X257404Y794614D02*
G54D11*
D03*
X279629Y794614D02*
G54D11*
D03*
X346304Y86589D02*
G54D19*
D03*
X346304Y111989D02*
G54D19*
D03*
X371704Y86589D02*
G54D19*
D03*
X371704Y111989D02*
G54D19*
D03*
X319990Y510007D02*
G54D18*
D03*
X329997Y510007D02*
G54D18*
D03*
X339980Y510007D02*
G54D18*
D03*
X349987Y510007D02*
G54D18*
D03*
X359994Y510007D02*
G54D18*
D03*
X370002Y510007D02*
G54D18*
D03*
X379984Y510007D02*
G54D18*
D03*
X319990Y480010D02*
G54D18*
D03*
X329997Y480010D02*
G54D18*
D03*
X339980Y480010D02*
G54D18*
D03*
X349987Y480010D02*
G54D18*
D03*
X359994Y480010D02*
G54D18*
D03*
X370002Y480010D02*
G54D18*
D03*
X379984Y480010D02*
G54D18*
D03*
X319990Y470002D02*
G54D18*
D03*
X329997Y470002D02*
G54D18*
D03*
X339980Y470002D02*
G54D18*
D03*
X349987Y470002D02*
G54D18*
D03*
X359994Y470002D02*
G54D18*
D03*
X370002Y470002D02*
G54D18*
D03*
X379984Y470002D02*
G54D18*
D03*
X319990Y500000D02*
G54D18*
D03*
X329997Y500000D02*
G54D18*
D03*
X339980Y500000D02*
G54D18*
D03*
X349987Y500000D02*
G54D18*
D03*
X359994Y500000D02*
G54D18*
D03*
X370002Y500000D02*
G54D18*
D03*
X379984Y500000D02*
G54D18*
D03*
X319990Y489992D02*
G54D18*
D03*
X329997Y489992D02*
G54D18*
D03*
X339980Y489992D02*
G54D18*
D03*
X349987Y489992D02*
G54D18*
D03*
X359994Y489992D02*
G54D18*
D03*
X370002Y489992D02*
G54D18*
D03*
X379984Y489992D02*
G54D18*
D03*
X319990Y580009D02*
G54D18*
D03*
X329997Y580009D02*
G54D18*
D03*
X339980Y580009D02*
G54D18*
D03*
X349987Y580009D02*
G54D18*
D03*
X359994Y580009D02*
G54D18*
D03*
X370002Y580009D02*
G54D18*
D03*
X379984Y580009D02*
G54D18*
D03*
X319990Y570002D02*
G54D18*
D03*
X329997Y570002D02*
G54D18*
D03*
X339980Y570002D02*
G54D18*
D03*
X349987Y570002D02*
G54D18*
D03*
X359994Y570002D02*
G54D18*
D03*
X370002Y570002D02*
G54D18*
D03*
X379984Y570002D02*
G54D18*
D03*
X319990Y540004D02*
G54D18*
D03*
X329997Y540004D02*
G54D18*
D03*
X339980Y540004D02*
G54D18*
D03*
X349987Y540004D02*
G54D18*
D03*
X359994Y540004D02*
G54D18*
D03*
X370002Y540004D02*
G54D18*
D03*
X379984Y540004D02*
G54D18*
D03*
X319990Y529997D02*
G54D18*
D03*
X329997Y529997D02*
G54D18*
D03*
X339980Y529997D02*
G54D18*
D03*
X349987Y529997D02*
G54D18*
D03*
X359994Y529997D02*
G54D18*
D03*
X370002Y529997D02*
G54D18*
D03*
X379984Y529997D02*
G54D18*
D03*
X319990Y559994D02*
G54D18*
D03*
X329997Y559994D02*
G54D18*
D03*
X339980Y559994D02*
G54D18*
D03*
X349987Y559994D02*
G54D18*
D03*
X359994Y559994D02*
G54D18*
D03*
X370002Y559994D02*
G54D18*
D03*
X379984Y559994D02*
G54D18*
D03*
X319990Y550012D02*
G54D18*
D03*
X329997Y550012D02*
G54D18*
D03*
X339980Y550012D02*
G54D18*
D03*
X349987Y550012D02*
G54D18*
D03*
X359994Y550012D02*
G54D18*
D03*
X370002Y550012D02*
G54D18*
D03*
X379984Y550012D02*
G54D18*
D03*
X319990Y519990D02*
G54D18*
D03*
X329997Y519990D02*
G54D18*
D03*
X339980Y519990D02*
G54D18*
D03*
X349987Y519990D02*
G54D18*
D03*
X359994Y519990D02*
G54D18*
D03*
X370002Y519990D02*
G54D18*
D03*
X379984Y519990D02*
G54D18*
D03*
X319990Y659994D02*
G54D18*
D03*
X329997Y659994D02*
G54D18*
D03*
X339980Y659994D02*
G54D18*
D03*
X349987Y659994D02*
G54D18*
D03*
X359994Y659994D02*
G54D18*
D03*
X370002Y659994D02*
G54D18*
D03*
X379984Y659994D02*
G54D18*
D03*
X319990Y650012D02*
G54D18*
D03*
X329997Y650012D02*
G54D18*
D03*
X339980Y650012D02*
G54D18*
D03*
X349987Y650012D02*
G54D18*
D03*
X359994Y650012D02*
G54D18*
D03*
X370002Y650012D02*
G54D18*
D03*
X379984Y650012D02*
G54D18*
D03*
X319990Y619989D02*
G54D18*
D03*
X329997Y619989D02*
G54D18*
D03*
X339980Y619989D02*
G54D18*
D03*
X349987Y619989D02*
G54D18*
D03*
X359994Y619989D02*
G54D18*
D03*
X370002Y619989D02*
G54D18*
D03*
X379984Y619989D02*
G54D18*
D03*
X319990Y610006D02*
G54D18*
D03*
X329997Y610006D02*
G54D18*
D03*
X339980Y610006D02*
G54D18*
D03*
X349987Y610006D02*
G54D18*
D03*
X359994Y610006D02*
G54D18*
D03*
X370002Y610006D02*
G54D18*
D03*
X379984Y610006D02*
G54D18*
D03*
X319990Y640005D02*
G54D18*
D03*
X329997Y640005D02*
G54D18*
D03*
X339980Y640005D02*
G54D18*
D03*
X349987Y640005D02*
G54D18*
D03*
X359994Y640005D02*
G54D18*
D03*
X370002Y640005D02*
G54D18*
D03*
X379984Y640005D02*
G54D18*
D03*
X319990Y629997D02*
G54D18*
D03*
X329997Y629997D02*
G54D18*
D03*
X339980Y629997D02*
G54D18*
D03*
X349987Y629997D02*
G54D18*
D03*
X359994Y629997D02*
G54D18*
D03*
X370002Y629997D02*
G54D18*
D03*
X379984Y629997D02*
G54D18*
D03*
X319990Y599999D02*
G54D18*
D03*
X329997Y599999D02*
G54D18*
D03*
X339980Y599999D02*
G54D18*
D03*
X349987Y599999D02*
G54D18*
D03*
X359994Y599999D02*
G54D18*
D03*
X370002Y599999D02*
G54D18*
D03*
X379984Y599999D02*
G54D18*
D03*
X319990Y680009D02*
G54D18*
D03*
X329997Y680009D02*
G54D18*
D03*
X339980Y680009D02*
G54D18*
D03*
X349987Y680009D02*
G54D18*
D03*
X359994Y680009D02*
G54D18*
D03*
X370002Y680009D02*
G54D18*
D03*
X379984Y680009D02*
G54D18*
D03*
X324079Y794614D02*
G54D11*
D03*
X355829Y934314D02*
G54D20*
D03*
X449809Y30862D02*
G54D21*
D03*
X393929Y238989D02*
G54D11*
D03*
X393929Y264389D02*
G54D11*
D03*
X419329Y238989D02*
G54D11*
D03*
X419329Y264389D02*
G54D11*
D03*
X444729Y238989D02*
G54D11*
D03*
X444729Y264389D02*
G54D11*
D03*
X400000Y510007D02*
G54D18*
D03*
X409982Y510007D02*
G54D18*
D03*
X389992Y510007D02*
G54D18*
D03*
X419990Y510007D02*
G54D18*
D03*
X429997Y510007D02*
G54D18*
D03*
X439979Y510007D02*
G54D18*
D03*
X449987Y510007D02*
G54D18*
D03*
X400000Y480010D02*
G54D18*
D03*
X409982Y480010D02*
G54D18*
D03*
X389992Y480010D02*
G54D18*
D03*
X419990Y480010D02*
G54D18*
D03*
X429997Y480010D02*
G54D18*
D03*
X439979Y480010D02*
G54D18*
D03*
X449987Y480010D02*
G54D18*
D03*
X400000Y470002D02*
G54D18*
D03*
X409982Y470002D02*
G54D18*
D03*
X389992Y470002D02*
G54D18*
D03*
X419990Y470002D02*
G54D18*
D03*
X429997Y470002D02*
G54D18*
D03*
X439979Y470002D02*
G54D18*
D03*
X449987Y470002D02*
G54D18*
D03*
X400000Y500000D02*
G54D18*
D03*
X409982Y500000D02*
G54D18*
D03*
X389992Y500000D02*
G54D18*
D03*
X419990Y500000D02*
G54D18*
D03*
X429997Y500000D02*
G54D18*
D03*
X439979Y500000D02*
G54D18*
D03*
X449987Y500000D02*
G54D18*
D03*
X400000Y489992D02*
G54D18*
D03*
X409982Y489992D02*
G54D18*
D03*
X389992Y489992D02*
G54D18*
D03*
X419990Y489992D02*
G54D18*
D03*
X429997Y489992D02*
G54D18*
D03*
X439979Y489992D02*
G54D18*
D03*
X449987Y489992D02*
G54D18*
D03*
X400000Y580009D02*
G54D18*
D03*
X409982Y580009D02*
G54D18*
D03*
X389992Y580009D02*
G54D18*
D03*
X419990Y580009D02*
G54D18*
D03*
X429997Y580009D02*
G54D18*
D03*
X439979Y580009D02*
G54D18*
D03*
X449987Y580009D02*
G54D18*
D03*
X400000Y570002D02*
G54D18*
D03*
X409982Y570002D02*
G54D18*
D03*
X389992Y570002D02*
G54D18*
D03*
X419990Y570002D02*
G54D18*
D03*
X429997Y570002D02*
G54D18*
D03*
X439979Y570002D02*
G54D18*
D03*
X449987Y570002D02*
G54D18*
D03*
X400000Y540004D02*
G54D18*
D03*
X409982Y540004D02*
G54D18*
D03*
X389992Y540004D02*
G54D18*
D03*
X419990Y540004D02*
G54D18*
D03*
X429997Y540004D02*
G54D18*
D03*
X439979Y540004D02*
G54D18*
D03*
X449987Y540004D02*
G54D18*
D03*
X400000Y529997D02*
G54D18*
D03*
X409982Y529997D02*
G54D18*
D03*
X389992Y529997D02*
G54D18*
D03*
X419990Y529997D02*
G54D18*
D03*
X429997Y529997D02*
G54D18*
D03*
X439979Y529997D02*
G54D18*
D03*
X449987Y529997D02*
G54D18*
D03*
X400000Y559994D02*
G54D18*
D03*
X409982Y559994D02*
G54D18*
D03*
X389992Y559994D02*
G54D18*
D03*
X419990Y559994D02*
G54D18*
D03*
X429997Y559994D02*
G54D18*
D03*
X439979Y559994D02*
G54D18*
D03*
X449987Y559994D02*
G54D18*
D03*
X400000Y550012D02*
G54D18*
D03*
X409982Y550012D02*
G54D18*
D03*
X389992Y550012D02*
G54D18*
D03*
X419990Y550012D02*
G54D18*
D03*
X429997Y550012D02*
G54D18*
D03*
X439979Y550012D02*
G54D18*
D03*
X449987Y550012D02*
G54D18*
D03*
X400000Y519990D02*
G54D18*
D03*
X409982Y519990D02*
G54D18*
D03*
X389992Y519990D02*
G54D18*
D03*
X419990Y519990D02*
G54D18*
D03*
X429997Y519990D02*
G54D18*
D03*
X439979Y519990D02*
G54D18*
D03*
X449987Y519990D02*
G54D18*
D03*
X400000Y659994D02*
G54D18*
D03*
X409982Y659994D02*
G54D18*
D03*
X389992Y659994D02*
G54D18*
D03*
X419990Y659994D02*
G54D18*
D03*
X429997Y659994D02*
G54D18*
D03*
X439979Y659994D02*
G54D18*
D03*
X449987Y659994D02*
G54D18*
D03*
X400000Y650012D02*
G54D18*
D03*
X409982Y650012D02*
G54D18*
D03*
X389992Y650012D02*
G54D18*
D03*
X419990Y650012D02*
G54D18*
D03*
X429997Y650012D02*
G54D18*
D03*
X439979Y650012D02*
G54D18*
D03*
X449987Y650012D02*
G54D18*
D03*
X400000Y619989D02*
G54D18*
D03*
X409982Y619989D02*
G54D18*
D03*
X389992Y619989D02*
G54D18*
D03*
X419990Y619989D02*
G54D18*
D03*
X429997Y619989D02*
G54D18*
D03*
X439979Y619989D02*
G54D18*
D03*
X449987Y619989D02*
G54D18*
D03*
X400000Y610006D02*
G54D18*
D03*
X409982Y610006D02*
G54D18*
D03*
X389992Y610006D02*
G54D18*
D03*
X419990Y610006D02*
G54D18*
D03*
X429997Y610006D02*
G54D18*
D03*
X439979Y610006D02*
G54D18*
D03*
X449987Y610006D02*
G54D18*
D03*
X400000Y640005D02*
G54D18*
D03*
X409982Y640005D02*
G54D18*
D03*
X389992Y640005D02*
G54D18*
D03*
X419990Y640005D02*
G54D18*
D03*
X429997Y640005D02*
G54D18*
D03*
X439979Y640005D02*
G54D18*
D03*
X449987Y640005D02*
G54D18*
D03*
X400000Y629997D02*
G54D18*
D03*
X409982Y629997D02*
G54D18*
D03*
X389992Y629997D02*
G54D18*
D03*
X419990Y629997D02*
G54D18*
D03*
X429997Y629997D02*
G54D18*
D03*
X439979Y629997D02*
G54D18*
D03*
X449987Y629997D02*
G54D18*
D03*
X400000Y599999D02*
G54D18*
D03*
X409982Y599999D02*
G54D18*
D03*
X389992Y599999D02*
G54D18*
D03*
X419990Y599999D02*
G54D18*
D03*
X429997Y599999D02*
G54D18*
D03*
X439979Y599999D02*
G54D18*
D03*
X449987Y599999D02*
G54D18*
D03*
X400000Y680009D02*
G54D18*
D03*
X409982Y680009D02*
G54D18*
D03*
X389992Y680009D02*
G54D18*
D03*
X419990Y680009D02*
G54D18*
D03*
X429997Y680009D02*
G54D18*
D03*
X439979Y680009D02*
G54D18*
D03*
X449987Y680009D02*
G54D18*
D03*
X403454Y851764D02*
G54D11*
D03*
X451079Y851764D02*
G54D11*
D03*
X425679Y851764D02*
G54D11*
D03*
X478816Y26873D02*
G54D22*
D03*
X517754Y191364D02*
G54D11*
D03*
X492354Y191364D02*
G54D11*
D03*
X517754Y165964D02*
G54D11*
D03*
X492354Y165964D02*
G54D11*
D03*
G36*
X468650Y240468D02*
X490658Y240468D01*
X490658Y218460D01*
X468650Y218460D01*
X468650Y240468D01*
G37*
X505054Y229464D02*
G54D19*
D03*
X492354Y312014D02*
G54D19*
D03*
G36*
X473590Y343478D02*
X485718Y343478D01*
X485718Y331350D01*
X473590Y331350D01*
X473590Y343478D01*
G37*
G36*
X492640Y343478D02*
X504768Y343478D01*
X504768Y331350D01*
X492640Y331350D01*
X492640Y343478D01*
G37*
X470002Y510007D02*
G54D18*
D03*
X470002Y480010D02*
G54D18*
D03*
X470002Y470002D02*
G54D18*
D03*
X470002Y500000D02*
G54D18*
D03*
X470002Y489992D02*
G54D18*
D03*
X470002Y580009D02*
G54D18*
D03*
X470002Y570002D02*
G54D18*
D03*
X470002Y540004D02*
G54D18*
D03*
X470002Y529997D02*
G54D18*
D03*
X470002Y559994D02*
G54D18*
D03*
X470002Y550012D02*
G54D18*
D03*
X470002Y519990D02*
G54D18*
D03*
X470002Y659994D02*
G54D18*
D03*
X470002Y650012D02*
G54D18*
D03*
X470002Y619989D02*
G54D18*
D03*
X470002Y610006D02*
G54D18*
D03*
X470002Y640005D02*
G54D18*
D03*
X470002Y629997D02*
G54D18*
D03*
X470002Y599999D02*
G54D18*
D03*
X470002Y680009D02*
G54D18*
D03*
X485750Y706044D02*
G54D13*
D03*
X511150Y706044D02*
G54D13*
D03*
X473304Y851764D02*
G54D11*
D03*
X520929Y851764D02*
G54D11*
D03*
X498704Y851764D02*
G54D11*
D03*
X558800Y26873D02*
G54D22*
D03*
X593954Y191364D02*
G54D11*
D03*
X568554Y191364D02*
G54D11*
D03*
X593954Y165964D02*
G54D11*
D03*
X568554Y165964D02*
G54D11*
D03*
X555854Y229464D02*
G54D13*
D03*
X584429Y254864D02*
G54D13*
D03*
X584429Y232639D02*
G54D13*
D03*
G36*
X591065Y337128D02*
X603193Y337128D01*
X603193Y325000D01*
X591065Y325000D01*
X591065Y337128D01*
G37*
G36*
X591065Y318078D02*
X603193Y318078D01*
X603193Y305950D01*
X591065Y305950D01*
X591065Y318078D01*
G37*
G36*
X537928Y544062D02*
X550056Y544062D01*
X550056Y531934D01*
X537928Y531934D01*
X537928Y544062D01*
G37*
G36*
X553930Y544062D02*
X566058Y544062D01*
X566058Y531934D01*
X553930Y531934D01*
X553930Y544062D01*
G37*
G36*
X577933Y696055D02*
X590061Y696055D01*
X590061Y683927D01*
X577933Y683927D01*
X577933Y696055D01*
G37*
G36*
X577933Y716070D02*
X590061Y716070D01*
X590061Y703942D01*
X577933Y703942D01*
X577933Y716070D01*
G37*
X556134Y706044D02*
G54D13*
D03*
X568554Y851764D02*
G54D11*
D03*
X546329Y851764D02*
G54D11*
D03*
X673329Y77064D02*
G54D19*
D03*
G36*
X645929Y167964D02*
X662629Y167964D01*
X662629Y151264D01*
X645929Y151264D01*
X645929Y167964D01*
G37*
G36*
X615170Y331387D02*
X627298Y331387D01*
X627298Y319259D01*
X615170Y319259D01*
X615170Y331387D01*
G37*
G36*
X634220Y331387D02*
X646348Y331387D01*
X646348Y319259D01*
X634220Y319259D01*
X634220Y331387D01*
G37*
X676200Y311937D02*
G54D23*
D03*
G36*
X629927Y496056D02*
X642055Y496056D01*
X642055Y483928D01*
X629927Y483928D01*
X629927Y496056D01*
G37*
G36*
X641916Y544062D02*
X654044Y544062D01*
X654044Y531934D01*
X641916Y531934D01*
X641916Y544062D01*
G37*
G36*
X625940Y696055D02*
X638068Y696055D01*
X638068Y683927D01*
X625940Y683927D01*
X625940Y696055D01*
G37*
G36*
X653930Y700068D02*
X666058Y700068D01*
X666058Y687940D01*
X653930Y687940D01*
X653930Y700068D01*
G37*
G36*
X673920Y700068D02*
X686048Y700068D01*
X686048Y687940D01*
X673920Y687940D01*
X673920Y700068D01*
G37*
G36*
X625940Y716070D02*
X638068Y716070D01*
X638068Y703942D01*
X625940Y703942D01*
X625940Y716070D01*
G37*
X679679Y788264D02*
G54D11*
D03*
X654279Y788264D02*
G54D11*
D03*
X663194Y858317D02*
G54D12*
D03*
X663194Y884327D02*
G54D12*
D03*
X724129Y77064D02*
G54D19*
D03*
X749529Y77064D02*
G54D19*
D03*
X720954Y159614D02*
G54D23*
D03*
X746354Y324714D02*
G54D23*
D03*
G36*
X745928Y544062D02*
X758056Y544062D01*
X758056Y531934D01*
X745928Y531934D01*
X745928Y544062D01*
G37*
X705079Y788264D02*
G54D11*
D03*
X730479Y788264D02*
G54D11*
D03*
X708203Y858317D02*
G54D12*
D03*
X708203Y884327D02*
G54D12*
D03*
X733197Y858317D02*
G54D12*
D03*
X733197Y884327D02*
G54D12*
D03*
G36*
X812426Y131642D02*
X832682Y131642D01*
X832682Y111386D01*
X812426Y111386D01*
X812426Y131642D01*
G37*
G36*
X812426Y182442D02*
X832682Y182442D01*
X832682Y162186D01*
X812426Y162186D01*
X812426Y182442D01*
G37*
G36*
X806076Y334842D02*
X826332Y334842D01*
X826332Y314586D01*
X806076Y314586D01*
X806076Y334842D01*
G37*
X816204Y346939D02*
G54D23*
D03*
X809854Y388214D02*
G54D10*
D03*
X784454Y388214D02*
G54D10*
D03*
X809854Y464414D02*
G54D10*
D03*
X784454Y464414D02*
G54D10*
D03*
X784454Y696189D02*
G54D11*
D03*
X809854Y696189D02*
G54D11*
D03*
X873354Y38964D02*
G54D24*
D03*
G36*
X863226Y118942D02*
X883482Y118942D01*
X883482Y98686D01*
X863226Y98686D01*
X863226Y118942D01*
G37*
G36*
X899929Y167964D02*
X916629Y167964D01*
X916629Y151264D01*
X899929Y151264D01*
X899929Y167964D01*
G37*
X867004Y159614D02*
G54D23*
D03*
X892404Y324714D02*
G54D23*
D03*
X873354Y388214D02*
G54D13*
D03*
X898754Y388214D02*
G54D13*
D03*
X873354Y413614D02*
G54D13*
D03*
X898754Y413614D02*
G54D13*
D03*
X873354Y464414D02*
G54D13*
D03*
X898754Y464414D02*
G54D13*
D03*
G36*
X899040Y584778D02*
X911168Y584778D01*
X911168Y572650D01*
X899040Y572650D01*
X899040Y584778D01*
G37*
X860654Y696189D02*
G54D11*
D03*
X886054Y696189D02*
G54D11*
D03*
X854304Y788264D02*
G54D11*
D03*
X905104Y788264D02*
G54D11*
D03*
X879704Y788264D02*
G54D11*
D03*
X863220Y858317D02*
G54D12*
D03*
X863220Y884327D02*
G54D12*
D03*
X888213Y858317D02*
G54D12*
D03*
X888213Y884327D02*
G54D12*
D03*
G36*
X952126Y334842D02*
X972382Y334842D01*
X972382Y314586D01*
X952126Y314586D01*
X952126Y334842D01*
G37*
X962254Y346939D02*
G54D23*
D03*
G36*
X944900Y399218D02*
X966908Y399218D01*
X966908Y377210D01*
X944900Y377210D01*
X944900Y399218D01*
G37*
X930504Y388214D02*
G54D19*
D03*
G36*
X944900Y437318D02*
X966908Y437318D01*
X966908Y415310D01*
X944900Y415310D01*
X944900Y437318D01*
G37*
X930504Y426314D02*
G54D19*
D03*
G36*
X944900Y475418D02*
X966908Y475418D01*
X966908Y453410D01*
X944900Y453410D01*
X944900Y475418D01*
G37*
X930504Y464414D02*
G54D19*
D03*
G36*
X944900Y513518D02*
X966908Y513518D01*
X966908Y491510D01*
X944900Y491510D01*
X944900Y513518D01*
G37*
X930504Y502514D02*
G54D19*
D03*
X936854Y696189D02*
G54D11*
D03*
X962254Y696189D02*
G54D11*
D03*
X930504Y788264D02*
G54D11*
D03*
X968604Y769214D02*
G54D25*
D03*
X933222Y858317D02*
G54D12*
D03*
X933222Y884327D02*
G54D12*
D03*
X963829Y854939D02*
G54D20*
D03*
X35002Y40005D02*
G54D20*
D03*
X41504Y134214D02*
G54D10*
D03*
X66904Y134214D02*
G54D10*
D03*
X41504Y210414D02*
G54D10*
D03*
X66904Y210414D02*
G54D10*
D03*
X22454Y820014D02*
G54D11*
D03*
X47854Y820014D02*
G54D11*
D03*
X44679Y893039D02*
G54D26*
D03*
X130404Y210414D02*
G54D11*
D03*
X114529Y365989D02*
G54D10*
D03*
X95479Y820014D02*
G54D11*
D03*
X139929Y820014D02*
G54D11*
D03*
X143104Y893039D02*
G54D16*
D03*
X117704Y820014D02*
G54D11*
D03*
X120879Y893039D02*
G54D16*
D03*
X193904Y48489D02*
G54D22*
D03*
X206604Y134214D02*
G54D11*
D03*
X181204Y134214D02*
G54D11*
D03*
X187554Y820014D02*
G54D11*
D03*
X165329Y820014D02*
G54D11*
D03*
X187554Y893039D02*
G54D16*
D03*
X209779Y820014D02*
G54D11*
D03*
X209779Y893039D02*
G54D16*
D03*
X257404Y134214D02*
G54D11*
D03*
X282804Y134214D02*
G54D11*
D03*
X259995Y670002D02*
G54D18*
D03*
X270002Y670002D02*
G54D18*
D03*
X279984Y670002D02*
G54D18*
D03*
X289992Y670002D02*
G54D18*
D03*
X300000Y670002D02*
G54D18*
D03*
X259995Y589991D02*
G54D18*
D03*
X270002Y589991D02*
G54D18*
D03*
X279984Y589991D02*
G54D18*
D03*
X289992Y589991D02*
G54D18*
D03*
X300000Y589991D02*
G54D18*
D03*
X257404Y820014D02*
G54D11*
D03*
X279629Y820014D02*
G54D11*
D03*
X319990Y670002D02*
G54D18*
D03*
X329997Y670002D02*
G54D18*
D03*
X339980Y670002D02*
G54D18*
D03*
X349987Y670002D02*
G54D18*
D03*
X359994Y670002D02*
G54D18*
D03*
X370002Y670002D02*
G54D18*
D03*
X379984Y670002D02*
G54D18*
D03*
X319990Y589991D02*
G54D18*
D03*
X329997Y589991D02*
G54D18*
D03*
X339980Y589991D02*
G54D18*
D03*
X349987Y589991D02*
G54D18*
D03*
X359994Y589991D02*
G54D18*
D03*
X370002Y589991D02*
G54D18*
D03*
X379984Y589991D02*
G54D18*
D03*
X324079Y820014D02*
G54D11*
D03*
X422504Y64364D02*
G54D20*
D03*
X449809Y126873D02*
G54D27*
D03*
X400000Y670002D02*
G54D18*
D03*
X409982Y670002D02*
G54D18*
D03*
X389992Y670002D02*
G54D18*
D03*
X419990Y670002D02*
G54D18*
D03*
X429997Y670002D02*
G54D18*
D03*
X439979Y670002D02*
G54D18*
D03*
X449987Y670002D02*
G54D18*
D03*
X400000Y589991D02*
G54D18*
D03*
X409982Y589991D02*
G54D18*
D03*
X389992Y589991D02*
G54D18*
D03*
X419990Y589991D02*
G54D18*
D03*
X429997Y589991D02*
G54D18*
D03*
X439979Y589991D02*
G54D18*
D03*
X449987Y589991D02*
G54D18*
D03*
X403454Y826364D02*
G54D11*
D03*
X451079Y826364D02*
G54D11*
D03*
X452679Y899923D02*
G54D28*
D03*
X447700Y899923D02*
G54D28*
D03*
X442697Y899923D02*
G54D28*
D03*
X437693Y899923D02*
G54D28*
D03*
X425679Y826364D02*
G54D11*
D03*
X410185Y904926D02*
G54D20*
D03*
X410185Y964921D02*
G54D20*
D03*
X518796Y133858D02*
G54D29*
D03*
X529794Y133858D02*
G54D29*
D03*
X496799Y133858D02*
G54D29*
D03*
X507797Y133858D02*
G54D29*
D03*
X485801Y133858D02*
G54D29*
D03*
X474802Y133858D02*
G54D29*
D03*
X492354Y289789D02*
G54D19*
D03*
X470002Y670002D02*
G54D18*
D03*
X470002Y589991D02*
G54D18*
D03*
X473304Y826364D02*
G54D11*
D03*
X477698Y899923D02*
G54D28*
D03*
X492684Y899923D02*
G54D28*
D03*
X497688Y899923D02*
G54D28*
D03*
X482702Y899923D02*
G54D28*
D03*
X487680Y899923D02*
G54D28*
D03*
X472694Y899923D02*
G54D28*
D03*
X467690Y899923D02*
G54D28*
D03*
X520929Y826364D02*
G54D11*
D03*
X517703Y899923D02*
G54D28*
D03*
X527686Y899923D02*
G54D28*
D03*
X522682Y899923D02*
G54D28*
D03*
X512700Y899923D02*
G54D28*
D03*
X498704Y826364D02*
G54D11*
D03*
X502692Y899923D02*
G54D28*
D03*
X507696Y899923D02*
G54D28*
D03*
X551816Y133858D02*
G54D29*
D03*
X601878Y126264D02*
G54D27*
D03*
G36*
X537928Y524072D02*
X550056Y524072D01*
X550056Y511944D01*
X537928Y511944D01*
X537928Y524072D01*
G37*
G36*
X553930Y524072D02*
X566058Y524072D01*
X566058Y511944D01*
X553930Y511944D01*
X553930Y524072D01*
G37*
X568554Y826364D02*
G54D11*
D03*
X546329Y826364D02*
G54D11*
D03*
X673329Y51664D02*
G54D19*
D03*
G36*
X627514Y270834D02*
X682314Y270834D01*
X682314Y216034D01*
X627514Y216034D01*
X627514Y270834D01*
G37*
G36*
X669424Y167964D02*
X686124Y167964D01*
X686124Y151264D01*
X669424Y151264D01*
X669424Y167964D01*
G37*
G36*
X623704Y167964D02*
X640404Y167964D01*
X640404Y151264D01*
X623704Y151264D01*
X623704Y167964D01*
G37*
G36*
X666072Y299841D02*
X686328Y299841D01*
X686328Y279585D01*
X666072Y279585D01*
X666072Y299841D01*
G37*
G36*
X615271Y299841D02*
X635527Y299841D01*
X635527Y279585D01*
X615271Y279585D01*
X615271Y299841D01*
G37*
G36*
X641916Y524072D02*
X654044Y524072D01*
X654044Y511944D01*
X641916Y511944D01*
X641916Y524072D01*
G37*
X679679Y813664D02*
G54D11*
D03*
X654279Y813664D02*
G54D11*
D03*
X724129Y51664D02*
G54D19*
D03*
X749529Y51664D02*
G54D19*
D03*
G36*
X745928Y524072D02*
X758056Y524072D01*
X758056Y511944D01*
X745928Y511944D01*
X745928Y524072D01*
G37*
X705079Y813664D02*
G54D11*
D03*
X730479Y813664D02*
G54D11*
D03*
X784454Y670789D02*
G54D11*
D03*
X809854Y670789D02*
G54D11*
D03*
X860654Y670789D02*
G54D11*
D03*
X886054Y670789D02*
G54D11*
D03*
X873354Y439014D02*
G54D13*
D03*
X898754Y439014D02*
G54D13*
D03*
G36*
X895738Y514293D02*
X907866Y514293D01*
X907866Y502165D01*
X895738Y502165D01*
X895738Y514293D01*
G37*
G36*
X873640Y504133D02*
X885768Y504133D01*
X885768Y492005D01*
X873640Y492005D01*
X873640Y504133D01*
G37*
G36*
X873640Y524453D02*
X885768Y524453D01*
X885768Y512325D01*
X873640Y512325D01*
X873640Y524453D01*
G37*
X857479Y518389D02*
G54D13*
D03*
G36*
X899040Y600653D02*
X911168Y600653D01*
X911168Y588525D01*
X899040Y588525D01*
X899040Y600653D01*
G37*
X854304Y813664D02*
G54D11*
D03*
X905104Y813664D02*
G54D11*
D03*
X879704Y813664D02*
G54D11*
D03*
X949554Y131039D02*
G54D23*
D03*
X936854Y670789D02*
G54D11*
D03*
X962254Y670789D02*
G54D11*
D03*
X959994Y599999D02*
G54D20*
D03*
X930504Y813664D02*
G54D11*
D03*
X963829Y912089D02*
G54D20*
D03*
X968604Y813664D02*
G54D25*
D03*
X974954Y743814D02*
G54D23*
D03*
X35154Y724764D02*
G54D20*
D03*
X244704Y26264D02*
G54D22*
D03*
X238354Y96114D02*
G54D22*
D03*
X232004Y159614D02*
G54D11*
D03*
X155804Y159614D02*
G54D11*
D03*
X155804Y185014D02*
G54D11*
D03*
G36*
X148851Y538042D02*
X169107Y538042D01*
X169107Y517786D01*
X148851Y517786D01*
X148851Y538042D01*
G37*
X73254Y794614D02*
G54D11*
D03*
X232004Y794614D02*
G54D11*
D03*
X155804Y867639D02*
G54D16*
D03*
X222479Y867639D02*
G54D16*
D03*
X155804Y918439D02*
G54D16*
D03*
X222479Y918439D02*
G54D16*
D03*
X543154Y191364D02*
G54D11*
D03*
X466954Y191364D02*
G54D11*
D03*
X543154Y165964D02*
G54D11*
D03*
X466954Y165964D02*
G54D11*
D03*
X530454Y229464D02*
G54D13*
D03*
X374879Y324714D02*
G54D17*
D03*
X309982Y510007D02*
G54D18*
D03*
X459994Y510007D02*
G54D18*
D03*
X309982Y480010D02*
G54D18*
D03*
X459994Y480010D02*
G54D18*
D03*
X309982Y470002D02*
G54D18*
D03*
X459994Y470002D02*
G54D18*
D03*
X309982Y500000D02*
G54D18*
D03*
X459994Y500000D02*
G54D18*
D03*
X309982Y489992D02*
G54D18*
D03*
X459994Y489992D02*
G54D18*
D03*
X309982Y580009D02*
G54D18*
D03*
X459994Y580009D02*
G54D18*
D03*
X309982Y570002D02*
G54D18*
D03*
X459994Y570002D02*
G54D18*
D03*
X309982Y540004D02*
G54D18*
D03*
X459994Y540004D02*
G54D18*
D03*
X309982Y529997D02*
G54D18*
D03*
X459994Y529997D02*
G54D18*
D03*
X309982Y559994D02*
G54D18*
D03*
X459994Y559994D02*
G54D18*
D03*
X309982Y550012D02*
G54D18*
D03*
X459994Y550012D02*
G54D18*
D03*
X309982Y519990D02*
G54D18*
D03*
X459994Y519990D02*
G54D18*
D03*
X309982Y659994D02*
G54D18*
D03*
X459994Y659994D02*
G54D18*
D03*
X309982Y650012D02*
G54D18*
D03*
X459994Y650012D02*
G54D18*
D03*
X309982Y619989D02*
G54D18*
D03*
X459994Y619989D02*
G54D18*
D03*
X309982Y610006D02*
G54D18*
D03*
X459994Y610006D02*
G54D18*
D03*
X309982Y640005D02*
G54D18*
D03*
X459994Y640005D02*
G54D18*
D03*
X309982Y629997D02*
G54D18*
D03*
X459994Y629997D02*
G54D18*
D03*
X309982Y599999D02*
G54D18*
D03*
X459994Y599999D02*
G54D18*
D03*
X309982Y680009D02*
G54D18*
D03*
X459994Y680009D02*
G54D18*
D03*
X530734Y706044D02*
G54D13*
D03*
X301854Y794614D02*
G54D11*
D03*
X611404Y31014D02*
G54D21*
D03*
G36*
X763925Y88068D02*
X785933Y88068D01*
X785933Y66060D01*
X763925Y66060D01*
X763925Y88068D01*
G37*
X698729Y77064D02*
G54D19*
D03*
G36*
X753879Y167964D02*
X770579Y167964D01*
X770579Y151264D01*
X753879Y151264D01*
X753879Y167964D01*
G37*
X695554Y159614D02*
G54D23*
D03*
X609829Y254864D02*
G54D13*
D03*
X609829Y232639D02*
G54D13*
D03*
G36*
X755276Y334842D02*
X775532Y334842D01*
X775532Y314586D01*
X755276Y314586D01*
X755276Y334842D01*
G37*
X759054Y388214D02*
G54D10*
D03*
X835254Y388214D02*
G54D10*
D03*
G36*
X609938Y496056D02*
X622066Y496056D01*
X622066Y483928D01*
X609938Y483928D01*
X609938Y496056D01*
G37*
X759054Y464414D02*
G54D10*
D03*
X835254Y464414D02*
G54D10*
D03*
G36*
X601936Y544062D02*
X614064Y544062D01*
X614064Y531934D01*
X601936Y531934D01*
X601936Y544062D01*
G37*
X835254Y696189D02*
G54D11*
D03*
X768579Y769214D02*
G54D25*
D03*
X600304Y794614D02*
G54D20*
D03*
X688188Y858317D02*
G54D12*
D03*
X688188Y884327D02*
G54D12*
D03*
X632054Y854939D02*
G54D20*
D03*
X763804Y854939D02*
G54D20*
D03*
X832079Y854939D02*
G54D20*
D03*
X924154Y38964D02*
G54D24*
D03*
G36*
X914026Y96717D02*
X934282Y96717D01*
X934282Y76461D01*
X914026Y76461D01*
X914026Y96717D01*
G37*
G36*
X914026Y118942D02*
X934282Y118942D01*
X934282Y98686D01*
X914026Y98686D01*
X914026Y118942D01*
G37*
X970001Y89993D02*
G54D20*
D03*
G36*
X901326Y334842D02*
X921582Y334842D01*
X921582Y314586D01*
X901326Y314586D01*
X901326Y334842D01*
G37*
G36*
X914915Y584778D02*
X927043Y584778D01*
X927043Y572650D01*
X914915Y572650D01*
X914915Y584778D01*
G37*
X911454Y696189D02*
G54D11*
D03*
X908228Y858317D02*
G54D12*
D03*
X908228Y884327D02*
G54D12*
D03*
X79604Y54839D02*
G54D30*
D03*
X155804Y54839D02*
G54D30*
D03*
X232004Y134214D02*
G54D11*
D03*
X73254Y820014D02*
G54D11*
D03*
X165329Y893039D02*
G54D16*
D03*
X232004Y820014D02*
G54D11*
D03*
X295504Y64364D02*
G54D20*
D03*
X314554Y159614D02*
G54D31*
D03*
X327254Y159614D02*
G54D31*
D03*
X339954Y159614D02*
G54D31*
D03*
X352654Y159614D02*
G54D31*
D03*
X365354Y159614D02*
G54D31*
D03*
X378054Y159614D02*
G54D31*
D03*
X314554Y215494D02*
G54D31*
D03*
X327254Y215494D02*
G54D31*
D03*
X339954Y215494D02*
G54D31*
D03*
X352654Y215494D02*
G54D31*
D03*
X365354Y215494D02*
G54D31*
D03*
X378054Y215494D02*
G54D31*
D03*
X390754Y159614D02*
G54D31*
D03*
X403454Y159614D02*
G54D31*
D03*
X390754Y215494D02*
G54D31*
D03*
X403454Y215494D02*
G54D31*
D03*
X540792Y133858D02*
G54D29*
D03*
X463804Y133858D02*
G54D29*
D03*
X309982Y670002D02*
G54D18*
D03*
X459994Y670002D02*
G54D18*
D03*
X309982Y589991D02*
G54D18*
D03*
X459994Y589991D02*
G54D18*
D03*
X301854Y820014D02*
G54D11*
D03*
X462686Y899923D02*
G54D28*
D03*
X457683Y899923D02*
G54D28*
D03*
X774929Y51664D02*
G54D19*
D03*
X698729Y51664D02*
G54D19*
D03*
G36*
X735464Y270834D02*
X790264Y270834D01*
X790264Y216034D01*
X735464Y216034D01*
X735464Y270834D01*
G37*
G36*
X777374Y167964D02*
X794074Y167964D01*
X794074Y151264D01*
X777374Y151264D01*
X777374Y167964D01*
G37*
G36*
X731654Y167964D02*
X748354Y167964D01*
X748354Y151264D01*
X731654Y151264D01*
X731654Y167964D01*
G37*
X606350Y289713D02*
G54D23*
D03*
G36*
X601936Y524072D02*
X614064Y524072D01*
X614064Y511944D01*
X601936Y511944D01*
X601936Y524072D01*
G37*
X835254Y670789D02*
G54D11*
D03*
X832079Y518389D02*
G54D13*
D03*
X632054Y912089D02*
G54D20*
D03*
X763804Y912089D02*
G54D20*
D03*
X768579Y813664D02*
G54D25*
D03*
X832079Y912089D02*
G54D20*
D03*
G36*
X914026Y74492D02*
X934282Y74492D01*
X934282Y54236D01*
X914026Y54236D01*
X914026Y74492D01*
G37*
X911454Y670789D02*
G54D11*
D03*
G36*
X914915Y600653D02*
X927043Y600653D01*
X927043Y588525D01*
X914915Y588525D01*
X914915Y600653D01*
G37*
X576809Y273914D02*
G54D15*
D03*
X576809Y286614D02*
G54D15*
D03*
X576809Y299314D02*
G54D15*
D03*
X576809Y312014D02*
G54D15*
D03*
X520929Y273914D02*
G54D15*
D03*
X520929Y286614D02*
G54D15*
D03*
X520929Y299314D02*
G54D15*
D03*
X520929Y312014D02*
G54D15*
D03*
X555194Y904926D02*
G54D20*
D03*
X555194Y964921D02*
G54D20*
D03*
X298679Y893039D02*
G54D26*
D03*
G36*
X881514Y270834D02*
X936314Y270834D01*
X936314Y216034D01*
X881514Y216034D01*
X881514Y270834D01*
G37*
G36*
X923424Y167964D02*
X940124Y167964D01*
X940124Y151264D01*
X923424Y151264D01*
X923424Y167964D01*
G37*
G36*
X877704Y167964D02*
X894404Y167964D01*
X894404Y151264D01*
X877704Y151264D01*
X877704Y167964D01*
G37*
X882879Y629514D02*
G54D31*
D03*
X870179Y629514D02*
G54D31*
D03*
X857479Y629514D02*
G54D31*
D03*
X844779Y629514D02*
G54D31*
D03*
X832079Y629514D02*
G54D31*
D03*
X819379Y629514D02*
G54D31*
D03*
X882879Y573634D02*
G54D31*
D03*
X870179Y573634D02*
G54D31*
D03*
X857479Y573634D02*
G54D31*
D03*
X844779Y573634D02*
G54D31*
D03*
X832079Y573634D02*
G54D31*
D03*
X819379Y573634D02*
G54D31*
D03*
X806679Y629514D02*
G54D31*
D03*
X793979Y629514D02*
G54D31*
D03*
X806679Y573634D02*
G54D31*
D03*
X793979Y573634D02*
G54D31*
D03*
X711988Y349809D02*
G54D32*
D03*
X695986Y349809D02*
G54D32*
D03*
X687985Y349809D02*
G54D32*
D03*
X679984Y349809D02*
G54D32*
D03*
X671983Y349809D02*
G54D32*
D03*
X663982Y349809D02*
G54D32*
D03*
X655981Y349809D02*
G54D32*
D03*
X647980Y349809D02*
G54D32*
D03*
X639978Y349809D02*
G54D32*
D03*
X632004Y349809D02*
G54D32*
D03*
X624002Y349809D02*
G54D32*
D03*
X616002Y349809D02*
G54D32*
D03*
X608000Y349809D02*
G54D32*
D03*
X599999Y349809D02*
G54D32*
D03*
X591998Y349809D02*
G54D32*
D03*
X583997Y349809D02*
G54D32*
D03*
X575996Y349809D02*
G54D32*
D03*
X567995Y349809D02*
G54D32*
D03*
X559994Y349809D02*
G54D32*
D03*
X543992Y349809D02*
G54D32*
D03*
X711988Y465989D02*
G54D32*
D03*
X695986Y465989D02*
G54D32*
D03*
X687985Y465989D02*
G54D32*
D03*
X679984Y465989D02*
G54D32*
D03*
X671983Y465989D02*
G54D32*
D03*
X663982Y465989D02*
G54D32*
D03*
X655981Y465989D02*
G54D32*
D03*
X647980Y465989D02*
G54D32*
D03*
X639978Y465989D02*
G54D32*
D03*
X632004Y465989D02*
G54D32*
D03*
X624002Y465989D02*
G54D32*
D03*
X616002Y465989D02*
G54D32*
D03*
X608000Y465989D02*
G54D32*
D03*
X599999Y465989D02*
G54D32*
D03*
X591998Y465989D02*
G54D32*
D03*
X583997Y465989D02*
G54D32*
D03*
X575996Y465989D02*
G54D32*
D03*
X567995Y465989D02*
G54D32*
D03*
X559994Y465989D02*
G54D32*
D03*
X543992Y465989D02*
G54D32*
D03*
X703987Y349809D02*
G54D32*
D03*
X551993Y349809D02*
G54D32*
D03*
X703987Y465989D02*
G54D32*
D03*
X551993Y465989D02*
G54D32*
D03*
X751992Y554000D02*
G54D33*
D03*
X743992Y554000D02*
G54D33*
D03*
X735990Y554000D02*
G54D33*
D03*
X719988Y554000D02*
G54D33*
D03*
X711988Y554000D02*
G54D33*
D03*
X703987Y554000D02*
G54D33*
D03*
X695986Y554000D02*
G54D33*
D03*
X687985Y554000D02*
G54D33*
D03*
X679984Y554000D02*
G54D33*
D03*
X671983Y554000D02*
G54D33*
D03*
X663982Y554000D02*
G54D33*
D03*
X655981Y554000D02*
G54D33*
D03*
X639978Y554000D02*
G54D33*
D03*
X632004Y554000D02*
G54D33*
D03*
X624002Y554000D02*
G54D33*
D03*
X616002Y554000D02*
G54D33*
D03*
X608000Y554000D02*
G54D33*
D03*
X599999Y554000D02*
G54D33*
D03*
X591998Y554000D02*
G54D33*
D03*
X583997Y554000D02*
G54D33*
D03*
X575996Y554000D02*
G54D33*
D03*
X559994Y554000D02*
G54D33*
D03*
X551993Y554000D02*
G54D33*
D03*
X543992Y554000D02*
G54D33*
D03*
X751992Y673989D02*
G54D33*
D03*
X743992Y673989D02*
G54D33*
D03*
X735990Y673989D02*
G54D33*
D03*
X719988Y673989D02*
G54D33*
D03*
X711988Y673989D02*
G54D33*
D03*
X703987Y673989D02*
G54D33*
D03*
X695986Y673989D02*
G54D33*
D03*
X687985Y673989D02*
G54D33*
D03*
X679984Y673989D02*
G54D33*
D03*
X671983Y673989D02*
G54D33*
D03*
X663982Y673989D02*
G54D33*
D03*
X655981Y673989D02*
G54D33*
D03*
X639978Y673989D02*
G54D33*
D03*
X632004Y673989D02*
G54D33*
D03*
X624002Y673989D02*
G54D33*
D03*
X616002Y673989D02*
G54D33*
D03*
X608000Y673989D02*
G54D33*
D03*
X599999Y673989D02*
G54D33*
D03*
X591998Y673989D02*
G54D33*
D03*
X583997Y673989D02*
G54D33*
D03*
X575996Y673989D02*
G54D33*
D03*
X559994Y673989D02*
G54D33*
D03*
X551993Y673989D02*
G54D33*
D03*
X543992Y673989D02*
G54D33*
D03*
X727990Y554000D02*
G54D33*
D03*
X647980Y554000D02*
G54D33*
D03*
X567995Y554000D02*
G54D33*
D03*
X727990Y673989D02*
G54D33*
D03*
X647980Y673989D02*
G54D33*
D03*
X567995Y673989D02*
G54D33*
D03*
M02*
