%FSLAX34Y34*%
%MOMM*%
%LNSOLDERMASK_BOTTOM*%
G71*
G01*
%ADD10C, 2.20*%
%ADD11C, 2.00*%
%ADD12C, 2.10*%
%ADD13C, 2.69*%
%ADD14C, 2.20*%
%ADD15C, 3.90*%
%ADD16C, 2.90*%
%ADD17C, 1.50*%
%ADD18C, 2.90*%
%ADD19C, 4.40*%
%ADD20C, 2.70*%
%ADD21R, 1.82X1.92*%
%ADD22R, 2.20X0.85*%
%LPD*%
X66904Y159614D02*
G54D10*
D03*
X41504Y159614D02*
G54D10*
D03*
X41504Y185014D02*
G54D10*
D03*
X66904Y185014D02*
G54D10*
D03*
X66904Y235814D02*
G54D10*
D03*
G36*
X30500Y246818D02*
X52508Y246818D01*
X52508Y224810D01*
X30500Y224810D01*
X30500Y246818D01*
G37*
X66904Y350114D02*
G54D10*
D03*
X41504Y350114D02*
G54D10*
D03*
X41504Y400914D02*
G54D10*
D03*
X66904Y400914D02*
G54D10*
D03*
X41504Y426314D02*
G54D10*
D03*
X66904Y426314D02*
G54D10*
D03*
X66904Y375514D02*
G54D10*
D03*
X41504Y375514D02*
G54D10*
D03*
X41504Y451714D02*
G54D10*
D03*
X66904Y451714D02*
G54D10*
D03*
X66904Y477114D02*
G54D10*
D03*
X41504Y477114D02*
G54D10*
D03*
X41504Y502514D02*
G54D10*
D03*
X66904Y502514D02*
G54D10*
D03*
X66904Y527914D02*
G54D10*
D03*
X41504Y527914D02*
G54D10*
D03*
X41504Y553314D02*
G54D10*
D03*
X66904Y553314D02*
G54D10*
D03*
X66904Y578714D02*
G54D10*
D03*
X41504Y578714D02*
G54D10*
D03*
X41504Y604114D02*
G54D10*
D03*
X66904Y604114D02*
G54D10*
D03*
X66904Y629514D02*
G54D10*
D03*
G36*
X30500Y640518D02*
X52508Y640518D01*
X52508Y618510D01*
X30500Y618510D01*
X30500Y640518D01*
G37*
X95479Y32614D02*
G54D11*
D03*
X139929Y32614D02*
G54D11*
D03*
X114529Y391389D02*
G54D10*
D03*
X133579Y867639D02*
G54D12*
D03*
X133579Y918439D02*
G54D12*
D03*
X171679Y324714D02*
G54D13*
D03*
X178029Y867639D02*
G54D12*
D03*
X200254Y867639D02*
G54D12*
D03*
X178029Y918439D02*
G54D12*
D03*
X200254Y918439D02*
G54D12*
D03*
X346304Y86589D02*
G54D14*
D03*
X346304Y111989D02*
G54D14*
D03*
X371704Y86589D02*
G54D14*
D03*
X371704Y111989D02*
G54D14*
D03*
X355829Y934314D02*
G54D15*
D03*
X478816Y26873D02*
G54D16*
D03*
G36*
X468650Y240468D02*
X490658Y240468D01*
X490658Y218460D01*
X468650Y218460D01*
X468650Y240468D01*
G37*
X505054Y229464D02*
G54D14*
D03*
X492354Y312014D02*
G54D14*
D03*
X558800Y26873D02*
G54D16*
D03*
X673329Y77064D02*
G54D14*
D03*
X676200Y311937D02*
G54D17*
D03*
X663194Y858317D02*
G54D11*
D03*
X663194Y884327D02*
G54D11*
D03*
X724129Y77064D02*
G54D14*
D03*
X749529Y77064D02*
G54D14*
D03*
X720954Y159614D02*
G54D17*
D03*
X746354Y324714D02*
G54D17*
D03*
X708203Y858317D02*
G54D11*
D03*
X708203Y884327D02*
G54D11*
D03*
X733197Y858317D02*
G54D11*
D03*
X733197Y884327D02*
G54D11*
D03*
X816204Y346939D02*
G54D17*
D03*
X809854Y388214D02*
G54D10*
D03*
X784454Y388214D02*
G54D10*
D03*
X809854Y464414D02*
G54D10*
D03*
X784454Y464414D02*
G54D10*
D03*
X873354Y38964D02*
G54D18*
D03*
X867004Y159614D02*
G54D17*
D03*
X892404Y324714D02*
G54D17*
D03*
X863220Y858317D02*
G54D11*
D03*
X863220Y884327D02*
G54D11*
D03*
X888213Y858317D02*
G54D11*
D03*
X888213Y884327D02*
G54D11*
D03*
X962254Y346939D02*
G54D17*
D03*
G36*
X944900Y399218D02*
X966908Y399218D01*
X966908Y377210D01*
X944900Y377210D01*
X944900Y399218D01*
G37*
X930504Y388214D02*
G54D14*
D03*
G36*
X944900Y437318D02*
X966908Y437318D01*
X966908Y415310D01*
X944900Y415310D01*
X944900Y437318D01*
G37*
X930504Y426314D02*
G54D14*
D03*
G36*
X944900Y475418D02*
X966908Y475418D01*
X966908Y453410D01*
X944900Y453410D01*
X944900Y475418D01*
G37*
X930504Y464414D02*
G54D14*
D03*
G36*
X944900Y513518D02*
X966908Y513518D01*
X966908Y491510D01*
X944900Y491510D01*
X944900Y513518D01*
G37*
X930504Y502514D02*
G54D14*
D03*
X933222Y858317D02*
G54D11*
D03*
X933222Y884327D02*
G54D11*
D03*
X963829Y854939D02*
G54D15*
D03*
X35002Y40005D02*
G54D15*
D03*
X41504Y134214D02*
G54D10*
D03*
X66904Y134214D02*
G54D10*
D03*
X41504Y210414D02*
G54D10*
D03*
X66904Y210414D02*
G54D10*
D03*
X44679Y893039D02*
G54D19*
D03*
X114529Y365989D02*
G54D10*
D03*
X143104Y893039D02*
G54D12*
D03*
X120879Y893039D02*
G54D12*
D03*
X193904Y48489D02*
G54D16*
D03*
X187554Y893039D02*
G54D12*
D03*
X209779Y893039D02*
G54D12*
D03*
X422504Y64364D02*
G54D15*
D03*
X410185Y904926D02*
G54D15*
D03*
X410185Y964921D02*
G54D15*
D03*
X492354Y289789D02*
G54D14*
D03*
X673329Y51664D02*
G54D14*
D03*
X724129Y51664D02*
G54D14*
D03*
X749529Y51664D02*
G54D14*
D03*
X949554Y131039D02*
G54D17*
D03*
X959994Y599999D02*
G54D15*
D03*
X963829Y912089D02*
G54D15*
D03*
X974954Y743814D02*
G54D17*
D03*
X35154Y724764D02*
G54D15*
D03*
X244704Y26264D02*
G54D16*
D03*
X238354Y96114D02*
G54D16*
D03*
X155804Y867639D02*
G54D12*
D03*
X222479Y867639D02*
G54D12*
D03*
X155804Y918439D02*
G54D12*
D03*
X222479Y918439D02*
G54D12*
D03*
X374879Y324714D02*
G54D13*
D03*
G36*
X763925Y88068D02*
X785933Y88068D01*
X785933Y66060D01*
X763925Y66060D01*
X763925Y88068D01*
G37*
X698729Y77064D02*
G54D14*
D03*
X695554Y159614D02*
G54D17*
D03*
X759054Y388214D02*
G54D10*
D03*
X835254Y388214D02*
G54D10*
D03*
X759054Y464414D02*
G54D10*
D03*
X835254Y464414D02*
G54D10*
D03*
X600304Y794614D02*
G54D15*
D03*
X688188Y858317D02*
G54D11*
D03*
X688188Y884327D02*
G54D11*
D03*
X632054Y854939D02*
G54D15*
D03*
X763804Y854939D02*
G54D15*
D03*
X832079Y854939D02*
G54D15*
D03*
X924154Y38964D02*
G54D18*
D03*
X970001Y89993D02*
G54D15*
D03*
X908228Y858317D02*
G54D11*
D03*
X908228Y884327D02*
G54D11*
D03*
X79604Y54839D02*
G54D20*
D03*
X155804Y54839D02*
G54D20*
D03*
X165329Y893039D02*
G54D12*
D03*
X295504Y64364D02*
G54D15*
D03*
X774929Y51664D02*
G54D14*
D03*
X698729Y51664D02*
G54D14*
D03*
X606350Y289713D02*
G54D17*
D03*
X632054Y912089D02*
G54D15*
D03*
X763804Y912089D02*
G54D15*
D03*
X832079Y912089D02*
G54D15*
D03*
X555194Y904926D02*
G54D15*
D03*
X555194Y964921D02*
G54D15*
D03*
X298679Y893039D02*
G54D19*
D03*
G36*
X165615Y426028D02*
X177743Y426028D01*
X177743Y413900D01*
X165615Y413900D01*
X165615Y426028D01*
G37*
G36*
X165615Y406978D02*
X177743Y406978D01*
X177743Y394850D01*
X165615Y394850D01*
X165615Y406978D01*
G37*
G36*
X236430Y456076D02*
X248558Y456076D01*
X248558Y443948D01*
X236430Y443948D01*
X236430Y456076D01*
G37*
G36*
X256420Y456076D02*
X268548Y456076D01*
X268548Y443948D01*
X256420Y443948D01*
X256420Y456076D01*
G37*
G36*
X278924Y541064D02*
X291052Y541064D01*
X291052Y528936D01*
X278924Y528936D01*
X278924Y541064D01*
G37*
G36*
X258934Y611067D02*
X271062Y611067D01*
X271062Y598939D01*
X258934Y598939D01*
X258934Y611067D01*
G37*
G36*
X278924Y611067D02*
X291052Y611067D01*
X291052Y598939D01*
X278924Y598939D01*
X278924Y611067D01*
G37*
X352654Y172314D02*
G54D21*
D03*
X352654Y197714D02*
G54D21*
D03*
X320904Y165964D02*
G54D21*
D03*
G36*
X308922Y501060D02*
X321050Y501060D01*
X321050Y488932D01*
X308922Y488932D01*
X308922Y501060D01*
G37*
G36*
X338919Y511067D02*
X351047Y511067D01*
X351047Y498939D01*
X338919Y498939D01*
X338919Y511067D01*
G37*
G36*
X338919Y531057D02*
X351047Y531057D01*
X351047Y518929D01*
X338919Y518929D01*
X338919Y531057D01*
G37*
G36*
X358934Y591077D02*
X371062Y591077D01*
X371062Y578949D01*
X358934Y578949D01*
X358934Y591077D01*
G37*
G36*
X358934Y571062D02*
X371062Y571062D01*
X371062Y558934D01*
X358934Y558934D01*
X358934Y571062D01*
G37*
G36*
X358934Y551072D02*
X371062Y551072D01*
X371062Y538944D01*
X358934Y538944D01*
X358934Y551072D01*
G37*
G36*
X308922Y641064D02*
X321050Y641064D01*
X321050Y628936D01*
X308922Y628936D01*
X308922Y641064D01*
G37*
G36*
X308922Y621075D02*
X321050Y621075D01*
X321050Y608947D01*
X308922Y608947D01*
X308922Y621075D01*
G37*
G36*
X328937Y621075D02*
X341065Y621075D01*
X341065Y608947D01*
X328937Y608947D01*
X328937Y621075D01*
G37*
G36*
X328937Y641064D02*
X341065Y641064D01*
X341065Y628936D01*
X328937Y628936D01*
X328937Y641064D01*
G37*
G36*
X358934Y611067D02*
X371062Y611067D01*
X371062Y598939D01*
X358934Y598939D01*
X358934Y611067D01*
G37*
G36*
X308922Y691077D02*
X321050Y691077D01*
X321050Y678949D01*
X308922Y678949D01*
X308922Y691077D01*
G37*
X397104Y172314D02*
G54D21*
D03*
X397104Y197714D02*
G54D21*
D03*
G36*
X408922Y511067D02*
X421050Y511067D01*
X421050Y498939D01*
X408922Y498939D01*
X408922Y511067D01*
G37*
G36*
X446437Y456076D02*
X458565Y456076D01*
X458565Y443948D01*
X446437Y443948D01*
X446437Y456076D01*
G37*
G36*
X408922Y531057D02*
X421050Y531057D01*
X421050Y518929D01*
X408922Y518929D01*
X408922Y531057D01*
G37*
G36*
X428937Y531057D02*
X441065Y531057D01*
X441065Y518929D01*
X428937Y518929D01*
X428937Y531057D01*
G37*
G36*
X438919Y571062D02*
X451047Y571062D01*
X451047Y558934D01*
X438919Y558934D01*
X438919Y571062D01*
G37*
G36*
X408922Y651072D02*
X421050Y651072D01*
X421050Y638944D01*
X408922Y638944D01*
X408922Y651072D01*
G37*
G36*
X408922Y631057D02*
X421050Y631057D01*
X421050Y618929D01*
X408922Y618929D01*
X408922Y631057D01*
G37*
G36*
X428937Y631057D02*
X441065Y631057D01*
X441065Y618929D01*
X428937Y618929D01*
X428937Y631057D01*
G37*
G36*
X428937Y611067D02*
X441065Y611067D01*
X441065Y598939D01*
X428937Y598939D01*
X428937Y611067D01*
G37*
G36*
X466428Y456076D02*
X478556Y456076D01*
X478556Y443948D01*
X466428Y443948D01*
X466428Y456076D01*
G37*
G36*
X468916Y706063D02*
X481044Y706063D01*
X481044Y693935D01*
X468916Y693935D01*
X468916Y706063D01*
G37*
X673329Y102464D02*
G54D21*
D03*
X679679Y788264D02*
G54D21*
D03*
X654279Y788264D02*
G54D21*
D03*
X749529Y102464D02*
G54D21*
D03*
X724129Y102464D02*
G54D21*
D03*
X705079Y788264D02*
G54D21*
D03*
X730479Y788264D02*
G54D21*
D03*
X711429Y912089D02*
G54D22*
D03*
X711429Y902564D02*
G54D22*
D03*
X711429Y921614D02*
G54D22*
D03*
X774929Y102464D02*
G54D21*
D03*
X784454Y413614D02*
G54D21*
D03*
X809854Y413614D02*
G54D21*
D03*
X809854Y696189D02*
G54D21*
D03*
X784454Y696189D02*
G54D21*
D03*
X886054Y696189D02*
G54D21*
D03*
X860654Y696189D02*
G54D21*
D03*
X854304Y788264D02*
G54D21*
D03*
X905104Y788264D02*
G54D21*
D03*
X879704Y788264D02*
G54D21*
D03*
X882879Y912089D02*
G54D22*
D03*
X882879Y902564D02*
G54D22*
D03*
X882879Y921614D02*
G54D22*
D03*
X962254Y696189D02*
G54D21*
D03*
X936854Y696189D02*
G54D21*
D03*
X930504Y788264D02*
G54D21*
D03*
X320904Y204064D02*
G54D21*
D03*
G36*
X308922Y521074D02*
X321050Y521074D01*
X321050Y508946D01*
X308922Y508946D01*
X308922Y521074D01*
G37*
G36*
X308922Y671062D02*
X321050Y671062D01*
X321050Y658934D01*
X308922Y658934D01*
X308922Y671062D01*
G37*
G36*
X368916Y521074D02*
X381044Y521074D01*
X381044Y508946D01*
X368916Y508946D01*
X368916Y521074D01*
G37*
G36*
X388932Y521074D02*
X401060Y521074D01*
X401060Y508946D01*
X388932Y508946D01*
X388932Y521074D01*
G37*
X673329Y127864D02*
G54D21*
D03*
X679679Y813664D02*
G54D21*
D03*
X654279Y813664D02*
G54D21*
D03*
X724129Y127864D02*
G54D21*
D03*
X749529Y127864D02*
G54D21*
D03*
X705079Y813664D02*
G54D21*
D03*
X730479Y813664D02*
G54D21*
D03*
X774929Y127864D02*
G54D21*
D03*
X809854Y670789D02*
G54D21*
D03*
X784454Y670789D02*
G54D21*
D03*
X784454Y439014D02*
G54D21*
D03*
X809854Y439014D02*
G54D21*
D03*
X886054Y670789D02*
G54D21*
D03*
X860654Y670789D02*
G54D21*
D03*
X854304Y813664D02*
G54D21*
D03*
X905104Y813664D02*
G54D21*
D03*
X879704Y813664D02*
G54D21*
D03*
X962254Y670789D02*
G54D21*
D03*
X936854Y670789D02*
G54D21*
D03*
X930504Y813664D02*
G54D21*
D03*
G36*
X146565Y426028D02*
X158693Y426028D01*
X158693Y413900D01*
X146565Y413900D01*
X146565Y426028D01*
G37*
G36*
X146565Y406978D02*
X158693Y406978D01*
X158693Y394850D01*
X146565Y394850D01*
X146565Y406978D01*
G37*
G36*
X298940Y541064D02*
X311068Y541064D01*
X311068Y528936D01*
X298940Y528936D01*
X298940Y541064D01*
G37*
G36*
X448926Y531057D02*
X461054Y531057D01*
X461054Y518929D01*
X448926Y518929D01*
X448926Y531057D01*
G37*
G36*
X458934Y571062D02*
X471062Y571062D01*
X471062Y558934D01*
X458934Y558934D01*
X458934Y571062D01*
G37*
G36*
X448926Y706063D02*
X461054Y706063D01*
X461054Y693935D01*
X448926Y693935D01*
X448926Y706063D01*
G37*
X759054Y413614D02*
G54D21*
D03*
X835254Y413614D02*
G54D21*
D03*
X835254Y696189D02*
G54D21*
D03*
X682854Y912089D02*
G54D22*
D03*
X682854Y902564D02*
G54D22*
D03*
X682854Y921614D02*
G54D22*
D03*
X911454Y696189D02*
G54D21*
D03*
X911454Y912089D02*
G54D22*
D03*
X911454Y902564D02*
G54D22*
D03*
X911454Y921614D02*
G54D22*
D03*
X835254Y670789D02*
G54D21*
D03*
X759054Y439014D02*
G54D21*
D03*
X835254Y439014D02*
G54D21*
D03*
X911454Y670789D02*
G54D21*
D03*
M02*
